<?xml version="1.0" standalone="no"?>
<!DOCTYPE svg PUBLIC "-//W3C//DTD SVG 20010904//EN"
 "http://www.w3.org/TR/2001/REC-SVG-20010904/DTD/svg10.dtd">
<svg version="1.0" xmlns="http://www.w3.org/2000/svg"
 width="435.000000pt" height="435.000000pt" viewBox="0 0 435.000000 435.000000"
 preserveAspectRatio="xMidYMid meet">

<g transform="translate(0.000000,435.000000) scale(0.100000,-0.100000)"
fill="#000000" stroke="none">
<path d="M1938 4103 c7 -3 16 -2 19 1 4 3 -2 6 -13 5 -11 0 -14 -3 -6 -6z"/>
<path d="M2403 4103 c9 -2 23 -2 30 0 6 3 -1 5 -18 5 -16 0 -22 -2 -12 -5z"/>
<path d="M2500 4090 c8 -5 24 -10 34 -10 26 0 18 6 -19 14 -22 5 -26 4 -15 -4z"/>
<path d="M2255 4080 c3 -5 8 -10 11 -10 2 0 4 5 4 10 0 6 -5 10 -11 10 -5 0
-7 -4 -4 -10z"/>
<path d="M2318 4073 c12 -2 30 -2 40 0 9 3 -1 5 -23 4 -22 0 -30 -2 -17 -4z"/>
<path d="M1960 4035 c-138 -19 -360 -73 -435 -105 -245 -105 -336 -155 -482
-264 -158 -118 -366 -337 -440 -462 -10 -17 -40 -69 -68 -115 -27 -46 -55 -95
-61 -109 -6 -14 -20 -45 -31 -70 -184 -402 -212 -882 -77 -1304 43 -133 73
-206 85 -206 10 0 12 24 3 33 -17 16 -79 213 -111 346 -31 133 -43 418 -23
575 53 437 250 833 561 1131 144 138 250 214 431 309 184 97 346 151 573 192
99 19 338 25 465 13 747 -69 1380 -568 1610 -1269 72 -220 85 -305 85 -570 0
-219 -2 -244 -29 -373 -15 -76 -38 -165 -51 -198 -13 -32 -20 -61 -15 -64 8
-5 20 23 59 143 34 102 61 295 68 477 3 97 10 173 16 177 6 4 4 12 -6 23 -19
19 -21 31 -8 40 12 7 7 70 -9 110 -6 17 -11 31 -10 33 3 4 -31 116 -41 134 -5
10 -5 19 0 23 5 3 0 24 -11 48 -12 23 -21 49 -22 57 -2 25 -74 180 -132 285
-157 282 -344 480 -631 666 -185 121 -424 221 -625 264 -204 43 -457 55 -638
30z"/>
<path d="M2755 4030 c27 -12 43 -12 25 0 -8 5 -22 9 -30 9 -10 0 -8 -3 5 -9z"/>
<path d="M1610 4000 c-8 -5 -10 -10 -5 -10 6 0 17 5 25 10 8 5 11 10 5 10 -5
0 -17 -5 -25 -10z"/>
<path d="M2080 3911 c0 -5 9 -13 20 -16 15 -5 20 -15 20 -41 0 -21 4 -33 10
-29 6 3 10 22 10 41 0 28 -5 36 -26 44 -31 12 -34 12 -34 1z"/>
<path d="M1861 3846 c-7 -33 -16 -80 -22 -103 -11 -51 -11 -53 0 -53 10 0 24
38 22 60 -2 13 -1 13 9 0 9 -13 11 -13 19 -1 8 12 12 13 25 1 26 -21 28 -6 4
25 -20 26 -22 26 -35 9 -10 -14 -13 -14 -13 -3 0 8 5 20 11 26 16 16 20 74 5
88 -10 10 -15 1 -25 -49z"/>
<path d="M2274 3895 c10 -8 23 -12 28 -9 14 9 -2 24 -25 24 -21 -1 -21 -1 -3
-15z"/>
<path d="M2343 3903 c-15 -6 -17 -39 -3 -48 6 -3 7 1 4 9 -4 9 1 18 10 22 9 3
16 10 16 15 0 10 -8 10 -27 2z"/>
<path d="M3000 3895 c33 -19 49 -19 24 0 -10 8 -26 14 -34 14 -9 0 -4 -6 10
-14z"/>
<path d="M2477 3857 c-28 -22 -64 -118 -51 -138 10 -17 24 -9 24 12 0 42 24
101 47 117 22 14 26 14 40 -1 14 -14 20 -76 11 -118 -2 -8 4 -14 12 -14 10 0
15 11 15 35 0 19 4 38 8 41 12 9 -19 66 -42 79 -27 14 -32 13 -64 -13z"/>
<path d="M2150 3806 c0 -24 -3 -58 -6 -75 -4 -20 -3 -31 5 -31 7 0 11 21 11
55 0 30 3 55 8 55 8 0 47 -47 102 -122 48 -65 64 -60 68 21 2 36 -2 69 -7 74
-8 8 -11 -10 -11 -58 l0 -68 -31 44 c-48 67 -119 149 -130 149 -5 0 -9 -20 -9
-44z"/>
<path d="M2399 3823 c-13 -16 -12 -17 4 -4 9 7 17 15 17 17 0 8 -8 3 -21 -13z"/>
<path d="M2880 3829 c0 -5 5 -7 10 -4 6 3 10 8 10 11 0 2 -4 4 -10 4 -5 0 -10
-5 -10 -11z"/>
<path d="M1640 3806 c0 -13 -7 -27 -16 -30 -24 -9 -10 -19 15 -11 15 4 21 15
21 36 0 16 -4 29 -10 29 -5 0 -10 -11 -10 -24z"/>
<path d="M2622 3798 c6 -18 28 -21 28 -4 0 9 -7 16 -16 16 -9 0 -14 -5 -12
-12z"/>
<path d="M2751 3796 c-7 -8 -10 -20 -6 -26 5 -8 11 -6 19 6 12 16 14 16 34 -4
26 -26 32 -27 32 -8 0 30 -60 55 -79 32z"/>
<path d="M1517 3783 c-14 -13 -7 -63 8 -63 10 0 15 11 15 35 0 33 -8 43 -23
28z"/>
<path d="M2350 3756 c0 -68 55 -127 132 -141 78 -15 155 39 165 115 7 51 -11
48 -21 -3 -9 -51 -53 -87 -107 -89 -66 -3 -105 17 -129 66 -11 23 -20 50 -20
59 0 9 -4 17 -10 17 -5 0 -10 -11 -10 -24z"/>
<path d="M2860 3761 c0 -31 -11 -51 -28 -51 -12 0 -13 -3 -4 -12 15 -15 25 -5
46 45 13 32 13 37 0 37 -7 0 -14 -9 -14 -19z"/>
<path d="M2670 3755 c0 -25 25 -67 59 -99 46 -44 46 -27 1 28 -22 27 -40 57
-40 67 0 10 -4 19 -10 19 -5 0 -10 -7 -10 -15z"/>
<path d="M1884 3710 c-22 -9 -41 -40 -24 -40 6 0 10 4 10 9 0 5 16 12 35 15
26 5 40 3 51 -9 21 -21 29 -12 12 14 -13 22 -46 26 -84 11z"/>
<path d="M3016 3689 c12 -13 20 -16 22 -9 3 7 -2 16 -9 21 -25 16 -32 9 -13
-12z"/>
<path d="M1318 3676 c-21 -46 18 -80 42 -36 30 55 65 -2 54 -89 -3 -31 -3 -53
2 -48 14 13 23 128 11 154 -14 31 -60 31 -82 1 -17 -23 -17 -23 -10 10 8 38
-1 42 -17 8z"/>
<path d="M1450 3692 c0 -6 4 -13 9 -17 6 -3 8 -29 5 -58 -3 -37 -2 -46 5 -32
15 31 13 91 -4 105 -9 8 -15 9 -15 2z"/>
<path d="M1548 3673 c-16 -2 -28 -9 -28 -14 0 -6 23 -7 60 -3 61 7 97 -6 83
-28 -3 -6 0 -9 8 -6 22 7 16 31 -11 45 -25 12 -58 14 -112 6z"/>
<path d="M1820 3669 c0 -5 5 -7 10 -4 6 3 10 8 10 11 0 2 -4 4 -10 4 -5 0 -10
-5 -10 -11z"/>
<path d="M2658 3672 c-19 -4 -52 -67 -43 -82 3 -6 15 -10 25 -10 11 0 34 -9
52 -20 76 -46 158 -1 146 81 -5 38 -24 33 -20 -5 5 -39 -24 -76 -59 -76 -17 0
-86 28 -117 46 -2 2 -1 12 3 24 6 20 7 21 20 3 17 -23 26 -14 17 18 -4 16 -13
23 -24 21z"/>
<path d="M1993 3658 c-29 -5 -53 -14 -53 -20 0 -6 13 -8 33 -4 17 3 74 9 125
12 51 4 95 11 98 15 7 12 -136 9 -203 -3z"/>
<path d="M1692 3616 c-17 -38 -57 -59 -97 -53 -38 6 -47 -6 -16 -22 41 -22
141 38 141 85 0 22 -16 16 -28 -10z"/>
<path d="M1806 3631 c-32 -12 -2 -21 48 -15 26 4 49 11 52 15 6 11 -73 11
-100 0z"/>
<path d="M3083 3626 c-18 -21 -79 -118 -86 -138 -14 -40 12 -13 58 57 42 66
50 74 63 61 12 -11 12 -21 4 -45 -11 -32 -3 -41 16 -18 21 25 -2 98 -32 97 -6
-1 -16 -7 -23 -14z"/>
<path d="M2018 3623 c7 -3 16 -2 19 1 4 3 -2 6 -13 5 -11 0 -14 -3 -6 -6z"/>
<path d="M1120 3613 c0 -19 185 -283 198 -283 12 0 11 5 -5 23 -12 12 -55 75
-97 139 -70 108 -96 141 -96 121z"/>
<path d="M835 3590 c-3 -5 1 -10 9 -10 9 0 16 5 16 10 0 6 -4 10 -9 10 -6 0
-13 -4 -16 -10z"/>
<path d="M3183 3577 c4 -10 7 -34 7 -53 0 -19 5 -34 10 -34 17 0 12 76 -7 91
-15 12 -16 12 -10 -4z"/>
<path d="M790 3549 l-23 -31 22 11 c22 12 38 38 28 47 -3 3 -15 -9 -27 -27z"/>
<path d="M3544 3559 c8 -11 25 -28 38 -36 15 -11 11 -4 -11 20 -39 41 -49 47
-27 16z"/>
<path d="M2085 3560 c3 -5 69 -9 148 -10 78 0 160 -5 182 -10 47 -11 81 -13
72 -3 -23 22 -416 45 -402 23z"/>
<path d="M1534 3543 c0 -11 -16 -27 -49 -45 -51 -28 -81 -36 -70 -18 3 6 1 10
-4 10 -6 0 -11 -9 -11 -20 0 -28 25 -25 95 13 41 22 60 38 60 51 0 11 -5 21
-11 23 -7 2 -11 -4 -10 -14z"/>
<path d="M1034 3533 c15 -37 179 -273 191 -273 16 0 64 39 49 40 -6 0 -17 -7
-24 -15 -7 -8 -15 -15 -19 -15 -3 0 -46 63 -96 140 -49 76 -94 139 -99 140 -4
0 -5 -8 -2 -17z"/>
<path d="M2025 3514 c-55 -6 -111 -15 -125 -18 -14 -4 -45 -12 -70 -18 -122
-28 -301 -108 -407 -180 -67 -45 -51 -42 30 6 251 148 509 215 782 203 200 -9
328 -38 505 -115 201 -86 386 -229 515 -397 30 -39 22 -33 -33 25 -39 41 -71
70 -72 65 0 -6 18 -29 40 -50 22 -22 52 -56 67 -77 22 -32 28 -36 41 -26 13
11 14 9 9 -14 -4 -16 -3 -30 4 -34 17 -10 144 -278 173 -364 27 -79 60 -271
54 -317 -3 -24 -6 -22 -46 35 -49 70 -54 74 -76 66 -21 -8 -20 -22 2 -20 13 1
17 -6 15 -34 -3 -34 -2 -34 11 -11 12 22 14 22 19 5 4 -11 16 -35 28 -54 29
-47 33 -168 6 -198 -20 -22 -82 -31 -229 -34 -42 -2 -72 -5 -66 -9 12 -8 202
-3 257 7 18 3 41 9 50 14 9 5 24 11 34 14 12 4 17 16 18 48 0 24 2 73 5 110 6
81 -18 274 -47 377 -119 424 -436 763 -864 924 -195 74 -403 97 -630 71z"/>
<path d="M2518 3523 c7 -3 16 -2 19 1 4 3 -2 6 -13 5 -11 0 -14 -3 -6 -6z"/>
<path d="M1798 3513 c7 -3 16 -2 19 1 4 3 -2 6 -13 5 -11 0 -14 -3 -6 -6z"/>
<path d="M699 3457 c-45 -52 -142 -184 -191 -258 -75 -116 -208 -410 -208
-462 0 -18 29 26 30 45 0 10 11 41 24 70 14 29 36 80 49 113 27 70 127 245
162 287 14 16 25 33 25 38 0 5 36 50 80 101 44 50 80 96 80 100 0 17 -15 7
-51 -34z"/>
<path d="M1678 3482 c-48 -17 -71 -32 -50 -32 7 0 20 4 30 9 9 5 35 16 57 25
54 20 22 19 -37 -2z"/>
<path d="M2880 3493 c0 -10 117 -80 159 -96 26 -9 40 -9 74 4 l42 15 -3 -53
c-4 -52 -2 -55 40 -98 73 -73 142 -73 215 0 37 36 43 48 43 83 0 22 -4 44 -10
47 -6 3 -10 -5 -10 -19 0 -63 -52 -132 -107 -142 -48 -9 -78 2 -118 43 l-36
37 4 79 5 79 -27 -26 c-41 -39 -80 -43 -146 -12 -31 14 -68 35 -82 46 -27 21
-43 26 -43 13z"/>
<path d="M3610 3490 c1 -24 27 -53 35 -40 4 7 -2 22 -14 33 -15 16 -21 18 -21
7z"/>
<path d="M960 3481 c0 -20 181 -291 194 -291 15 0 52 38 44 45 -3 3 -11 -1
-18 -10 -7 -8 -16 -15 -21 -15 -5 0 -48 60 -95 133 -96 146 -104 157 -104 138z"/>
<path d="M2196 3470 l-40 -5 45 -30 c24 -16 63 -45 87 -63 23 -19 42 -30 42
-26 0 5 -15 19 -34 32 -18 12 -42 33 -54 45 l-21 22 29 0 c15 0 31 -3 35 -7 4
-4 14 -4 23 -1 11 5 13 3 7 -7 -5 -8 -4 -11 2 -7 10 6 60 -7 96 -25 9 -4 30
-6 45 -2 18 4 23 3 14 -4 -11 -7 -8 -11 10 -17 27 -9 28 -9 52 1 14 5 17 4 12
-4 -7 -12 9 -17 46 -14 9 1 21 -5 28 -13 8 -9 21 -13 35 -9 13 3 33 1 44 -6
14 -7 27 -8 38 -2 13 8 6 15 -38 35 -138 65 -400 120 -503 107z m314 -70 c0
-5 -4 -10 -10 -10 -5 0 -10 5 -10 10 0 6 5 10 10 10 6 0 10 -4 10 -10z"/>
<path d="M1970 3455 c-126 -19 -301 -80 -370 -128 l-21 -14 22 -6 c11 -3 18
-3 15 0 -9 9 63 41 82 36 10 -2 28 5 41 16 13 12 37 21 53 21 15 0 28 5 28 10
0 6 13 10 29 10 17 0 33 5 36 10 9 14 42 12 48 -2 4 -9 11 -6 24 10 15 18 27
23 61 21 23 -2 42 -8 42 -13 1 -31 337 -343 411 -382 25 -12 28 -12 23 0 -3 8
-16 19 -29 23 -29 10 -170 143 -151 143 8 0 16 -7 20 -15 3 -8 11 -15 17 -15
8 0 8 5 -2 16 -9 11 -10 17 -1 23 8 4 5 11 -8 19 -11 7 -20 8 -20 3 0 -5 -7
-12 -16 -15 -10 -4 -18 3 -25 24 -9 25 -14 28 -29 20 -31 -16 -150 103 -150
150 0 7 5 6 14 -2 8 -7 12 -16 9 -21 -2 -4 3 -10 12 -13 9 -4 22 -19 31 -35 8
-16 21 -29 30 -29 8 0 13 -4 10 -9 -3 -5 1 -12 10 -15 8 -3 12 -2 9 4 -9 14 9
12 23 -2 9 -9 12 -9 12 0 0 7 -4 12 -10 12 -5 0 -10 6 -10 14 0 8 -8 17 -17
21 -17 7 -17 8 0 14 15 6 9 13 -36 44 -29 20 -60 37 -68 37 -8 0 -24 7 -35 15
-10 8 -21 14 -24 14 -3 -1 -43 -7 -90 -14z m295 -205 c3 -5 2 -10 -4 -10 -5 0
-13 5 -16 10 -3 6 -2 10 4 10 5 0 13 -4 16 -10z"/>
<path d="M3314 3455 c-62 -26 -114 -87 -114 -135 0 -30 17 -24 23 8 7 35 84
112 113 112 28 0 47 -24 39 -50 -4 -11 -2 -20 4 -20 6 0 12 6 13 13 0 6 2 19
3 27 4 38 -40 63 -81 45z"/>
<path d="M1560 3430 c-19 -11 -30 -19 -25 -19 6 0 26 8 45 19 19 11 31 19 25
19 -5 0 -26 -8 -45 -19z"/>
<path d="M3661 3434 c12 -29 86 -123 97 -124 7 0 -7 27 -33 60 -42 55 -73 85
-64 64z"/>
<path d="M870 3401 c0 -9 173 -276 191 -295 9 -10 49 20 49 37 0 6 -9 2 -19
-7 -19 -17 -22 -14 -116 128 -52 80 -98 146 -100 146 -3 0 -5 -4 -5 -9z"/>
<path d="M2042 3348 c6 -48 42 -93 139 -169 24 -18 46 -37 47 -42 6 -11 82
-49 82 -39 0 4 -15 15 -32 25 -18 10 -49 32 -68 48 l-35 29 44 -3 43 -4 -24
19 c-24 19 -43 24 -34 9 11 -17 -31 -18 -52 0 -26 20 -29 34 -6 25 9 -3 12 -2
9 5 -4 6 -13 8 -20 5 -21 -8 -56 38 -58 79 -2 24 -9 40 -21 47 -17 10 -19 7
-14 -34z"/>
<path d="M2250 3357 c0 -9 51 -59 56 -54 2 2 -10 16 -26 32 -17 16 -30 26 -30
22z"/>
<path d="M2080 3346 c0 -5 43 -49 65 -66 10 -8 4 4 -15 28 -28 35 -50 52 -50
38z"/>
<path d="M790 3321 c0 -6 43 -76 96 -156 97 -148 115 -164 149 -132 58 53 124
121 122 124 -2 1 -27 -20 -55 -47 -29 -28 -58 -50 -66 -50 -8 0 -16 -7 -20
-15 -3 -8 -9 -15 -14 -15 -4 0 -50 65 -101 145 -91 141 -111 168 -111 146z"/>
<path d="M2383 3291 c23 -22 43 -38 45 -36 5 4 -71 74 -80 75 -4 0 12 -18 35
-39z"/>
<path d="M2430 3289 c0 -5 5 -7 10 -4 6 3 10 8 10 11 0 2 -4 4 -10 4 -5 0 -10
-5 -10 -11z"/>
<path d="M3770 3292 c0 -5 10 -24 23 -43 39 -58 127 -214 127 -226 0 -6 7 -16
14 -23 8 -6 22 -35 32 -63 9 -29 27 -76 40 -105 13 -29 33 -85 44 -125 11 -40
24 -88 30 -107 6 -19 13 -57 15 -85 3 -27 12 -90 20 -140 8 -49 16 -108 18
-130 2 -25 4 -16 5 25 4 199 -82 528 -199 763 -78 156 -169 295 -169 259z"/>
<path d="M2320 3285 c0 -3 19 -22 42 -43 24 -20 52 -48 63 -61 62 -72 84 -95
85 -83 0 6 -4 12 -9 12 -4 0 -21 19 -36 43 -41 60 -145 156 -145 132z"/>
<path d="M1506 3255 c-11 -8 -15 -15 -9 -15 6 0 16 7 23 15 16 19 11 19 -14 0z"/>
<path d="M1259 3247 c-43 -33 -81 -68 -78 -71 2 -2 27 16 54 40 46 40 61 60
24 31z"/>
<path d="M1319 3223 c-70 -58 -189 -176 -200 -198 -6 -11 14 5 43 36 59 62
150 145 188 172 13 9 21 19 19 22 -3 3 -25 -12 -50 -32z"/>
<path d="M2010 3229 c0 -37 16 -69 34 -69 8 0 38 -19 68 -42 96 -77 148 -108
148 -89 0 5 -12 13 -27 19 -16 5 -39 19 -53 31 l-25 23 23 -5 c19 -5 21 -3 11
9 -9 11 -15 12 -26 3 -14 -12 -22 -8 -90 55 -35 32 -44 66 -17 66 8 0 12 -4 9
-10 -3 -5 -2 -10 4 -10 14 0 25 20 15 30 -5 4 -24 10 -41 13 -31 6 -33 5 -33
-24z"/>
<path d="M2175 3250 c3 -5 11 -10 16 -10 6 0 7 5 4 10 -3 6 -11 10 -16 10 -6
0 -7 -4 -4 -10z"/>
<path d="M710 3225 c0 -12 125 -195 133 -195 5 0 2 10 -6 23 -8 13 -37 58 -63
100 -40 65 -64 92 -64 72z"/>
<path d="M3580 3220 c0 -5 5 -10 11 -10 5 0 7 5 4 10 -3 6 -8 10 -11 10 -2 0
-4 -4 -4 -10z"/>
<path d="M1390 3202 c0 -15 125 -208 140 -217 24 -15 15 4 -51 104 -75 114
-89 132 -89 113z"/>
<path d="M2105 3200 c3 -5 20 -19 38 -31 l32 -22 -32 32 c-31 30 -50 41 -38
21z"/>
<path d="M2480 3180 c0 -5 5 -10 11 -10 5 0 7 5 4 10 -3 6 -8 10 -11 10 -2 0
-4 -4 -4 -10z"/>
<path d="M2712 3176 c7 -8 15 -12 17 -11 5 6 -10 25 -20 25 -5 0 -4 -6 3 -14z"/>
<path d="M1298 3168 c-15 -12 -12 -20 28 -83 24 -38 48 -77 53 -85 5 -8 12
-12 16 -8 4 3 -16 40 -43 81 -37 55 -47 79 -40 91 11 19 7 20 -14 4z"/>
<path d="M2603 3149 c-24 -17 -43 -35 -43 -40 0 -6 10 -3 22 5 12 9 31 16 42
16 11 0 16 3 13 6 -3 4 -2 15 4 25 12 24 12 24 -38 -12z"/>
<path d="M3220 3135 c25 -27 47 -52 50 -55 4 -4 103 -131 117 -149 2 -2 5 -2
8 1 11 11 -112 159 -186 223 -26 23 -24 18 11 -20z"/>
<path d="M3636 3167 c3 -10 9 -15 12 -12 3 3 0 11 -7 18 -10 9 -11 8 -5 -6z"/>
<path d="M1510 3166 c0 -2 7 -9 15 -16 13 -11 14 -10 9 4 -5 14 -24 23 -24 12z"/>
<path d="M2286 3135 c10 -8 23 -15 28 -15 6 0 1 7 -10 15 -10 8 -23 15 -28 15
-6 0 -1 -7 10 -15z"/>
<path d="M653 3126 c11 -29 59 -98 64 -93 7 7 -50 107 -61 107 -4 0 -6 -6 -3
-14z"/>
<path d="M2010 3100 c9 -48 2 -40 67 -78 42 -25 52 -28 57 -16 3 9 1 12 -4 9
-28 -17 -103 65 -86 94 5 8 -22 31 -37 31 -2 0 -1 -18 3 -40z"/>
<path d="M2895 3130 c3 -5 8 -10 11 -10 2 0 4 5 4 10 0 6 -5 10 -11 10 -5 0
-7 -4 -4 -10z"/>
<path d="M3610 3132 c-33 -15 -60 -37 -60 -49 0 -19 8 -16 42 12 34 29 48 32
48 10 0 -8 5 -15 10 -15 14 0 13 23 -2 38 -13 13 -16 14 -38 4z"/>
<path d="M1233 3109 l-21 -21 25 -44 c26 -47 43 -63 43 -42 0 7 -11 26 -25 42
-30 35 -30 34 -3 63 27 29 10 31 -19 2z"/>
<path d="M2060 3111 c0 -6 9 -15 19 -21 11 -5 25 -16 33 -23 21 -21 120 -79
125 -73 3 2 -10 12 -29 22 -18 9 -59 37 -90 61 -32 24 -58 40 -58 34z"/>
<path d="M2330 3106 c0 -2 7 -7 16 -10 8 -3 12 -2 9 4 -6 10 -25 14 -25 6z"/>
<path d="M2445 3100 c3 -5 11 -10 16 -10 6 0 7 5 4 10 -3 6 -11 10 -16 10 -6
0 -7 -4 -4 -10z"/>
<path d="M3685 3084 c12 -65 -34 -111 -84 -84 -20 10 -23 7 -41 -32 -11 -24
-20 -51 -20 -60 0 -10 -4 -18 -8 -18 -14 0 -35 48 -29 64 9 22 -6 20 -20 -3
-10 -15 -7 -25 13 -55 14 -21 31 -35 37 -33 6 2 21 28 33 58 21 53 23 54 69
60 70 8 94 52 59 109 l-15 25 6 -31z"/>
<path d="M3385 3063 c39 -61 67 -93 76 -87 6 4 1 17 -14 33 -13 14 -32 38 -42
54 -9 15 -22 27 -27 27 -6 0 -2 -12 7 -27z"/>
<path d="M2340 3065 c19 -23 99 -67 110 -60 20 12 9 23 -28 29 -21 3 -47 15
-57 26 -21 23 -44 28 -25 5z"/>
<path d="M2980 3059 c0 -5 5 -7 10 -4 6 3 10 8 10 11 0 2 -4 4 -10 4 -5 0 -10
-5 -10 -11z"/>
<path d="M3488 3052 c-16 -9 -28 -23 -28 -30 0 -12 5 -11 25 2 32 21 38 20 25
-3 -12 -24 -13 -31 -2 -31 7 0 32 57 32 73 0 12 -24 7 -52 -11z"/>
<path d="M1156 3024 c-4 -10 -1 -14 6 -12 15 5 23 28 10 28 -5 0 -13 -7 -16
-16z"/>
<path d="M2987 3026 c-3 -7 -1 -18 5 -24 8 -8 4 -14 -15 -21 -15 -6 -27 -13
-27 -16 0 -2 12 0 27 6 34 13 42 4 48 -56 3 -28 10 -64 16 -82 7 -21 7 -38 1
-50 -13 -23 11 -83 32 -83 12 0 13 11 9 58 -3 31 -10 65 -14 74 -5 9 -9 29 -9
45 0 16 -7 38 -15 50 -9 12 -14 26 -13 30 4 13 -23 83 -32 83 -4 0 -10 -6 -13
-14z"/>
<path d="M2020 2992 c8 -47 15 -59 41 -73 20 -10 20 -10 4 21 -9 18 -15 40
-12 50 2 9 -4 22 -14 28 -27 17 -27 16 -19 -26z"/>
<path d="M2930 3016 c0 -9 5 -16 10 -16 6 0 10 4 10 9 0 6 -4 13 -10 16 -5 3
-10 -1 -10 -9z"/>
<path d="M2303 2996 c19 -13 46 -27 58 -30 23 -6 23 -5 -1 7 -14 6 -36 20 -50
30 -13 9 -29 17 -34 17 -5 0 7 -11 27 -24z"/>
<path d="M550 2981 c-19 -37 -29 -71 -21 -71 5 0 11 9 14 20 5 19 15 20 164
22 l158 2 -148 3 c-142 3 -148 4 -142 23 8 26 -11 26 -25 1z"/>
<path d="M2746 2977 c-18 -18 -22 -31 -19 -51 4 -20 8 -24 14 -15 5 8 22 12
44 10 34 -2 65 12 65 30 0 17 -40 49 -60 49 -12 0 -31 -11 -44 -23z m64 -2
c10 -12 10 -15 -4 -15 -9 0 -16 -5 -16 -12 0 -6 -6 -3 -14 7 -24 33 8 51 34
20z"/>
<path d="M1086 2956 c-18 -18 -43 -55 -57 -82 -14 -27 -42 -80 -62 -119 -20
-38 -37 -75 -37 -82 0 -7 -12 -36 -26 -63 -23 -44 -28 -49 -43 -38 -26 21 -40
42 -41 61 0 21 -38 37 -90 37 -21 0 -59 9 -85 20 -39 17 -45 23 -40 41 7 20 4
21 -42 19 -82 -4 -93 -2 -87 18 21 62 36 82 62 83 22 1 23 3 6 6 -16 3 -20 9
-17 24 10 36 -14 19 -32 -23 -10 -24 -24 -57 -31 -75 -8 -17 -14 -35 -14 -41
0 -12 24 -22 51 -22 10 0 25 -13 34 -29 38 -75 187 -291 200 -291 15 0 12 -44
-5 -85 -5 -11 -10 -31 -12 -45 -2 -20 -29 14 -136 175 -117 176 -133 204 -128
233 6 37 -6 42 -22 8 -12 -28 -11 -30 157 -290 63 -97 120 -176 127 -176 10 0
12 -25 11 -100 -1 -55 -3 -100 -4 -100 -1 0 -213 319 -274 414 -24 38 -43 71
-43 75 1 3 5 16 9 29 9 31 -7 28 -22 -4 -12 -25 -4 -39 125 -243 76 -119 149
-233 163 -253 13 -21 32 -38 42 -38 12 0 17 -8 17 -30 0 -48 29 -176 61 -273
143 -430 493 -779 924 -920 487 -160 1008 -56 1408 281 42 36 77 69 77 74 0
21 26 4 40 -25 14 -29 20 -33 73 -38 34 -4 66 -14 78 -25 17 -15 25 -16 50 -7
19 7 40 8 57 3 69 -21 99 -19 125 8 55 60 116 155 184 288 124 243 181 451
189 694 6 168 -10 176 -20 10 -17 -296 -117 -601 -281 -855 -83 -130 -87 -134
-143 -129 -26 2 -59 7 -75 10 -16 4 -33 1 -42 -6 -13 -10 -19 -10 -34 4 -10 9
-46 21 -80 27 -37 7 -61 16 -61 24 0 16 -60 75 -77 75 -18 0 -16 17 2 28 26
14 7 38 -33 42 -20 2 -68 3 -107 2 -69 -1 -68 10 3 21 17 3 36 8 41 12 6 3 11
1 11 -5 0 -8 9 -10 27 -6 16 5 29 3 33 -5 5 -7 20 2 44 27 19 22 36 34 36 28
0 -6 -11 -21 -25 -34 -30 -28 -31 -36 -5 -43 16 -4 30 8 64 56 24 34 50 75 58
92 7 16 21 38 32 48 10 11 27 40 38 66 11 25 29 65 39 88 63 141 118 353 91
353 -6 0 -17 -10 -24 -22 -12 -22 -13 -27 -16 -56 -2 -9 -20 -11 -79 -6 -70 6
-84 4 -137 -20 -32 -14 -71 -26 -85 -26 -15 0 -31 -4 -37 -10 -16 -16 -105
-25 -113 -12 -12 20 -93 30 -131 16 -34 -13 -34 -13 18 -7 54 5 73 -10 30 -26
l-22 -8 22 -5 c12 -4 26 0 33 8 13 16 45 19 53 5 12 -18 79 -17 115 1 20 10
41 16 48 14 7 -3 36 8 65 23 53 29 68 30 201 21 21 -1 21 -4 3 -65 -16 -53
-60 -105 -88 -105 -11 0 -20 -10 -24 -26 -4 -17 -11 -23 -21 -20 -8 4 -28 -5
-45 -19 -16 -14 -35 -25 -42 -25 -7 0 -33 -16 -57 -35 -24 -19 -49 -35 -55
-35 -19 0 -42 -34 -39 -60 1 -14 -3 -28 -9 -32 -13 -9 36 -11 58 -2 9 3 14 10
11 14 -2 4 4 15 15 25 17 16 20 16 20 2 0 -8 -6 -18 -12 -20 -10 -4 -10 -6 -1
-6 15 -1 93 69 93 83 0 5 -9 1 -20 -9 -23 -21 -39 -13 -20 10 7 9 10 18 8 21
-3 3 -14 -5 -24 -18 -24 -29 -68 -58 -90 -58 -13 0 -14 3 -4 15 7 8 17 15 22
15 15 0 159 98 175 118 12 16 12 16 13 0 0 -9 -13 -26 -30 -38 -34 -24 -42
-47 -11 -30 36 19 42 11 21 -29 -11 -22 -24 -42 -30 -46 -5 -3 -10 -14 -10
-24 0 -13 -16 -26 -50 -40 -27 -12 -50 -27 -50 -34 0 -13 -128 -59 -177 -63
-18 -1 -44 -14 -60 -28 -24 -22 -26 -28 -13 -36 23 -15 1 -11 -58 9 l-53 18
25 17 c30 19 45 21 28 4 -17 -17 -15 -27 6 -23 9 2 24 4 33 4 9 1 21 12 27 26
11 24 10 25 -28 31 -41 7 -51 18 -26 27 22 9 95 -4 107 -19 14 -17 23 -17 62
0 18 7 51 19 75 26 23 7 42 19 42 27 0 16 4 17 -66 -7 -66 -23 -124 -33 -124
-22 0 5 -16 14 -35 21 -19 7 -33 17 -30 22 4 5 -1 9 -9 9 -8 0 -17 3 -19 8 -3
4 12 7 33 7 34 1 37 -1 29 -16 -14 -27 8 -33 23 -7 7 13 13 30 13 38 0 9 16
17 42 23 31 6 52 19 80 51 40 44 83 78 53 41 -14 -17 -14 -17 5 -7 38 22 55
39 55 57 0 10 26 42 58 72 34 32 47 49 32 42 -14 -6 -40 -25 -58 -43 -21 -20
-31 -24 -26 -13 6 16 4 16 -28 -2 -44 -26 -81 -69 -72 -83 5 -7 2 -9 -9 -5 -9
3 -16 3 -15 -1 1 -4 -4 -19 -10 -35 -11 -26 -24 -34 -82 -52 -24 -7 -24 -7 -7
12 22 25 22 32 -2 30 -11 0 -19 -5 -18 -10 1 -5 -16 -15 -38 -23 -22 -8 -52
-21 -67 -29 -14 -8 -38 -15 -51 -15 -14 0 -29 -5 -32 -10 -3 -6 -11 -10 -17
-10 -6 0 -5 7 3 17 11 13 11 17 1 20 -6 3 -10 9 -6 14 3 5 -3 9 -14 9 -10 0
-19 -7 -19 -15 0 -8 5 -15 11 -15 6 0 5 -4 -3 -9 -11 -7 -10 -12 8 -22 11 -8
21 -19 21 -26 0 -18 -17 -16 -24 2 -6 17 -46 21 -46 5 0 -5 9 -10 20 -10 32 0
23 -17 -10 -18 -16 0 -30 4 -30 9 0 5 -15 9 -34 9 -19 0 -44 8 -56 18 l-22 17
51 19 c29 10 51 24 51 32 0 8 7 17 15 20 8 4 12 10 9 16 -3 5 17 33 45 63 28
30 51 63 51 74 0 11 7 24 16 29 21 12 4 23 -24 16 -13 -4 -19 -11 -15 -21 8
-21 -17 -63 -39 -63 -10 0 -17 -3 -16 -7 1 -5 -1 -18 -5 -29 -8 -24 -34 -34
-84 -34 -37 0 -41 -7 -15 -27 15 -12 6 -13 -63 -8 -43 4 -83 9 -88 12 -4 3
-16 -2 -25 -11 -16 -14 -18 -13 -20 10 -2 26 -2 26 71 24 99 -4 102 -3 136 25
27 23 31 24 39 9 9 -16 11 -15 21 4 11 20 9 22 -14 22 -17 0 -24 4 -19 12 5 8
2 9 -10 5 -10 -4 -20 -7 -22 -7 -3 0 -2 -4 1 -10 3 -5 1 -10 -4 -10 -6 0 -11
-6 -11 -14 0 -9 -12 -16 -27 -18 -44 -5 -103 3 -97 13 3 6 -6 7 -23 4 -27 -6
-27 -6 -9 9 19 16 19 16 -5 16 -19 0 -24 6 -25 25 -2 30 16 33 34 5 7 -11 19
-20 27 -20 18 0 20 16 3 24 -7 3 6 2 29 -1 50 -6 150 21 175 48 18 21 38 25
38 8 0 -6 6 -9 13 -6 6 2 11 10 9 16 -3 13 7 17 61 25 34 4 38 3 32 -12 -5
-14 -4 -15 6 -4 7 6 21 12 32 12 10 0 16 4 13 9 -4 5 0 12 6 15 7 4 2 4 -11 2
-13 -3 -31 0 -41 7 -14 8 -22 7 -36 -4 -16 -12 -17 -12 -12 2 5 14 -6 19 -65
29 -82 13 -88 14 -139 9 -50 -4 -37 -20 15 -18 23 1 52 -3 64 -9 12 -7 40 -12
62 -12 22 0 43 -4 46 -10 4 -6 -6 -10 -23 -10 -30 0 -92 -26 -92 -39 0 -18
-98 -32 -161 -23 -35 5 -78 9 -95 8 -32 -1 -69 -29 -60 -45 7 -12 -18 -21 -55
-21 -18 0 -28 4 -24 10 3 6 -3 10 -14 10 -12 0 -21 4 -21 9 0 16 -34 18 -57 3
-13 -8 -20 -19 -16 -25 3 -5 -9 -1 -27 9 -39 23 -82 72 -74 85 3 5 0 9 -6 9
-6 0 -9 4 -6 9 4 5 0 12 -6 15 -7 3 -4 4 7 1 11 -2 34 3 50 11 l30 14 -38 -4
c-29 -4 -44 0 -59 13 -18 17 -55 28 -115 34 -11 1 -19 6 -16 11 3 4 -5 5 -18
0 -13 -4 -35 -7 -49 -7 -21 1 -22 0 -6 -9 9 -5 38 -10 62 -11 28 0 40 -3 32
-8 -9 -6 -4 -9 13 -9 63 0 87 -11 93 -43 3 -16 5 -31 3 -33 -3 -3 -102 19
-170 38 -27 7 -45 17 -40 22 4 5 -1 6 -13 2 -14 -4 -27 0 -40 15 -19 22 -19
22 3 8 17 -10 25 -11 34 -2 8 8 6 11 -7 10 -11 -1 -18 3 -17 8 1 6 -19 9 -50
8 -76 -4 -142 6 -128 20 18 18 13 25 -14 19 -14 -2 -25 0 -25 4 0 5 -24 10
-53 11 -28 1 -74 4 -102 7 -27 2 -56 -1 -62 -6 -9 -7 -21 -5 -38 6 -14 9 -29
15 -33 12 -4 -2 -27 -1 -50 4 -36 6 -42 5 -38 -7 5 -11 1 -13 -17 -7 -12 4
-25 11 -29 17 -4 7 -12 6 -22 -2 -19 -16 -12 -33 11 -24 10 4 5 -6 -11 -24
-23 -25 -37 -32 -79 -36 -29 -2 -70 -9 -92 -15 -38 -10 -41 -10 -66 21 -17 20
-29 48 -32 77 -3 25 -4 46 -3 48 2 1 15 -16 30 -38 14 -22 33 -40 42 -40 12 0
9 9 -13 38 -52 66 -63 91 -63 132 0 23 -5 50 -10 61 -6 11 -7 31 -3 48 8 29
11 25 88 -97 44 -70 79 -130 77 -134 -4 -15 46 -8 59 8 11 13 9 14 -13 9 -19
-5 -27 -2 -31 12 -4 10 -29 52 -57 93 -112 167 -110 163 -110 212 0 42 -18 78
-38 78 -4 0 -8 -30 -10 -68 -1 -46 1 -62 8 -52 7 11 9 5 8 -22 -1 -21 -6 -38
-12 -38 -17 0 -7 -140 10 -158 8 -7 14 -23 13 -35 -1 -20 -2 -20 -9 3 -7 22
-8 21 -9 -12 -1 -21 7 -59 18 -85 10 -26 21 -66 25 -87 4 -22 19 -62 32 -88
13 -26 22 -48 20 -48 -5 0 81 -170 104 -207 8 -12 22 -24 32 -26 12 -4 16 -11
12 -21 -6 -17 37 -66 58 -66 5 0 7 -7 4 -15 -6 -17 68 -105 88 -105 16 0 66
-52 66 -68 0 -7 7 -12 15 -12 9 0 18 -7 21 -15 4 -8 10 -15 15 -15 13 0 99
-63 99 -72 0 -4 6 -8 13 -8 7 0 36 -16 66 -35 29 -19 57 -35 62 -35 5 0 17 -4
27 -9 39 -21 129 -60 162 -70 412 -129 847 -69 1190 164 44 30 86 55 93 55 17
1 47 25 47 38 0 21 60 54 85 48 38 -10 30 -30 -33 -86 -191 -171 -482 -308
-737 -346 -108 -17 -313 -18 -422 -3 -258 34 -529 153 -719 314 -141 121 -292
312 -356 452 -59 132 -66 149 -97 245 -57 180 -76 439 -45 611 9 48 14 94 10
102 -10 26 -26 16 -26 -16 0 -17 -4 -29 -9 -27 -18 6 -210 303 -202 311 11 11
41 -2 41 -18 0 -15 80 -65 103 -65 9 0 28 -20 44 -45 17 -27 35 -45 47 -45 13
0 16 -5 11 -17 -15 -36 -17 -53 -8 -53 16 0 34 72 21 87 -7 9 -7 13 1 13 14 0
63 -30 73 -45 11 -15 10 -45 -2 -45 -5 0 -10 8 -10 17 0 9 -3 13 -6 10 -11
-10 -11 -51 -1 -64 6 -8 6 -13 -1 -13 -10 0 -22 -29 -28 -70 -2 -18 1 -15 10
9 7 21 15 30 19 24 4 -7 3 -14 -2 -17 -5 -3 -7 -16 -3 -28 5 -19 6 -20 12 -4
4 13 39 -33 134 -180 85 -131 123 -200 115 -204 -17 -11 3 -19 26 -10 12 4 27
15 34 24 12 14 11 16 -10 14 -20 -3 -24 2 -24 22 0 15 -5 24 -13 22 -6 -1 -64
76 -127 172 -110 165 -132 214 -105 231 6 4 7 13 1 24 -6 10 -6 23 -1 31 11
17 10 18 47 -50 45 -83 57 -104 64 -110 3 -3 54 -78 112 -167 59 -90 110 -163
115 -163 23 0 17 17 -27 78 -26 37 -85 125 -132 197 -46 71 -103 158 -125 192
l-42 62 30 6 c25 6 34 1 67 -34 21 -23 45 -41 53 -41 9 0 18 -7 22 -15 5 -14
109 -175 228 -353 26 -40 48 -77 48 -82 0 -5 12 -16 28 -23 36 -19 85 -30 78
-19 -3 5 -19 12 -35 15 -21 4 -35 17 -47 39 -9 18 -79 126 -155 240 -76 114
-134 210 -128 214 5 3 22 -8 37 -24 15 -16 43 -35 63 -42 25 -9 45 -27 64 -59
94 -151 251 -388 264 -398 8 -7 29 -13 45 -12 l31 1 -30 9 c-25 8 -52 45 -160
215 -71 113 -138 214 -149 225 -21 23 -20 25 17 34 20 6 27 4 27 -8 0 -8 -6
-18 -12 -20 -7 -3 -4 -6 8 -6 11 -1 29 -10 39 -21 10 -11 28 -20 40 -20 16 0
34 -18 65 -67 110 -172 137 -213 183 -283 56 -86 61 -90 105 -90 18 0 40 -4
50 -9 9 -5 44 -14 77 -21 33 -6 95 -18 138 -27 65 -14 83 -14 117 -3 34 11 42
11 64 -4 32 -21 124 -21 153 -1 15 11 53 16 129 18 81 1 108 5 112 16 3 10 -2
12 -21 7 -18 -4 -27 -1 -31 11 -8 19 10 33 33 26 11 -3 11 -1 -2 7 -15 9 -22
8 -38 -6 -10 -9 -19 -24 -19 -33 -1 -14 -2 -14 -14 2 -14 18 -52 25 -41 7 11
-17 -11 -11 -28 8 -20 22 -13 32 24 32 15 0 31 5 35 11 3 6 16 8 28 5 20 -5
20 -4 2 9 -17 13 -16 16 20 62 22 26 41 50 44 53 57 57 206 361 226 460 10 54
30 86 68 109 37 23 56 20 91 -15 24 -24 24 -64 0 -64 -7 0 -18 -21 -25 -47
-16 -63 -26 -213 -13 -213 25 0 33 28 33 115 0 49 5 97 10 105 7 10 8 -4 4
-45 -5 -50 2 -120 19 -194 2 -8 12 -20 21 -27 12 -8 16 -19 11 -34 -4 -12 -1
-27 6 -36 10 -12 8 -19 -10 -37 -21 -23 -29 -57 -12 -57 11 0 20 -46 14 -71
-3 -10 -9 -16 -14 -13 -5 3 -19 -2 -31 -10 -12 -9 -32 -16 -44 -16 -12 0 -24
-5 -26 -11 -2 -7 -12 -7 -31 2 -33 15 -34 23 -4 26 58 5 107 21 107 34 0 12
-27 12 -35 -1 -4 -6 -15 -6 -31 1 -22 8 -25 7 -20 -6 7 -19 -14 -20 -39 -1
-17 12 -19 24 -17 80 4 80 -14 89 -23 12 -8 -64 -2 -99 32 -173 19 -40 28 -51
34 -42 6 10 11 11 17 3 4 -6 45 -14 92 -16 47 -3 76 -1 65 3 -11 4 -34 8 -52
8 -55 2 -51 31 5 37 15 1 31 -4 37 -13 10 -13 13 -12 27 8 8 13 18 36 21 50 4
15 14 30 23 33 14 5 15 0 9 -40 -6 -44 -5 -45 17 -42 21 3 23 7 19 52 -3 53
13 57 24 6 4 -17 11 -30 17 -30 7 0 8 12 3 33 -4 17 -7 41 -7 52 1 11 -8 28
-18 38 -11 10 -20 25 -20 33 0 8 -11 37 -25 64 -19 38 -26 71 -32 152 -7 114
-3 118 50 40 22 -32 45 -138 47 -216 1 -17 30 26 30 43 0 8 6 22 14 30 8 9 18
30 22 46 6 26 5 28 -8 18 -16 -13 -38 0 -38 22 0 14 -83 123 -112 148 -14 12
-18 21 -11 28 7 7 27 -12 63 -60 28 -39 58 -71 66 -71 8 0 14 2 14 5 0 4 -31
42 -56 69 -5 6 -13 18 -17 26 -4 8 -14 26 -23 40 -9 14 7 0 35 -30 29 -30 59
-68 67 -83 18 -33 25 -30 30 13 3 25 0 30 -17 30 -17 0 -19 3 -10 14 9 11 8
15 -4 20 -9 3 -13 2 -10 -4 3 -6 2 -10 -3 -10 -6 0 -26 21 -44 48 -19 26 -52
68 -74 93 -21 25 -53 64 -71 85 -17 22 -64 72 -103 113 -56 59 -68 76 -59 88
25 29 -2 24 -30 -6 -32 -34 -42 -37 -74 -19 -20 10 -21 10 -8 -5 15 -19 43
-22 70 -7 15 8 30 -3 88 -63 38 -40 78 -87 88 -104 11 -18 25 -33 32 -33 16 0
17 -16 3 -25 -6 -4 -8 -15 -5 -26 9 -28 -10 -23 -30 9 -50 79 -103 102 -149
67 -11 -8 -30 -15 -42 -15 -12 0 -27 -7 -34 -15 -8 -10 -9 -15 -2 -15 6 0 9
-7 5 -16 -4 -12 -8 -13 -13 -3 -5 7 -8 3 -8 -12 1 -82 -31 -179 -59 -179 -12
0 -13 -3 -3 -15 9 -11 8 -19 -4 -37 -9 -13 -20 -22 -24 -21 -4 2 -7 -5 -7 -15
-1 -26 -14 -42 -36 -42 -22 0 -25 -15 -5 -27 12 -7 12 -11 0 -33 -14 -24 -15
-24 -11 -3 3 13 2 25 -3 28 -4 3 -7 -14 -6 -36 1 -41 0 -42 -45 -56 -27 -9
-52 -24 -58 -37 -11 -21 -11 -21 -5 1 8 34 -2 43 -38 32 -21 -5 -36 -5 -42 1
-20 20 -26 10 -10 -15 9 -14 25 -25 35 -25 11 0 19 -4 19 -9 0 -15 -18 -22
-25 -11 -5 8 -11 7 -21 -1 -25 -21 -15 -29 31 -24 39 3 43 2 31 -11 -8 -8 -19
-14 -25 -14 -6 0 -11 -6 -11 -12 0 -8 -7 -5 -15 6 -13 17 -15 18 -15 3 0 -9
-8 -17 -17 -17 -14 0 -15 -2 -5 -9 7 -4 12 -14 10 -22 -2 -10 6 -14 30 -13 17
0 32 -2 32 -7 0 -11 -46 -20 -67 -12 -16 6 -16 5 -4 -10 12 -15 11 -17 -8 -17
-18 0 -21 5 -17 35 4 30 1 35 -15 35 -11 0 -22 6 -25 14 -5 12 -8 12 -23 -2
-10 -9 -15 -21 -12 -27 3 -5 7 -19 8 -29 4 -25 9 -30 23 -21 9 6 9 10 -1 16
-10 6 -11 11 -3 19 17 17 34 -10 23 -38 -8 -20 -14 -23 -39 -17 -19 4 -30 3
-30 -4 0 -7 -11 -9 -27 -5 -22 4 -25 3 -13 -5 8 -6 27 -9 41 -6 16 4 30 0 38
-9 18 -22 4 -40 -16 -20 -13 12 -18 13 -24 3 -4 -7 -5 -17 -3 -21 3 -4 -2 -5
-10 -2 -9 3 -16 10 -16 15 0 5 -11 16 -24 25 -19 12 -29 13 -43 5 -17 -10 -16
-10 3 -11 21 0 51 -26 42 -36 -3 -2 -19 3 -35 12 -27 16 -33 16 -76 1 -45 -15
-80 -13 -104 6 -7 5 -22 7 -32 4 -11 -3 -22 1 -25 9 -3 8 0 11 8 8 18 -7 31
15 19 27 -6 6 -21 11 -34 12 -13 0 -27 5 -30 10 -4 5 -15 3 -27 -4 -17 -10
-23 -10 -36 0 -13 11 -16 11 -16 -3 0 -9 3 -16 8 -17 56 -4 76 -9 85 -18 8 -8
-2 -9 -38 -4 -28 3 -60 9 -71 12 l-22 6 25 53 c25 56 38 64 48 32 4 -13 15
-20 32 -20 18 0 24 4 19 15 -4 11 1 15 17 15 22 1 22 1 2 15 -11 8 -25 19 -32
25 -7 5 -16 10 -22 10 -11 0 -2 38 11 46 5 3 18 -2 29 -12 10 -9 19 -14 19 -9
0 4 -10 16 -22 26 -17 16 -19 23 -11 42 6 12 17 38 24 57 6 19 32 53 56 76 51
48 57 67 9 31 -18 -15 -36 -24 -39 -20 -3 3 -29 -18 -58 -46 -56 -55 -55 -55
-111 -42 -22 5 -36 5 -32 0 10 -17 -13 -9 -31 11 -24 27 -17 33 117 114 136
81 154 94 145 102 -3 4 -38 -13 -78 -37 -39 -24 -99 -61 -132 -82 -34 -20 -70
-35 -80 -33 -15 4 -16 2 -6 -10 10 -12 5 -14 -31 -14 -39 0 -100 25 -100 42 0
4 71 42 158 84 86 42 151 78 144 81 -7 3 -43 -10 -80 -28 -247 -119 -271 -126
-310 -84 l-23 24 68 31 c37 17 91 41 118 52 28 12 59 28 70 36 18 13 17 13
-15 7 -19 -4 -39 -11 -45 -15 -5 -4 -53 -24 -105 -46 -52 -21 -96 -42 -98 -46
-2 -4 -24 -8 -48 -8 -39 0 -46 3 -54 26 -12 32 -12 34 0 34 10 0 210 97 219
106 2 2 2 6 -1 9 -3 3 -38 -10 -78 -29 -39 -19 -81 -38 -93 -42 -12 -3 -42
-15 -66 -26 -82 -37 -171 -29 -171 14 0 15 50 38 83 38 9 0 69 26 172 75 39
18 80 33 92 33 18 1 183 98 183 108 0 13 -34 -2 -93 -41 -80 -52 -126 -59
-164 -23 -23 21 -24 21 -41 4 -14 -15 -14 -18 -2 -14 9 3 26 -3 39 -13 l23
-19 -28 -10 c-15 -6 -57 -24 -93 -39 -36 -16 -90 -37 -118 -47 -29 -10 -53
-21 -53 -25 0 -10 -90 -10 -110 1 -41 22 -24 45 53 69 103 32 206 71 212 80 8
13 -164 -35 -233 -65 -18 -8 -42 -14 -53 -14 -11 0 -31 -7 -44 -16 -25 -16
-25 -16 -24 17 2 69 11 82 64 94 28 7 78 24 113 39 l62 26 48 -21 c94 -43 93
-43 214 19 60 31 103 58 95 60 -8 2 -54 -17 -101 -42 -48 -26 -100 -46 -116
-46 -33 0 -80 19 -80 32 0 17 -78 7 -165 -21 -49 -17 -91 -28 -94 -26 -2 3 3
22 10 42 10 26 22 39 37 41 23 4 31 22 10 22 -9 1 -7 5 3 13 9 7 18 21 20 32
3 15 16 22 49 27 272 42 252 41 308 19 39 -15 68 -20 115 -17 122 7 203 -20
123 -42 -37 -11 -101 -1 -119 17 -13 13 -27 14 -27 4 0 -15 70 -53 95 -53 14
0 42 7 61 15 20 8 40 12 46 9 5 -3 33 -6 61 -6 39 1 57 -4 73 -19 14 -14 41
-22 80 -26 36 -3 73 -14 94 -28 19 -12 45 -25 58 -29 35 -11 26 10 -10 25 -18
7 -44 20 -58 29 -14 10 -47 20 -75 24 -30 4 -58 14 -70 27 l-20 20 30 -7 c17
-4 38 -11 47 -15 9 -5 26 -9 38 -9 11 0 46 -11 78 -24 62 -25 142 -41 142 -28
0 10 -27 24 -80 42 -19 7 -48 18 -65 26 -28 12 -119 30 -285 55 -36 5 -92 10
-125 9 -113 0 -220 15 -210 30 6 9 -86 7 -135 -3 -54 -12 -175 -25 -180 -20
-3 3 5 12 18 20 23 16 31 53 11 53 -7 0 -26 -15 -43 -34z m709 -84 l40 -10
-51 -1 c-32 -1 -57 5 -70 15 -18 14 -18 15 11 10 17 -3 48 -9 70 -14z m-1007
-227 c5 -5 -10 -55 -17 -55 -12 0 -50 57 -43 64 6 6 52 -1 60 -9z m2282 -41
c0 -3 -5 -14 -10 -25 -6 -10 -11 -83 -11 -164 0 -142 0 -145 -19 -132 -11 6
-20 19 -20 29 0 9 -6 19 -12 21 -10 4 -10 8 1 15 12 8 12 13 2 25 -8 11 -9 17
-1 22 6 4 9 14 6 23 -2 10 -7 53 -10 97 -6 77 -6 79 10 51 12 -21 14 -44 11
-87 -3 -33 -2 -59 3 -59 14 0 19 30 18 101 0 37 2 71 6 78 7 11 26 15 26 5z
m25 -34 c-3 -5 -11 -10 -16 -10 -6 0 -7 5 -4 10 3 6 11 10 16 10 6 0 7 -4 4
-10z m-1635 -225 c7 -8 23 -15 35 -15 14 0 33 -13 49 -35 15 -19 34 -35 42
-35 8 0 44 -46 80 -102 36 -57 75 -116 86 -131 11 -16 17 -35 14 -44 -4 -9 -1
-22 6 -30 10 -12 6 -14 -27 -11 -33 3 -44 10 -73 51 -29 40 -33 51 -21 59 11
8 10 9 -3 4 -12 -3 -22 2 -29 17 -7 12 -52 82 -100 155 -49 72 -85 132 -80
132 5 0 14 -7 21 -15z m220 -96 c0 -22 54 -59 87 -59 10 0 31 -18 46 -41 22
-31 26 -43 17 -53 -12 -16 -7 -20 33 -30 15 -3 27 -11 27 -16 0 -13 -37 -13
-44 -1 -9 13 -44 2 -51 -17 -4 -11 -27 17 -77 94 -39 60 -75 111 -80 112 -18
8 -7 22 17 22 14 0 25 -5 25 -11z m204 -54 c3 -9 -1 -18 -9 -21 -8 -4 -15 -12
-15 -20 0 -21 -18 -17 -25 6 -3 11 -11 20 -16 20 -16 0 -10 18 9 23 34 9 50 7
56 -8z m1155 -28 l-24 -9 28 -10 c29 -10 37 -44 15 -66 -29 -29 -39 -1 -10 31
17 20 16 20 -15 14 -28 -6 -33 -4 -33 13 0 21 38 52 53 43 6 -3 0 -11 -14 -16z
m-483 -16 c-4 -6 -14 -7 -23 -4 -15 6 -14 7 3 13 22 9 29 6 20 -9z m550 -47
c1 -25 -1 -43 -4 -39 -8 8 -12 85 -4 85 4 0 8 -21 8 -46z m-571 26 c3 -5 2
-10 -4 -10 -5 0 -13 5 -16 10 -3 6 -2 10 4 10 5 0 13 -4 16 -10z m465 -116 c0
-12 -46 -43 -63 -44 -10 0 -16 -4 -12 -9 8 -15 -13 -24 -41 -17 -32 8 -31 30
1 24 17 -4 25 -1 25 8 0 8 10 14 24 14 13 0 29 7 36 15 12 15 30 20 30 9z
m-646 -95 c-4 -8 1 -9 17 -5 20 6 21 5 6 -4 -19 -12 -41 -4 -32 11 4 5 8 9 11
9 3 0 2 -5 -2 -11z m-1034 -41 c0 -6 -14 -8 -34 -4 -21 4 -43 1 -61 -8 -15 -8
-35 -12 -44 -8 -12 4 -8 8 14 12 17 4 39 11 48 16 21 12 77 6 77 -8z m197 -14
c-3 -3 -12 -4 -19 -1 -8 3 -5 6 6 6 11 1 17 -2 13 -5z m61 -11 c-10 -2 -26 -2
-35 0 -10 3 -2 5 17 5 19 0 27 -2 18 -5z m-273 -13 c3 -5 15 -10 26 -10 10 0
19 -4 19 -10 0 -8 22 -44 96 -154 33 -49 74 -119 80 -138 8 -24 14 -23 52 9
24 19 29 29 20 34 -7 5 -19 2 -28 -6 -15 -13 -23 -5 -76 77 -32 51 -61 97 -64
102 -11 23 -45 72 -60 84 -13 11 -4 12 50 8 36 -4 66 -10 68 -14 1 -5 32 -53
68 -107 45 -67 62 -100 54 -105 -9 -6 -9 -9 1 -15 8 -5 20 2 35 20 14 17 26
25 34 20 10 -6 9 -11 -5 -22 -14 -9 -15 -13 -4 -13 9 -1 4 -10 -13 -25 -16
-13 -28 -27 -28 -31 0 -14 -43 -54 -57 -54 -8 0 -12 -4 -8 -9 3 -5 1 -12 -5
-16 -6 -3 -22 7 -36 24 -27 32 -58 42 -48 16 4 -8 10 -12 15 -9 5 3 6 -2 2
-11 -4 -12 -28 17 -85 104 -69 106 -77 124 -68 143 10 20 9 21 -2 6 -13 -15
-16 -13 -38 20 -13 21 -33 49 -43 65 l-18 27 30 0 c16 0 33 -4 36 -10z m-64
-41 c39 -58 108 -167 123 -194 9 -16 23 -41 32 -55 15 -23 14 -22 -10 3 -36
39 -33 26 9 -36 19 -28 35 -55 35 -60 0 -5 7 -15 16 -24 14 -14 18 -13 48 16
28 27 34 30 40 16 9 -24 7 -35 -5 -35 -5 0 -7 6 -3 13 7 12 -35 -20 -47 -36
-7 -10 -59 9 -59 21 0 5 -12 21 -26 36 -15 14 -23 26 -19 26 5 0 0 9 -10 20
-22 25 -37 26 -28 3 12 -30 63 -101 75 -105 9 -3 9 -6 0 -12 -8 -5 -55 58
-141 191 -71 109 -134 203 -140 210 -15 17 -14 21 7 26 41 10 87 -1 103 -24z
m356 14 c52 -29 96 -133 57 -133 -8 0 -12 5 -9 10 3 6 -1 13 -9 16 -9 3 -14
10 -11 14 3 4 -4 10 -15 13 -16 4 -17 2 -7 -14 6 -10 17 -19 24 -19 7 0 10 -6
7 -14 -3 -8 0 -17 5 -21 6 -3 8 -11 5 -17 -6 -10 -74 86 -74 104 0 4 11 8 25
8 14 0 25 4 25 9 0 6 -12 6 -32 0 -41 -11 -38 -12 -38 5 0 8 6 16 13 19 6 2 3
3 -8 1 -12 -2 -26 5 -33 16 -11 18 -9 20 17 20 16 0 42 -8 58 -17z m158 -3 c7
-12 -2 -12 -30 0 -19 8 -19 9 2 9 12 1 25 -3 28 -9z m-55 -21 c0 -11 -21 -12
-45 -3 -12 5 -13 9 -5 14 15 9 50 1 50 -11z m-555 -56 c24 -37 41 -70 36 -73
-5 -3 -2 -14 6 -25 16 -20 16 -20 9 0 l-6 20 16 -20 c8 -11 20 -29 25 -40 10
-20 10 -20 -5 -1 -9 11 -16 16 -16 12 0 -11 40 -76 46 -76 3 0 2 5 -1 10 -15
24 4 7 21 -17 17 -27 17 -28 -1 -13 -15 12 -14 7 6 -28 14 -25 29 -40 37 -37
7 3 10 0 7 -5 -4 -6 8 -33 25 -61 18 -27 29 -53 26 -57 -9 -8 -76 65 -76 83 0
8 -9 17 -21 20 -13 4 -18 12 -15 21 4 10 2 12 -6 8 -8 -5 -9 -2 -5 9 4 11 1
17 -7 17 -16 0 -29 27 -19 43 4 6 0 8 -9 5 -16 -7 -42 27 -33 42 4 6 2 10 -4
10 -5 0 -26 25 -46 55 -48 72 -66 83 -22 13 45 -70 61 -102 49 -94 -5 3 -40
54 -78 113 -38 60 -72 110 -76 111 -24 10 -2 22 42 22 l50 0 45 -67z m-130 -8
c18 -27 54 -84 80 -125 26 -41 60 -93 75 -115 30 -45 53 -85 47 -85 -2 0 -44
61 -92 135 -81 123 -105 152 -105 125 0 -5 4 -10 10 -10 5 0 28 -33 51 -72 24
-40 73 -119 111 -175 66 -99 77 -123 59 -123 -10 0 -81 105 -81 120 0 5 -4 10
-8 10 -5 0 -14 10 -21 23 -6 12 -19 34 -29 48 -9 15 -26 41 -37 58 -10 17 -23
31 -27 31 -20 0 -15 -24 15 -67 36 -50 67 -105 50 -88 -6 6 -44 60 -86 121
-63 93 -117 201 -117 236 0 4 16 7 36 5 31 -2 41 -9 69 -52z m769 40 c24 -18
32 -55 12 -55 -7 0 -19 -7 -26 -15 -7 -8 -22 -15 -33 -15 -11 0 -26 -8 -33
-17 -12 -16 -13 -16 -14 -2 0 9 13 22 29 28 15 7 34 23 41 36 7 14 18 22 23
18 6 -3 7 -1 3 5 -10 16 -66 -13 -66 -33 0 -8 -5 -15 -11 -15 -6 0 -8 9 -4 23
4 12 9 30 11 40 6 21 42 22 68 2z m193 -58 c71 -19 89 -29 133 -70 56 -54 70
-83 16 -33 -82 75 -98 86 -124 86 -15 0 -52 7 -82 15 -30 8 -56 15 -57 15 -2
0 -3 -12 -3 -26 0 -14 -4 -23 -10 -19 -6 3 -6 15 0 29 5 13 6 27 2 31 -4 4 4
5 18 1 14 -4 62 -17 107 -29z m50 -59 c-3 -8 -6 -5 -6 6 -1 11 2 17 5 13 3 -3
4 -12 1 -19z m-137 -13 c0 -7 -7 -15 -15 -19 -15 -5 -22 24 -9 37 9 9 24 -2
24 -18z m1325 3 c-7 -23 -35 -51 -43 -44 -6 7 31 66 41 66 5 0 5 -10 2 -22z
m-1285 2 c0 -5 -4 -10 -10 -10 -5 0 -10 5 -10 10 0 6 5 10 10 10 6 0 10 -4 10
-10z m1470 -60 c-12 -33 -27 -63 -33 -67 -7 -4 -8 1 -3 13 4 10 9 31 11 46 4
29 35 82 43 74 2 -3 -6 -33 -18 -66z m-960 17 c0 -5 -12 -6 -27 -2 -16 3 -52
6 -81 5 -36 -1 -52 2 -47 9 3 6 16 9 28 6 12 -4 38 0 56 8 30 13 36 13 52 -2
11 -8 19 -19 19 -24z m-620 13 c0 -5 -2 -10 -4 -10 -3 0 -8 5 -11 10 -3 6 -1
10 4 10 6 0 11 -4 11 -10z m108 -2 c9 -9 15 -9 24 0 7 7 19 12 28 12 25 -1
-20 -30 -46 -30 -31 0 -55 10 -48 21 7 13 28 11 42 -3z m170 -9 c-7 -5 -9 -9
-5 -9 5 0 1 -7 -8 -16 -9 -9 -19 -13 -23 -9 -4 4 -1 10 6 12 6 3 10 9 6 14 -3
5 0 9 6 9 6 0 8 4 5 10 -3 6 1 7 10 3 13 -5 14 -7 3 -14z m-303 1 c3 -5 1 -10
-4 -10 -6 0 -11 5 -11 10 0 6 2 10 4 10 3 0 8 -4 11 -10z m-75 -25 c0 -3 -11
-18 -25 -33 -14 -15 -25 -32 -25 -39 0 -6 -11 -20 -25 -31 -14 -11 -25 -24
-25 -28 -1 -21 -35 -53 -48 -45 -18 11 18 68 62 96 17 11 35 29 41 40 17 34
26 45 36 45 5 0 9 -2 9 -5z m537 -6 c7 -7 19 -8 30 -4 25 11 103 14 103 5 0
-4 -12 -11 -26 -14 -15 -4 -24 -10 -21 -13 3 -3 0 -12 -8 -19 -16 -16 -29 -19
-20 -4 3 6 1 10 -4 10 -17 0 -13 -18 6 -29 10 -5 15 -12 11 -16 -6 -7 -111 65
-123 85 -9 14 38 13 52 -1z m-429 -52 c14 -15 14 -19 1 -30 -8 -7 -11 -8 -6
-3 11 16 8 29 -6 23 -9 -3 -13 6 -14 32 -1 20 1 27 4 16 3 -11 12 -28 21 -38z
m219 47 c-3 -3 -12 -4 -19 -1 -8 3 -5 6 6 6 11 1 17 -2 13 -5z m75 -26 c-6 -6
-8 -16 -6 -22 3 -7 0 -26 -6 -41 -9 -23 -13 -26 -20 -15 -8 13 -13 13 -31 2
-11 -7 -23 -11 -25 -9 -8 7 80 106 89 100 5 -3 4 -10 -1 -15z m113 -40 c5 -5
5 -8 -1 -8 -5 0 -21 11 -36 25 -33 30 -42 32 -28 5 9 -16 8 -20 -5 -20 -10 0
-14 7 -11 23 3 12 5 26 5 31 1 6 16 -3 34 -20 17 -16 36 -32 42 -36z m-360 42
c-3 -5 -10 -10 -16 -10 -5 0 -9 5 -9 10 0 6 7 10 16 10 8 0 12 -4 9 -10z m149
-6 c8 -22 9 -20 -21 -49 -27 -25 -50 -34 -38 -16 3 5 1 12 -5 16 -18 11 -11
30 18 47 35 21 39 21 46 2z m-830 -20 c3 -8 2 -12 -4 -9 -6 3 -10 10 -10 16 0
14 7 11 14 -7z m709 1 c-12 -8 -24 -29 -28 -45 -4 -17 -11 -30 -16 -30 -11 0
-11 3 0 32 5 13 12 31 15 41 3 9 15 17 28 17 l22 0 -21 -15z m637 -11 l25 -15
-30 6 c-16 4 -34 11 -39 16 -16 15 16 10 44 -7z m60 -4 c13 -8 13 -10 -2 -10
-9 0 -20 5 -23 10 -8 13 5 13 25 0z m57 4 c-3 -3 -12 -4 -19 -1 -8 3 -5 6 6 6
11 1 17 -2 13 -5z m-1206 -36 c8 -15 8 -18 0 -14 -6 4 -16 16 -22 28 -8 15 -8
18 0 14 6 -4 16 -16 22 -28z m299 26 c0 -3 -13 -19 -30 -37 -23 -25 -32 -29
-41 -20 -10 10 -9 17 5 32 10 11 24 17 32 14 8 -3 14 0 14 6 0 6 5 11 10 11 6
0 10 -2 10 -6z m1595 -24 c-10 -11 -20 -18 -23 -15 -3 3 3 14 13 25 10 11 20
18 23 15 3 -3 -3 -14 -13 -25z m-2116 -14 c-3 -3 -11 5 -18 17 -13 21 -12 21
5 5 10 -10 16 -20 13 -22z m1006 -58 c-2 -49 -8 -75 -21 -89 -25 -28 -35 -24
-32 14 2 38 -7 57 -28 57 -8 0 -12 -5 -9 -10 8 -12 -5 -103 -13 -95 -4 3 -7
33 -8 66 -1 57 0 60 20 54 28 -8 85 -15 67 -8 -11 5 -11 7 0 14 10 7 5 9 -16
7 -24 -2 -29 1 -27 15 2 9 -2 17 -8 17 -5 0 -10 -8 -10 -17 0 -14 -2 -15 -9
-4 -12 18 -2 51 15 51 8 0 14 -4 14 -10 0 -14 37 -13 46 2 4 7 3 8 -4 4 -7 -4
-12 -1 -12 8 0 13 3 14 19 4 16 -10 18 -22 16 -80z m181 74 c-5 -15 -1 -19 24
-19 20 0 36 -7 46 -21 8 -12 19 -22 25 -22 15 0 10 27 -6 34 -8 3 -15 12 -15
21 0 8 -8 15 -17 16 -10 0 -13 3 -6 5 16 7 92 -33 126 -67 24 -22 27 -31 18
-46 -6 -10 -11 -12 -11 -5 0 7 -6 12 -12 10 -7 -1 -24 4 -38 11 -17 10 -25 11
-28 2 -6 -17 -20 -13 -27 8 -4 14 -22 23 -60 32 -30 7 -55 14 -55 17 0 7 32
42 37 42 2 0 2 -8 -1 -18z m-116 -13 c0 -6 -4 -7 -10 -4 -5 3 -10 11 -10 16 0
6 5 7 10 4 6 -3 10 -11 10 -16z m640 17 c0 -3 -4 -8 -10 -11 -5 -3 -10 -1 -10
4 0 6 5 11 10 11 6 0 10 -2 10 -4z m-590 -21 c11 -13 10 -14 -4 -9 -9 3 -16
10 -16 15 0 13 6 11 20 -6z m-430 -9 c0 -3 -7 -12 -16 -20 -17 -18 -44 -21
-44 -6 0 5 6 7 13 4 8 -3 20 2 27 11 12 15 20 19 20 11z m-246 -23 c4 -9 2
-21 -4 -27 -7 -7 -10 -5 -10 7 0 9 -5 17 -11 17 -5 0 -7 5 -4 10 9 15 22 12
29 -7z m146 7 c0 -5 -2 -10 -4 -10 -3 0 -8 5 -11 10 -3 6 -1 10 4 10 6 0 11
-4 11 -10z m500 0 c0 -5 -2 -10 -4 -10 -3 0 -8 5 -11 10 -3 6 -1 10 4 10 6 0
11 -4 11 -10z m-330 -10 c0 -5 -6 -7 -14 -4 -7 3 -20 -2 -29 -10 -22 -22 -30
-20 -15 4 13 20 58 28 58 10z m336 -72 c51 -55 107 -128 98 -128 -5 0 -19 15
-32 33 -42 61 -112 131 -112 113 0 -10 -5 -16 -12 -14 -18 6 -22 28 -5 28 10
0 13 9 11 28 l-4 27 13 -27 c7 -16 27 -43 43 -60z m554 57 c0 -5 -4 -10 -10
-9 -5 1 -17 2 -25 3 -8 0 -15 7 -15 15 0 17 49 8 50 -9z m-1732 -26 c19 -30 8
-34 -12 -4 -9 14 -13 25 -9 25 5 0 14 -9 21 -21z m133 4 c13 -16 12 -17 -3 -4
-10 7 -18 15 -18 17 0 8 8 3 21 -13z m1133 -62 c-6 -7 -65 41 -76 62 -7 15 4
9 34 -18 24 -22 43 -42 42 -44z m-944 53 c0 -8 -5 -12 -10 -9 -6 4 -8 11 -5
16 9 14 15 11 15 -7z m395 6 c3 -5 -1 -10 -9 -10 -8 0 -18 5 -21 10 -3 6 1 10
9 10 8 0 18 -4 21 -10z m229 -60 c-1 -19 -3 -41 -3 -48 -1 -7 -6 -10 -11 -7
-6 4 -8 10 -5 15 3 4 -2 11 -11 14 -8 3 -12 10 -9 16 4 6 11 8 16 5 5 -4 9 13
10 37 0 31 2 37 8 23 4 -11 6 -36 5 -55z m746 62 c8 -4 16 -13 18 -20 2 -9 -5
-9 -28 3 -16 9 -30 18 -30 20 0 7 22 5 40 -3z m450 4 c0 -4 -59 -36 -67 -36
-13 0 1 22 20 30 24 10 47 12 47 6z m-1678 -28 c-7 -7 -12 -8 -12 -2 0 6 3 14
7 17 3 4 9 5 12 2 2 -3 -1 -11 -7 -17z m-337 -40 c16 -25 21 -37 11 -29 -16
14 -51 71 -43 71 3 0 17 -19 32 -42z m275 39 c0 -2 -13 -16 -29 -31 l-28 -27
4 25 c5 22 15 30 46 35 4 0 7 0 7 -2z m480 -34 c0 -21 4 -65 10 -97 11 -71 6
-85 -10 -26 -16 60 -22 160 -10 160 5 0 10 -17 10 -37z m-592 9 c3 -10 -10
-11 -46 -3 -2 1 0 6 3 12 9 13 37 8 43 -9z m342 9 c0 -5 -6 -14 -14 -21 -8 -6
-17 -21 -19 -33 -3 -16 -5 -14 -6 9 0 16 4 35 11 42 14 14 28 16 28 3z m-571
-63 c20 -31 25 -46 14 -36 -21 19 -72 105 -56 95 5 -3 24 -30 42 -59z m1971
48 c-8 -8 -26 -17 -40 -20 l-25 -7 24 20 c27 25 66 31 41 7z m-1497 -26 c-3
-11 -13 -20 -22 -21 -14 0 -14 -1 1 -7 14 -6 11 -13 -20 -47 -55 -60 -83 -78
-49 -33 15 20 27 40 27 44 0 4 12 27 26 51 25 43 47 51 37 13z m1164 24 c-3
-3 -12 -4 -19 -1 -8 3 -5 6 6 6 11 1 17 -2 13 -5z m-1233 -19 c-4 -8 -12 -15
-20 -15 -20 0 -17 18 4 23 9 3 18 5 19 6 1 0 0 -6 -3 -14z m-174 -14 c-11 -21
-30 -37 -30 -25 0 8 30 44 37 44 2 0 -1 -9 -7 -19z m95 9 c-3 -5 -12 -10 -18
-10 -7 0 -6 4 3 10 19 12 23 12 15 0z m258 -52 c-18 -62 -21 -67 -33 -48 -6 9
-3 18 6 25 9 6 14 15 13 20 -3 10 18 55 26 55 2 0 -3 -24 -12 -52z m183 26 c4
-15 2 -29 -4 -33 -6 -4 -15 -18 -21 -31 l-10 -25 0 26 c-1 39 10 89 20 89 5 0
12 -12 15 -26z m254 22 c0 -3 -4 -8 -10 -11 -5 -3 -10 -1 -10 4 0 6 5 11 10
11 6 0 10 -2 10 -4z m63 -17 c13 -6 32 -25 41 -42 l18 -32 -31 35 c-17 19 -31
32 -31 28 0 -15 91 -150 97 -144 4 4 1 12 -5 18 -7 7 -12 17 -12 23 1 5 10 -1
21 -14 15 -18 17 -26 7 -32 -9 -6 -9 -12 3 -26 18 -22 66 -112 52 -98 -13 12
-165 241 -182 273 -13 25 -11 26 22 11z m212 1 c3 -5 -1 -10 -9 -10 -9 0 -16
5 -16 10 0 6 4 10 9 10 6 0 13 -4 16 -10z m-1225 -10 c0 -5 -7 -10 -16 -10 -8
0 -12 5 -9 10 3 6 10 10 16 10 5 0 9 -4 9 -10z m240 6 c0 -3 -4 -8 -10 -11 -5
-3 -10 -1 -10 4 0 6 5 11 10 11 6 0 10 -2 10 -4z m335 -5 c3 -5 1 -12 -5 -16
-5 -3 -10 1 -10 9 0 18 6 21 15 7z m65 -5 c0 -8 -4 -17 -9 -21 -12 -7 -24 12
-16 25 9 15 25 12 25 -4z m557 -58 c-4 -9 -6 -7 -6 3 -1 9 -10 24 -21 34 -11
10 -20 22 -20 27 0 5 12 -4 26 -21 14 -17 23 -37 21 -43z m357 37 c3 -8 16
-15 30 -15 14 0 28 -4 31 -10 10 -16 -41 -12 -55 5 -8 10 -23 13 -41 10 -35
-6 -38 2 -6 15 31 12 34 12 41 -5z m-1543 -8 c-1 -12 -15 -9 -19 4 -3 6 1 10
8 8 6 -3 11 -8 11 -12z m603 -3 c9 -24 7 -36 -4 -29 -7 4 -9 -2 -5 -17 5 -19
2 -24 -15 -25 -15 -1 -20 3 -16 15 3 9 8 29 12 45 7 30 19 35 28 11z m198 -16
c-8 -8 -9 -4 -5 13 4 13 8 18 11 10 2 -7 -1 -18 -6 -23z m-382 12 c0 -5 -8
-14 -17 -19 -10 -6 -14 -11 -9 -11 5 0 3 -7 -4 -15 -7 -8 -9 -15 -5 -15 4 0 2
-7 -5 -15 -15 -18 -29 -20 -26 -2 7 35 37 87 50 87 9 0 16 -4 16 -10z m664
-180 c26 -41 37 -64 26 -50 -50 59 -70 85 -70 92 0 8 -22 36 -47 63 -7 8 -13
23 -13 34 0 11 -4 23 -10 26 -5 3 -10 12 -10 18 0 12 20 -18 124 -183z m376
180 c0 -5 -16 -10 -36 -10 -21 0 -33 4 -29 10 3 6 19 10 36 10 16 0 29 -4 29
-10z m-922 -30 c-15 -24 -22 -19 -13 9 3 12 11 19 16 16 5 -4 3 -14 -3 -25z
m993 16 c12 6 12 5 1 -8 -9 -11 -10 -18 -2 -23 12 -7 14 -25 2 -25 -12 0 -42
56 -35 64 4 3 10 1 14 -5 4 -7 12 -8 20 -3z m-201 -5 c0 -12 -39 -25 -48 -16
-7 7 17 25 36 25 6 0 12 -4 12 -9z m-369 -14 c-1 -12 -15 -9 -19 4 -3 6 1 10
8 8 6 -3 11 -8 11 -12z m209 -31 c0 -6 -7 -1 -15 10 -8 10 -15 23 -15 28 0 6
7 1 15 -10 8 -10 15 -23 15 -28z m217 38 c-3 -3 -12 -4 -19 -1 -8 3 -5 6 6 6
11 1 17 -2 13 -5z m95 -27 c10 -20 10 -21 -5 -8 -23 18 -21 9 5 -35 29 -50 4
-34 -28 18 -20 32 -23 42 -13 49 16 10 26 4 41 -24z m239 18 c26 -3 55 -12 65
-20 17 -12 14 -13 -21 -4 -22 6 -59 13 -83 16 -23 3 -45 10 -48 15 -3 5 5 7
18 4 12 -3 44 -8 69 -11z m-1601 -15 c0 -5 -5 -10 -11 -10 -5 0 -7 5 -4 10 3
6 8 10 11 10 2 0 4 -4 4 -10z m1113 3 c-7 -2 -19 -2 -25 0 -7 3 -2 5 12 5 14
0 19 -2 13 -5z m165 1 c-3 -3 5 -17 18 -31 25 -27 32 -53 13 -53 -5 0 -8 4 -5
9 3 5 -6 21 -19 35 -22 24 -26 46 -8 46 4 0 4 -3 1 -6z m-670 -31 c5 -16 13
-37 17 -48 7 -16 6 -18 -6 -7 -7 6 -19 12 -27 12 -9 0 -3 -13 16 -37 16 -21
33 -49 37 -63 3 -14 -14 6 -40 43 -42 62 -49 87 -24 87 6 0 7 -4 4 -10 -3 -5
-1 -10 5 -10 7 0 9 7 6 15 -3 8 -9 22 -12 30 -3 8 -2 15 4 15 6 0 15 -12 20
-27z m-207 -16 c-8 -8 -11 -7 -11 4 0 20 13 34 18 19 3 -7 -1 -17 -7 -23z
m143 8 c-16 -25 -59 -43 -71 -31 -4 3 2 6 13 6 10 0 30 12 43 25 30 32 36 32
15 0z m702 -17 c7 1 18 -6 24 -17 9 -17 8 -20 -6 -14 -13 5 -15 1 -10 -18 6
-23 5 -23 -7 1 -6 14 -22 37 -34 50 -13 13 -23 29 -23 34 1 6 10 0 22 -14 11
-14 26 -24 34 -22z m-944 10 c-7 -7 -12 -8 -12 -2 0 14 12 26 19 19 2 -3 -1
-11 -7 -17z m549 0 c11 -21 11 -22 -4 -9 -10 7 -17 17 -17 22 0 15 9 10 21
-13z m289 11 c0 -12 -38 -21 -60 -14 -33 11 -23 22 20 22 22 0 40 -3 40 -8z
m-958 -15 c-13 -9 -26 -13 -30 -9 -8 8 17 25 38 25 9 0 6 -6 -8 -16z m508 -8
c0 -20 -11 -26 -31 -15 -28 15 -24 37 6 31 14 -2 25 -10 25 -16z m96 2 c-2
-15 -11 -24 -27 -26 l-24 -4 25 25 c32 31 31 31 26 5z m605 5 c13 -16 12 -17
-3 -4 -17 13 -22 21 -14 21 2 0 10 -8 17 -17z m-1291 -24 c15 -28 12 -34 -9
-15 -13 11 -27 15 -40 11 -25 -8 -28 10 -4 23 21 12 41 5 53 -19z m356 -8 c14
-6 31 -11 39 -11 20 0 29 -20 16 -33 -8 -8 -11 -8 -11 1 0 6 -6 9 -14 6 -18
-7 -78 54 -69 69 5 8 9 7 11 -4 1 -9 14 -21 28 -28z m617 -1 l21 -35 -32 30
c-32 30 -42 50 -21 43 5 -2 20 -19 32 -38z m118 8 c8 -15 8 -18 0 -14 -6 4
-16 16 -22 28 -8 15 -8 18 0 14 6 -4 16 -16 22 -28z m-311 -30 c0 6 -4 12 -10
12 -5 0 -10 5 -10 10 0 6 4 10 9 10 14 0 22 -30 13 -47 -7 -11 -14 -7 -35 21
-36 47 -34 60 3 16 16 -19 30 -29 30 -22z m-501 12 c11 0 23 -4 26 -10 4 -6
-10 -10 -33 -10 -32 0 -43 5 -56 26 l-17 25 30 -15 c16 -9 39 -16 50 -16z
m764 17 c3 -8 -3 -13 -14 -13 -19 0 -24 8 -12 19 10 11 20 8 26 -6z m328 -19
c8 -15 8 -18 0 -14 -6 4 -16 16 -22 28 -8 15 -8 18 0 14 6 -4 16 -16 22 -28z
m-450 0 c11 -21 11 -22 -4 -9 -10 7 -17 17 -17 22 0 15 9 10 21 -13z m-752
-28 c23 -45 16 -53 -13 -15 -12 16 -29 25 -47 25 -53 0 -32 22 27 29 7 0 21
-17 33 -39z m467 25 c23 -18 64 -19 64 -2 0 7 7 4 15 -7 18 -24 20 -46 3 -25
-11 13 -19 13 -46 4 -18 -6 -29 -15 -25 -20 5 -4 2 -5 -5 -1 -7 4 -10 11 -8
15 3 4 -4 14 -15 21 -19 15 -25 30 -11 30 5 0 17 -7 28 -15z m-442 -11 c3 -8
2 -12 -4 -9 -6 3 -10 10 -10 16 0 14 7 11 14 -7z m264 -4 c7 -11 11 -20 9 -20
-2 0 -12 9 -22 20 -10 11 -14 20 -9 20 5 0 15 -9 22 -20z m-394 -6 c5 -14 4
-15 -9 -4 -17 14 -19 20 -6 20 5 0 12 -7 15 -16z m526 -4 c6 -11 9 -20 7 -20
-2 0 -12 9 -22 20 -10 11 -13 20 -7 20 6 0 16 -9 22 -20z m463 4 c7 1 9 1 5
-1 -5 -3 -3 -14 3 -26 9 -20 9 -20 -10 2 -12 13 -21 28 -20 35 0 8 2 7 5 -1 3
-7 11 -11 17 -9z m-498 -12 c-3 -3 -11 0 -18 7 -9 10 -8 11 6 5 10 -3 15 -9
12 -12z m-414 -34 c15 -28 5 -21 -21 15 -15 20 -17 27 -6 18 9 -8 22 -23 27
-33z m157 22 c7 -11 10 -20 6 -20 -7 0 -34 27 -34 34 0 13 16 5 28 -14z m710
-5 c-3 -3 -9 2 -12 12 -6 14 -5 15 5 6 7 -7 10 -15 7 -18z m262 4 c0 -5 -4 -9
-10 -9 -5 0 -10 7 -10 16 0 8 5 12 10 9 6 -3 10 -10 10 -16z m-1212 -14 c13
-29 5 -33 -14 -7 -15 20 -18 32 -6 32 5 0 14 -11 20 -25z m373 10 c10 -4 19
-13 19 -22 0 -8 8 -27 18 -41 34 -48 35 -58 5 -26 -17 18 -38 34 -47 35 -9 2
-26 18 -37 36 l-20 32 21 -4 c12 -2 30 -7 41 -10z m393 -11 c3 -8 2 -12 -4 -9
-6 3 -10 2 -10 -4 0 -5 5 -13 10 -16 6 -3 10 -12 10 -18 0 -7 -9 -1 -19 12
-14 19 -16 28 -7 37 14 17 13 17 20 -2z m-544 -4 c0 -5 -2 -10 -4 -10 -3 0 -8
5 -11 10 -3 6 -1 10 4 10 6 0 11 -4 11 -10z m688 -15 c-3 -3 -9 2 -12 12 -6
14 -5 15 5 6 7 -7 10 -15 7 -18z m-279 -29 c-2 -2 -13 8 -23 22 l-19 27 24
-22 c12 -12 21 -24 18 -27z m492 -11 l10 -20 -16 20 c-9 11 -21 29 -26 40
l-10 20 16 -20 c9 -11 21 -29 26 -40z m-843 27 c2 -7 -2 -10 -12 -6 -9 3 -16
11 -16 16 0 13 23 5 28 -10z m432 -3 c0 -6 -4 -7 -10 -4 -5 3 -10 11 -10 16 0
6 5 7 10 4 6 -3 10 -11 10 -16z m-675 -19 c14 -15 15 -20 4 -20 -8 0 -20 9
-27 20 -7 11 -8 20 -4 20 5 0 17 -9 27 -20z m174 -14 c-3 -3 -11 5 -18 17 -13
21 -12 21 5 5 10 -10 16 -20 13 -22z m311 3 c0 -6 -4 -7 -10 -4 -5 3 -10 11
-10 16 0 6 5 7 10 4 6 -3 10 -11 10 -16z m-220 1 c0 -5 -2 -10 -4 -10 -3 0 -8
5 -11 10 -3 6 -1 10 4 10 6 0 11 -4 11 -10z m170 0 c0 -5 -2 -10 -4 -10 -3 0
-8 5 -11 10 -3 6 -1 10 4 10 6 0 11 -4 11 -10z m215 -16 c24 -37 13 -40 -14
-4 -12 17 -17 30 -12 30 5 0 16 -12 26 -26z m-120 6 c3 -5 1 -10 -4 -10 -6 0
-11 5 -11 10 0 6 2 10 4 10 3 0 8 -4 11 -10z m250 0 c3 -5 1 -10 -4 -10 -6 0
-11 5 -11 10 0 6 2 10 4 10 3 0 8 -4 11 -10z m76 -32 c17 -24 18 -29 6 -19
-18 14 -42 51 -33 51 3 0 15 -15 27 -32z m-400 5 c13 -16 12 -17 -3 -4 -17 13
-22 21 -14 21 2 0 10 -8 17 -17z m-130 -10 c13 -16 12 -17 -3 -4 -17 13 -22
21 -14 21 2 0 10 -8 17 -17z m57 -19 c-4 -3 -12 5 -18 18 -12 22 -12 22 6 6
10 -10 15 -20 12 -24z m-194 -13 c-7 -7 -34 21 -28 31 3 5 12 1 19 -9 7 -10
12 -20 9 -22z m336 29 c0 -5 -2 -10 -4 -10 -3 0 -8 5 -11 10 -3 6 -1 10 4 10
6 0 11 -4 11 -10z m70 -5 c7 -9 8 -15 2 -15 -5 0 -12 7 -16 15 -3 8 -4 15 -2
15 2 0 9 -7 16 -15z m137 3 c10 -14 24 -48 20 -48 -2 0 -13 14 -25 30 -21 28
-16 45 5 18z m-382 -58 c3 -5 2 -10 -4 -10 -5 0 -13 5 -16 10 -3 6 -2 10 4 10
5 0 13 -4 16 -10z m275 -20 c0 -5 -4 -10 -10 -10 -5 0 -10 5 -10 10 0 6 5 10
10 10 6 0 10 -4 10 -10z"/>
<path d="M1660 2130 c6 -11 13 -20 16 -20 2 0 0 9 -6 20 -6 11 -13 20 -16 20
-2 0 0 -9 6 -20z"/>
<path d="M1466 1805 c4 -8 11 -15 16 -15 6 0 5 6 -2 15 -7 8 -14 15 -16 15 -2
0 -1 -7 2 -15z"/>
<path d="M1428 1783 c7 -3 16 -2 19 1 4 3 -2 6 -13 5 -11 0 -14 -3 -6 -6z"/>
<path d="M1499 1753 c6 -10 20 -29 32 -43 l21 -25 -16 25 c-9 14 -19 33 -23
43 -3 9 -9 17 -15 17 -5 0 -4 -8 1 -17z"/>
<path d="M1375 1680 c33 -40 45 -52 45 -43 -1 11 -21 35 -45 53 l-20 15 20
-25z"/>
<path d="M1495 1670 c3 -5 8 -10 11 -10 2 0 4 5 4 10 0 6 -5 10 -11 10 -5 0
-7 -4 -4 -10z"/>
<path d="M1560 1662 c0 -5 10 -17 21 -28 22 -19 22 -19 10 3 -12 24 -31 39
-31 25z"/>
<path d="M1430 1592 c0 -12 19 -26 26 -19 2 2 -2 10 -11 17 -9 8 -15 8 -15 2z"/>
<path d="M1450 1551 c0 -17 18 -21 24 -6 3 9 0 15 -9 15 -8 0 -15 -4 -15 -9z"/>
<path d="M1250 1745 c17 -25 33 -45 36 -45 3 0 -9 20 -26 45 -17 25 -33 45
-36 45 -3 0 9 -20 26 -45z"/>
<path d="M1290 1683 c0 -6 8 -17 18 -24 16 -13 16 -13 2 6 -8 11 -16 22 -17
24 -2 2 -3 0 -3 -6z"/>
<path d="M1270 1629 c0 -5 5 -7 10 -4 6 3 10 8 10 11 0 2 -4 4 -10 4 -5 0 -10
-5 -10 -11z"/>
<path d="M1330 1616 c0 -2 7 -9 15 -16 13 -11 14 -10 9 4 -5 14 -24 23 -24 12z"/>
<path d="M1293 1589 c9 -5 17 -19 17 -29 0 -14 7 -20 22 -20 21 0 21 1 -7 30
-16 17 -34 30 -39 30 -6 0 -3 -5 7 -11z"/>
<path d="M1150 1691 c0 -5 5 -13 10 -16 6 -3 10 -2 10 4 0 5 -4 13 -10 16 -5
3 -10 2 -10 -4z"/>
<path d="M980 1740 c6 -11 13 -20 16 -20 2 0 0 9 -6 20 -6 11 -13 20 -16 20
-2 0 0 -9 6 -20z"/>
<path d="M1005 1690 c3 -5 8 -10 11 -10 2 0 4 5 4 10 0 6 -5 10 -11 10 -5 0
-7 -4 -4 -10z"/>
<path d="M980 1658 c1 -17 39 -62 46 -55 6 6 -33 67 -42 67 -2 0 -4 -6 -4 -12z"/>
<path d="M1020 1580 c0 -5 5 -10 10 -10 6 0 10 5 10 10 0 6 -4 10 -10 10 -5 0
-10 -4 -10 -10z"/>
<path d="M1991 1511 c-7 -5 -11 -15 -9 -22 3 -10 8 -7 17 9 13 24 12 26 -8 13z"/>
<path d="M1695 1470 c-3 -5 -1 -10 4 -10 6 0 11 5 11 10 0 6 -2 10 -4 10 -3 0
-8 -4 -11 -10z"/>
<path d="M1922 1021 c-10 -6 -10 -10 2 -20 12 -10 15 -9 13 8 -1 12 -1 21 -2
21 0 0 -6 -4 -13 -9z"/>
<path d="M2140 2986 c0 -8 81 -58 86 -53 3 3 -12 15 -33 28 -47 29 -53 32 -53
25z"/>
<path d="M2264 2976 c11 -9 24 -16 30 -16 12 0 7 5 -24 19 -24 11 -24 11 -6
-3z"/>
<path d="M890 2963 c0 -20 85 -73 114 -73 31 1 31 1 -7 15 -22 7 -49 22 -60
33 -29 25 -47 35 -47 25z"/>
<path d="M2137 2939 c7 -7 15 -10 18 -7 3 3 -2 9 -12 12 -14 6 -15 5 -6 -5z"/>
<path d="M2240 2925 c0 -2 18 -14 41 -26 23 -11 38 -16 35 -10 -4 5 -20 17
-38 25 -34 17 -38 19 -38 11z"/>
<path d="M3793 2899 c62 -149 60 -142 41 -156 -10 -7 -29 -13 -43 -13 -19 0
-22 -3 -14 -11 9 -9 20 -9 45 1 18 7 37 16 41 20 10 9 -49 156 -66 167 -6 4
-8 1 -4 -8z"/>
<path d="M2985 2889 c-11 -17 1 -21 15 -4 8 9 8 15 2 15 -6 0 -14 -5 -17 -11z"/>
<path d="M3420 2896 c0 -4 20 -50 44 -100 108 -224 165 -508 147 -739 -6 -79
-3 -89 19 -62 10 12 11 57 7 188 -4 155 -8 185 -40 309 -20 75 -53 174 -74
220 -38 84 -103 200 -103 184z"/>
<path d="M1325 2854 c-43 -21 -78 -33 -92 -29 -12 3 -25 0 -28 -6 -8 -13 -103
-2 -123 14 -7 5 -16 7 -20 3 -24 -24 88 -53 160 -42 43 7 197 76 197 89 1 13
-23 6 -94 -29z"/>
<path d="M765 2870 l-70 -6 70 -2 c39 0 88 3 110 7 l40 9 -40 -1 c-22 0 -71
-3 -110 -7z"/>
<path d="M608 2853 c6 -2 18 -2 25 0 6 3 1 5 -13 5 -14 0 -19 -2 -12 -5z"/>
<path d="M1405 2840 c-3 -5 -2 -10 4 -10 5 0 13 5 16 10 3 6 2 10 -4 10 -5 0
-13 -4 -16 -10z"/>
<path d="M2278 2838 c5 -5 16 -8 23 -6 8 3 3 7 -10 11 -17 4 -21 3 -13 -5z"/>
<path d="M3530 2842 c0 -17 84 -202 92 -202 11 0 11 0 -7 50 -15 42 -15 43 11
67 19 17 33 23 50 19 17 -5 24 -2 24 9 0 8 -9 15 -20 15 -27 0 -77 -26 -82
-42 -5 -15 -38 43 -38 65 0 8 -7 17 -15 21 -8 3 -15 2 -15 -2z"/>
<path d="M3751 2836 c-19 -7 -37 -18 -39 -24 -5 -15 -2 -15 40 3 26 10 38 11
46 3 13 -13 15 -8 6 16 -7 18 -8 19 -53 2z"/>
<path d="M887 2800 c-32 -4 -61 -11 -65 -15 -9 -10 118 4 138 15 18 11 14 11
-73 0z"/>
<path d="M1653 2797 c8 -24 52 -38 104 -33 57 5 111 27 81 34 -9 2 -26 -2 -37
-7 -24 -13 -98 -14 -105 -2 -9 14 -48 21 -43 8z"/>
<path d="M2890 2782 c0 -10 37 -45 60 -57 8 -4 -1 8 -19 28 -37 39 -41 42 -41
29z"/>
<path d="M680 2765 c-59 -17 -33 -17 55 -1 56 11 62 14 30 14 -22 0 -60 -6
-85 -13z"/>
<path d="M1510 2770 c-8 -5 -10 -10 -5 -10 6 0 17 5 25 10 8 5 11 10 5 10 -5
0 -17 -5 -25 -10z"/>
<path d="M3705 2750 c-33 -17 -51 -30 -40 -30 26 0 125 41 125 52 0 14 -24 8
-85 -22z"/>
<path d="M2660 2744 c0 -9 5 -14 12 -12 18 6 21 28 4 28 -9 0 -16 -7 -16 -16z"/>
<path d="M2860 2751 c0 -10 19 -25 25 -20 1 2 -3 10 -11 17 -8 7 -14 8 -14 3z"/>
<path d="M1761 2722 c46 -35 86 -46 119 -32 36 15 60 40 37 40 -8 0 -20 -7
-27 -15 -17 -20 -48 -19 -95 5 -49 25 -65 26 -34 2z"/>
<path d="M1954 2725 c11 -8 24 -15 30 -15 5 0 1 7 -10 15 -10 8 -23 14 -29 14
-5 0 -1 -6 9 -14z"/>
<path d="M2130 2734 c0 -15 32 -35 52 -32 18 3 16 6 -15 20 -21 10 -37 15 -37
12z"/>
<path d="M3150 2715 c0 -20 89 -209 96 -203 4 5 -7 35 -42 113 -7 17 -16 44
-20 60 l-7 30 21 -25 c12 -14 21 -20 22 -14 0 14 -43 54 -58 54 -7 0 -12 -7
-12 -15z"/>
<path d="M2050 2702 c0 -10 62 -44 68 -37 7 6 -27 32 -50 38 -10 3 -18 2 -18
-1z"/>
<path d="M2665 2700 c-3 -5 3 -10 14 -10 11 0 23 5 26 10 3 6 -3 10 -14 10
-11 0 -23 -4 -26 -10z"/>
<path d="M2808 2703 c7 -3 16 -2 19 1 4 3 -2 6 -13 5 -11 0 -14 -3 -6 -6z"/>
<path d="M3085 2690 c-7 -12 2 -30 16 -30 5 0 9 9 9 20 0 21 -15 27 -25 10z"/>
<path d="M888 2673 c6 -2 18 -2 25 0 6 3 1 5 -13 5 -14 0 -19 -2 -12 -5z"/>
<path d="M1770 2670 c-28 -17 -147 -60 -166 -60 -10 0 -32 7 -48 15 -16 9 -32
12 -35 9 -3 -4 0 -9 7 -11 7 -3 19 -12 27 -20 11 -10 30 -14 61 -11 41 3 50 0
82 -30 45 -43 73 -40 173 19 58 35 80 42 113 40 37 -2 105 14 95 23 -2 2 -26
0 -54 -3 -49 -6 -72 -1 -107 27 -9 8 -18 9 -22 4 -3 -5 3 -12 14 -15 33 -8 23
-20 -50 -59 -79 -43 -116 -47 -154 -17 -26 21 -34 39 -16 39 20 0 120 42 120
51 0 11 -20 11 -40 -1z"/>
<path d="M1955 2670 c3 -5 10 -10 16 -10 5 0 9 5 9 10 0 6 -7 10 -16 10 -8 0
-12 -4 -9 -10z"/>
<path d="M3663 2663 c-7 -2 -13 -12 -13 -21 0 -12 3 -13 12 -4 7 7 20 12 29
12 10 0 21 5 24 10 6 10 -30 13 -52 3z"/>
<path d="M2636 2653 c-3 -3 -3 -10 0 -14 7 -12 34 -11 34 0 0 11 -26 22 -34
14z"/>
<path d="M3226 2633 c4 -16 11 -29 16 -31 4 -2 8 -10 8 -18 0 -8 6 -14 13 -14
9 0 8 -3 -2 -9 -11 -7 -7 -21 19 -72 17 -35 36 -68 40 -73 5 -5 6 -14 4 -20
-3 -7 2 -31 11 -55 19 -54 19 -51 -2 -51 -17 -1 -17 -1 0 -11 27 -16 48 7 45
50 -1 20 -13 63 -26 96 -20 51 -40 90 -107 216 -15 28 -26 23 -19 -8z"/>
<path d="M270 2630 c0 -11 2 -20 4 -20 2 0 6 9 9 20 3 11 1 20 -4 20 -5 0 -9
-9 -9 -20z"/>
<path d="M3110 2644 c0 -11 63 -94 68 -89 6 6 -16 53 -37 78 -14 17 -31 23
-31 11z"/>
<path d="M2275 2630 c-3 -5 1 -10 9 -10 9 0 16 5 16 10 0 6 -4 10 -9 10 -6 0
-13 -4 -16 -10z"/>
<path d="M2208 2623 c12 -2 30 -2 40 0 9 3 -1 5 -23 4 -22 0 -30 -2 -17 -4z"/>
<path d="M3624 2607 c18 -74 42 -99 53 -57 8 30 31 24 38 -10 8 -38 14 -37 48
1 l27 31 -30 -4 c-18 -3 -35 1 -41 9 -14 16 -46 17 -52 1 -6 -18 -19 -3 -21
23 0 12 -7 24 -15 27 -10 3 -12 -2 -7 -21z"/>
<path d="M2040 2592 c0 -5 7 -15 15 -22 18 -15 121 -8 138 9 18 18 -1 25 -27
11 -24 -12 -74 -10 -108 5 -10 4 -18 3 -18 -3z"/>
<path d="M2255 2590 c-3 -5 -1 -10 4 -10 6 0 11 5 11 10 0 6 -2 10 -4 10 -3 0
-8 -4 -11 -10z"/>
<path d="M257 2584 c-4 -4 -7 -14 -7 -23 0 -11 3 -12 11 -4 6 6 10 16 7 23 -2
6 -7 8 -11 4z"/>
<path d="M2015 2539 c-33 -21 -139 -27 -150 -9 -3 6 -10 10 -15 10 -6 0 -2
-16 7 -35 15 -32 41 -51 30 -22 -3 8 12 13 55 15 44 2 68 8 89 25 47 37 36 50
-16 16z"/>
<path d="M2550 2554 c0 -10 28 -33 33 -27 3 3 0 12 -8 19 -14 15 -25 18 -25 8z"/>
<path d="M3798 2470 c-54 -44 -100 -80 -102 -80 -3 0 -8 20 -12 45 -3 25 -10
45 -15 45 -10 0 -1 -76 13 -102 11 -22 34 -23 41 -4 3 8 51 49 106 91 56 41
101 78 101 80 0 21 -50 -8 -132 -75z"/>
<path d="M2590 2489 c0 -5 9 -9 20 -9 11 0 20 2 20 4 0 2 -9 6 -20 9 -11 3
-20 1 -20 -4z"/>
<path d="M1225 2480 c-16 -7 -17 -9 -3 -9 9 -1 20 4 23 9 7 11 7 11 -20 0z"/>
<path d="M2020 2478 c0 -15 23 -20 66 -13 62 9 55 24 -11 22 -30 -1 -55 -5
-55 -9z"/>
<path d="M1040 2466 c0 -2 8 -10 18 -17 15 -13 16 -12 3 4 -13 16 -21 21 -21
13z"/>
<path d="M1900 2450 c-9 -6 -10 -10 -3 -10 6 0 15 5 18 10 8 12 4 12 -15 0z"/>
<path d="M2560 2415 c0 -8 5 -15 10 -15 6 0 10 7 10 15 0 8 -4 15 -10 15 -5 0
-10 -7 -10 -15z"/>
<path d="M1948 2398 c-21 -12 -38 -26 -38 -32 0 -6 5 -5 12 2 7 7 18 12 25 12
8 0 23 9 35 20 28 26 13 25 -34 -2z"/>
<path d="M1785 2390 c-3 -5 -2 -10 4 -10 5 0 13 5 16 10 3 6 2 10 -4 10 -5 0
-13 -4 -16 -10z"/>
<path d="M2037 2393 c-4 -3 -7 -11 -7 -17 0 -6 5 -5 12 2 6 6 9 14 7 17 -3 3
-9 2 -12 -2z"/>
<path d="M2160 2374 c0 -11 2 -23 5 -26 9 -9 55 4 49 13 -3 5 -10 7 -15 3 -6
-3 -17 2 -24 12 -14 18 -14 18 -15 -2z"/>
<path d="M2530 2382 c0 -4 9 -13 20 -20 22 -13 27 -3 8 16 -14 14 -28 16 -28
4z"/>
<path d="M2495 2350 c3 -5 11 -10 16 -10 6 0 7 5 4 10 -3 6 -11 10 -16 10 -6
0 -7 -4 -4 -10z"/>
<path d="M2285 2340 c3 -5 16 -10 28 -10 18 0 19 2 7 10 -20 13 -43 13 -35 0z"/>
<path d="M3959 2345 c-3 -5 -5 -34 -4 -63 2 -48 1 -51 -15 -37 -20 18 -169 21
-201 5 -23 -13 -25 -58 -5 -86 14 -17 15 -15 13 26 l-2 45 93 3 c76 2 93 0 98
-13 9 -23 33 -18 39 8 6 26 -8 126 -16 112z"/>
<path d="M3689 2298 c5 -37 6 -39 9 -13 2 17 11 36 20 43 14 11 13 12 -9 12
-23 0 -24 -3 -20 -42z"/>
<path d="M2920 2321 c0 -10 30 -24 37 -17 3 3 2 9 -2 15 -8 13 -35 15 -35 2z"/>
<path d="M1420 2285 c0 -8 4 -15 10 -15 5 0 7 7 4 15 -4 8 -8 15 -10 15 -2 0
-4 -7 -4 -15z"/>
<path d="M2010 2290 c0 -5 5 -10 10 -10 6 0 10 5 10 10 0 6 -4 10 -10 10 -5 0
-10 -4 -10 -10z"/>
<path d="M2320 2293 c8 -3 22 -11 30 -17 13 -10 13 -9 1 7 -7 9 -21 17 -30 16
-13 0 -14 -1 -1 -6z"/>
<path d="M1844 2265 c-4 -8 -12 -15 -20 -15 -8 0 -14 -4 -14 -10 0 -14 48 9
54 26 3 8 1 14 -5 14 -5 0 -12 -7 -15 -15z"/>
<path d="M2510 2260 c0 -5 5 -10 10 -10 6 0 10 5 10 10 0 6 -4 10 -10 10 -5 0
-10 -4 -10 -10z"/>
<path d="M2980 2260 c0 -5 5 -10 10 -10 6 0 10 5 10 10 0 6 -4 10 -10 10 -5 0
-10 -4 -10 -10z"/>
<path d="M1186 2245 c4 -8 11 -15 16 -15 6 0 5 6 -2 15 -7 8 -14 15 -16 15 -2
0 -1 -7 2 -15z"/>
<path d="M2110 2249 c0 -11 32 -20 51 -14 31 10 22 21 -16 21 -19 0 -35 -3
-35 -7z"/>
<path d="M2300 2250 c19 -13 30 -13 30 0 0 6 -10 10 -22 10 -19 0 -20 -2 -8
-10z"/>
<path d="M2440 2250 c0 -5 7 -10 15 -10 8 0 15 5 15 10 0 6 -7 10 -15 10 -8 0
-15 -4 -15 -10z"/>
<path d="M2010 2240 c0 -5 5 -10 10 -10 6 0 10 5 10 10 0 6 -4 10 -10 10 -5 0
-10 -4 -10 -10z"/>
<path d="M2524 2240 c-12 -4 -24 -15 -27 -23 -5 -13 -2 -13 24 0 48 24 50 42
3 23z"/>
<path d="M3325 2240 c-3 -5 -1 -10 4 -10 6 0 11 5 11 10 0 6 -2 10 -4 10 -3 0
-8 -4 -11 -10z"/>
<path d="M3691 2210 c0 -40 2 -42 11 -22 8 16 8 28 0 45 -9 19 -11 17 -11 -23z"/>
<path d="M2950 2231 c0 -5 7 -12 16 -15 24 -9 28 -7 14 9 -14 17 -30 20 -30 6z"/>
<path d="M2235 2220 c3 -5 13 -10 21 -10 8 0 12 5 9 10 -3 6 -13 10 -21 10 -8
0 -12 -4 -9 -10z"/>
<path d="M1470 2200 c6 -11 15 -20 20 -20 6 0 5 9 -2 20 -7 11 -16 20 -21 20
-4 0 -3 -9 3 -20z"/>
<path d="M2290 2210 c0 -5 5 -10 10 -10 6 0 10 5 10 10 0 6 -4 10 -10 10 -5 0
-10 -4 -10 -10z"/>
<path d="M3330 2202 c0 -12 19 -26 26 -19 2 2 -2 10 -11 17 -9 8 -15 8 -15 2z"/>
<path d="M3445 2190 c-3 -5 -1 -10 4 -10 6 0 11 5 11 10 0 6 -2 10 -4 10 -3 0
-8 -4 -11 -10z"/>
<path d="M1230 2181 c0 -6 4 -13 10 -16 6 -3 7 1 4 9 -7 18 -14 21 -14 7z"/>
<path d="M2270 2180 c0 -5 5 -10 10 -10 6 0 10 5 10 10 0 6 -4 10 -10 10 -5 0
-10 -4 -10 -10z"/>
<path d="M2170 2176 c0 -8 48 -12 66 -5 13 5 7 8 -23 8 -24 1 -43 -1 -43 -3z"/>
<path d="M3385 2170 c-3 -6 1 -7 9 -4 18 7 21 14 7 14 -6 0 -13 -4 -16 -10z"/>
<path d="M3258 2158 c11 -14 11 -68 1 -68 -14 0 -30 30 -23 41 4 7 2 10 -7 7
-18 -6 -24 -67 -9 -82 8 -8 9 -6 5 7 -9 22 8 22 30 0 14 -14 18 -14 26 -2 20
31 1 109 -26 109 -4 0 -3 -6 3 -12z"/>
<path d="M2085 2150 c-4 -6 6 -10 22 -10 22 0 25 2 13 10 -19 12 -27 12 -35 0z"/>
<path d="M3325 2150 c3 -5 8 -10 11 -10 2 0 4 5 4 10 0 6 -5 10 -11 10 -5 0
-7 -4 -4 -10z"/>
<path d="M3454 2147 c-11 -5 -24 -24 -30 -41 l-9 -31 42 -3 c24 -2 43 1 43 6
0 5 -10 8 -22 8 -31 -1 -38 40 -9 49 12 3 21 11 21 16 0 11 -8 10 -36 -4z"/>
<path d="M1525 2126 c10 -14 19 -26 22 -26 7 0 -17 39 -28 46 -6 3 -3 -5 6
-20z"/>
<path d="M1960 2141 l-25 -7 29 -8 c21 -5 34 -3 45 8 14 15 13 16 -4 15 -11
-1 -31 -4 -45 -8z"/>
<path d="M2240 2140 c0 -5 5 -10 11 -10 5 0 7 5 4 10 -3 6 -8 10 -11 10 -2 0
-4 -4 -4 -10z"/>
<path d="M2156 2125 c-11 -8 -28 -15 -38 -15 -10 0 -18 -4 -18 -10 0 -5 -5
-10 -11 -10 -5 0 -7 5 -4 10 4 6 -5 10 -19 10 -14 0 -26 -4 -26 -10 0 -5 -10
-10 -22 -11 -21 0 -21 -1 -4 -8 11 -4 42 -4 69 1 35 7 52 6 57 -2 4 -6 15 -8
25 -4 16 7 17 8 2 13 -10 4 -13 11 -9 18 6 9 17 10 40 4 33 -10 41 -4 20 17
-16 16 -39 15 -62 -3z"/>
<path d="M3695 2119 c4 -5 31 -9 62 -9 70 0 66 5 -10 13 -34 3 -55 2 -52 -4z"/>
<path d="M2895 2110 c-3 -5 -1 -10 4 -10 6 0 11 5 11 10 0 6 -2 10 -4 10 -3 0
-8 -4 -11 -10z"/>
<path d="M3331 2096 c-9 -11 -6 -12 14 -8 14 2 22 8 19 13 -8 13 -20 11 -33
-5z"/>
<path d="M1550 2085 c1 -5 12 -23 25 -40 14 -16 25 -25 25 -20 -1 6 -12 24
-25 40 -14 17 -25 26 -25 20z"/>
<path d="M2354 2068 l-19 -23 23 19 c12 11 22 21 22 23 0 8 -8 2 -26 -19z"/>
<path d="M2065 2060 c-4 -6 -26 -10 -49 -9 -42 3 -66 -5 -66 -20 0 -12 110 -5
122 7 7 7 20 12 30 12 10 0 18 5 18 10 0 13 -47 13 -55 0z"/>
<path d="M3300 2059 c0 -6 9 -9 19 -6 14 3 18 1 14 -9 -7 -18 11 -18 26 0 9
11 7 15 -11 20 -34 9 -48 7 -48 -5z"/>
<path d="M4125 2057 c-4 -10 -5 -21 -1 -24 10 -10 18 4 13 24 -4 17 -4 17 -12
0z"/>
<path d="M3390 2042 c-33 -15 -33 -16 -11 -20 13 -2 31 3 39 12 23 23 12 25
-28 8z"/>
<path d="M3451 2036 c-18 -13 -28 -27 -23 -30 15 -9 57 17 60 37 4 22 2 22
-37 -7z"/>
<path d="M3264 1995 c24 -18 39 -20 34 -2 -3 6 -15 13 -29 15 -23 2 -23 2 -5
-13z"/>
<path d="M1942 1982 c13 -15 60 -12 65 4 2 7 -11 11 -36 10 -32 0 -37 -3 -29
-14z"/>
<path d="M2240 1985 c0 -8 7 -15 15 -15 8 0 15 7 15 15 0 8 -7 15 -15 15 -8 0
-15 -7 -15 -15z"/>
<path d="M3364 1984 c-18 -14 -18 -15 6 -8 14 3 32 10 40 15 12 7 11 8 -6 9
-11 0 -29 -7 -40 -16z"/>
<path d="M2150 1969 c-39 -7 -38 -10 3 -13 16 -1 31 2 34 7 8 13 2 14 -37 6z"/>
<path d="M1625 1960 c3 -5 11 -10 16 -10 6 0 7 5 4 10 -3 6 -11 10 -16 10 -6
0 -7 -4 -4 -10z"/>
<path d="M2004 1959 c-3 -5 6 -9 20 -9 31 0 34 6 6 13 -11 3 -23 1 -26 -4z"/>
<path d="M1278 1933 c6 -2 18 -2 25 0 6 3 1 5 -13 5 -14 0 -19 -2 -12 -5z"/>
<path d="M2090 1929 c0 -5 9 -9 20 -9 11 0 20 2 20 4 0 2 -9 6 -20 9 -11 3
-20 1 -20 -4z"/>
<path d="M2060 1919 c0 -5 5 -7 10 -4 6 3 10 8 10 11 0 2 -4 4 -10 4 -5 0 -10
-5 -10 -11z"/>
<path d="M2690 1920 c0 -5 5 -10 11 -10 5 0 7 5 4 10 -3 6 -8 10 -11 10 -2 0
-4 -4 -4 -10z"/>
<path d="M2618 1913 c12 -2 30 -2 40 0 9 3 -1 5 -23 4 -22 0 -30 -2 -17 -4z"/>
<path d="M1065 1900 c-3 -5 -2 -10 4 -10 5 0 13 5 16 10 3 6 2 10 -4 10 -5 0
-13 -4 -16 -10z"/>
<path d="M2020 1900 c-9 -6 -10 -10 -3 -10 6 0 15 5 18 10 8 12 4 12 -15 0z"/>
<path d="M3155 1903 c-11 -2 -30 -6 -42 -9 -13 -2 -23 -9 -23 -14 0 -6 9 -6
24 0 13 5 26 7 28 4 3 -2 31 2 64 10 l59 14 -45 0 c-25 0 -54 -2 -65 -5z"/>
<path d="M4115 1900 c-3 -5 -1 -10 4 -10 6 0 11 5 11 10 0 6 -2 10 -4 10 -3 0
-8 -4 -11 -10z"/>
<path d="M1020 1880 c0 -6 10 -10 23 -10 22 -1 22 -1 -3 -16 -24 -15 -23 -15
25 -9 44 5 76 19 64 28 -10 10 -109 15 -109 7z"/>
<path d="M2893 1862 c-8 -5 1 -8 22 -8 19 0 35 4 35 8 0 10 -41 10 -57 0z"/>
<path d="M1650 1850 c8 -5 29 -9 45 -9 29 1 29 1 5 9 -14 4 -34 8 -45 9 -16 1
-17 -1 -5 -9z"/>
<path d="M3115 1840 c-8 -13 15 -13 35 0 12 8 11 10 -7 10 -12 0 -25 -4 -28
-10z"/>
<path d="M3445 1821 c-11 -5 -54 -16 -95 -26 -41 -10 -95 -28 -120 -40 -25
-13 -67 -26 -95 -29 l-50 -7 25 20 c28 23 23 26 -15 9 -28 -13 -31 -25 -11
-51 12 -15 18 -16 34 -8 12 6 27 8 36 5 8 -3 25 1 38 10 12 9 29 16 37 16 8 0
44 13 80 30 36 16 85 34 107 40 23 5 47 17 54 25 14 16 6 18 -25 6z"/>
<path d="M2249 1804 c-12 -14 -11 -16 5 -13 11 2 21 10 24 17 5 17 -13 15 -29
-4z"/>
<path d="M2380 1800 c0 -5 5 -10 10 -10 6 0 10 5 10 10 0 6 -4 10 -10 10 -5 0
-10 -4 -10 -10z"/>
<path d="M2290 1787 c0 -19 -38 -29 -63 -16 -15 8 -23 7 -35 -5 -15 -15 -14
-16 16 -16 18 0 31 -4 28 -9 -10 -15 4 -39 25 -44 10 -3 17 -1 14 4 -3 4 0 18
6 31 7 13 15 29 19 37 3 8 12 17 20 19 7 3 10 0 6 -6 -3 -6 7 -13 24 -17 16
-4 33 -11 36 -16 4 -6 13 -4 24 6 16 14 22 15 42 4 13 -7 34 -12 47 -10 13 2
34 -3 47 -9 28 -15 103 -6 130 16 18 15 18 15 -6 9 -45 -12 -123 -11 -128 3
-2 6 -12 12 -22 12 -10 0 -22 5 -25 11 -9 13 -65 2 -84 -17 -13 -12 -17 -11
-32 2 -25 22 -89 31 -89 11z"/>
<path d="M1940 1760 c20 -13 83 -13 75 0 -3 6 -25 10 -48 10 -31 0 -38 -3 -27
-10z"/>
<path d="M3018 1763 c7 -3 16 -2 19 1 4 3 -2 6 -13 5 -11 0 -14 -3 -6 -6z"/>
<path d="M2338 1733 c7 -3 16 -2 19 1 4 3 -2 6 -13 5 -11 0 -14 -3 -6 -6z"/>
<path d="M2986 1731 c-4 -5 3 -7 14 -4 23 6 26 13 6 13 -8 0 -17 -4 -20 -9z"/>
<path d="M640 1721 c0 -5 5 -13 10 -16 6 -3 10 -2 10 4 0 5 -4 13 -10 16 -5 3
-10 2 -10 -4z"/>
<path d="M2345 1700 c-10 -11 -13 -20 -7 -20 6 0 16 9 22 20 6 11 9 20 7 20
-2 0 -12 -9 -22 -20z"/>
<path d="M2880 1712 c0 -12 19 -26 26 -19 2 2 -2 10 -11 17 -9 8 -15 8 -15 2z"/>
<path d="M2126 1699 c3 -6 15 -9 25 -6 22 6 25 -3 7 -21 -15 -15 10 -17 32 -2
13 9 12 12 -4 25 -23 17 -71 21 -60 4z"/>
<path d="M3038 1693 c-2 -14 -16 -17 -75 -19 -52 -1 -76 2 -84 12 -9 11 -15
11 -25 3 -8 -6 -14 -16 -14 -22 0 -6 -10 -21 -22 -34 l-21 -23 21 0 c11 0 28
-10 36 -22 9 -12 19 -18 23 -14 4 4 3 10 -3 14 -5 4 -10 22 -10 40 0 26 3 31
16 26 8 -4 35 -8 60 -9 25 -1 62 -7 82 -13 31 -8 40 -7 53 7 19 22 19 31 -1
31 -13 0 -14 3 -5 14 9 11 8 15 -5 20 -22 8 -22 8 -26 -11z"/>
<path d="M2724 1658 c-18 -20 -18 -21 -1 -15 10 4 23 7 28 7 5 0 9 7 9 15 0
21 -14 19 -36 -7z"/>
<path d="M485 1653 c3 -10 9 -30 12 -45 8 -42 31 -56 48 -30 9 12 48 31 95 47
70 23 109 45 82 45 -17 0 -146 -41 -173 -55 -24 -13 -26 -12 -38 21 -7 19 -17
34 -23 34 -6 0 -7 -8 -3 -17z"/>
<path d="M3290 1660 c-8 -5 -12 -12 -9 -15 4 -3 12 1 19 10 14 17 11 19 -10 5z"/>
<path d="M4061 1637 c-16 -42 -12 -68 5 -28 8 18 13 38 11 45 -3 6 -10 -2 -16
-17z"/>
<path d="M3084 1615 c-20 -25 -36 -35 -54 -34 -14 1 -50 1 -80 1 -47 -2 -52
-4 -40 -16 20 -20 133 -24 154 -6 20 16 60 80 54 85 -3 3 -18 -11 -34 -30z"/>
<path d="M2935 1617 c-13 -10 -15 -16 -6 -21 17 -11 41 0 41 19 0 19 -11 19
-35 2z"/>
<path d="M2525 1610 c-3 -5 -2 -10 4 -10 5 0 13 5 16 10 3 6 2 10 -4 10 -5 0
-13 -4 -16 -10z"/>
<path d="M3020 1600 c0 -5 7 -10 16 -10 8 0 12 5 9 10 -3 6 -10 10 -16 10 -5
0 -9 -4 -9 -10z"/>
<path d="M628 1573 c-24 -27 -27 -67 -5 -71 12 -3 17 3 17 20 0 13 5 29 12 36
8 8 9 15 2 22 -7 7 -16 5 -26 -7z"/>
<path d="M3846 1575 c-3 -8 -1 -15 4 -15 13 0 22 18 11 24 -5 3 -11 -1 -15 -9z"/>
<path d="M2810 1565 c0 -8 4 -15 9 -15 5 0 11 7 15 15 3 9 0 15 -9 15 -8 0
-15 -7 -15 -15z"/>
<path d="M674 1539 l-19 -22 25 8 c14 4 33 8 43 9 26 1 21 21 -6 24 -14 2 -31
-6 -43 -19z"/>
<path d="M753 1510 c-22 -41 -17 -52 11 -24 13 12 24 64 14 64 -2 0 -13 -18
-25 -40z"/>
<path d="M2737 1544 c-11 -12 3 -24 29 -24 27 0 32 15 8 24 -20 8 -29 8 -37 0z"/>
<path d="M520 1531 c0 -7 17 -31 38 -52 28 -27 51 -40 80 -45 39 -6 41 -8 35
-32 -4 -18 -1 -29 13 -39 16 -12 17 -15 4 -23 -24 -15 -39 -12 -66 15 -14 14
-30 25 -36 25 -22 0 56 -70 90 -81 62 -20 153 22 166 77 10 40 -6 52 -19 14
-13 -40 -48 -68 -89 -72 -29 -3 -29 -2 -29 47 1 28 4 62 8 77 l7 27 -37 -12
c-31 -9 -39 -9 -49 4 -6 9 -17 14 -24 11 -8 -2 -31 13 -53 34 -21 21 -39 32
-39 25z"/>
<path d="M2860 1509 c0 -35 15 -31 22 6 4 17 1 25 -8 25 -9 0 -14 -11 -14 -31z"/>
<path d="M4025 1525 c-16 -47 -38 -101 -47 -118 -8 -17 -4 -37 6 -26 11 13 56
142 53 152 -3 7 -8 3 -12 -8z"/>
<path d="M2810 1505 c0 -8 7 -15 15 -15 8 0 15 7 15 15 0 8 -7 15 -15 15 -8 0
-15 -7 -15 -15z"/>
<path d="M3750 1505 c-7 -8 -8 -15 -2 -15 5 0 15 7 22 15 7 8 8 15 2 15 -5 0
-15 -7 -22 -15z"/>
<path d="M3937 1503 c-10 -16 -47 -117 -44 -120 2 -1 16 24 32 57 16 33 26 62
23 66 -3 3 -8 2 -11 -3z"/>
<path d="M3701 1424 c-26 -44 -21 -57 6 -17 31 44 35 53 25 53 -6 0 -20 -16
-31 -36z"/>
<path d="M749 1411 c-13 -11 -21 -23 -16 -27 4 -4 13 -2 19 4 17 17 28 15 21
-5 -5 -15 -2 -14 17 3 40 38 2 60 -41 25z"/>
<path d="M3028 1413 c12 -2 30 -2 40 0 9 3 -1 5 -23 4 -22 0 -30 -2 -17 -4z"/>
<path d="M3347 1376 c-4 -10 -5 -21 -2 -24 9 -9 17 6 13 25 -3 17 -4 17 -11
-1z"/>
<path d="M460 1375 c0 -9 30 -65 34 -65 2 0 -1 16 -7 35 -6 19 -14 35 -19 35
-4 0 -8 -2 -8 -5z"/>
<path d="M3745 1370 c-3 -5 -1 -10 4 -10 6 0 11 5 11 10 0 6 -2 10 -4 10 -3 0
-8 -4 -11 -10z"/>
<path d="M3957 1363 c-4 -3 -7 -15 -7 -27 0 -20 0 -20 15 0 8 10 15 22 15 27
0 9 -14 9 -23 0z"/>
<path d="M3710 1350 c-9 -6 -10 -10 -3 -10 6 0 15 5 18 10 8 12 4 12 -15 0z"/>
<path d="M3850 1311 c-6 -12 -7 -21 -1 -21 10 0 24 30 17 37 -2 3 -9 -5 -16
-16z"/>
<path d="M3927 1303 c-4 -3 -7 -15 -7 -27 0 -20 0 -20 15 0 8 10 15 22 15 27
0 9 -14 9 -23 0z"/>
<path d="M512 1265 c6 -14 15 -25 19 -25 4 0 2 11 -4 25 -7 14 -15 25 -19 25
-4 0 -2 -11 4 -25z"/>
<path d="M706 1272 c-3 -5 4 -21 14 -37 18 -28 18 -28 -3 -46 l-22 -18 21 -21
c19 -19 27 -21 65 -13 29 6 47 15 53 29 5 11 31 35 58 53 28 18 48 35 45 38
-10 10 -109 -51 -117 -72 -6 -16 -17 -21 -44 -22 -34 -1 -35 0 -22 19 12 17
12 25 -3 59 -15 36 -33 49 -45 31z"/>
<path d="M780 1261 c0 -11 40 -22 52 -15 5 3 6 10 3 15 -8 12 -55 12 -55 0z"/>
<path d="M3900 1229 c-7 -11 -10 -23 -7 -25 2 -2 9 7 15 21 14 30 7 33 -8 4z"/>
<path d="M3766 1153 c-6 -14 -5 -15 5 -6 7 7 10 15 7 18 -3 3 -9 -2 -12 -12z"/>
<path d="M3488 1148 c9 -9 15 -9 24 0 9 9 7 12 -12 12 -19 0 -21 -3 -12 -12z"/>
<path d="M3816 1094 c-10 -14 -15 -28 -13 -31 3 -2 13 7 23 21 9 15 14 29 12
32 -3 2 -13 -7 -22 -22z"/>
<path d="M899 1069 c-15 -29 2 -66 38 -80 22 -8 32 -6 52 9 26 19 42 72 22 72
-6 0 -11 -11 -11 -25 0 -18 -7 -26 -24 -31 -35 -8 -46 2 -46 42 0 38 -14 44
-31 13z"/>
<path d="M3771 1029 c-5 -13 -29 -47 -53 -74 -25 -28 -55 -63 -69 -80 -43 -54
-118 -125 -130 -125 -7 0 -9 -3 -6 -7 4 -3 1 -13 -6 -22 -33 -41 54 34 98 85
28 32 66 76 86 98 53 61 103 135 96 142 -4 4 -11 -4 -16 -17z"/>
<path d="M1140 981 c10 -19 -11 -53 -78 -128 -24 -26 -13 -55 12 -34 23 19 96
129 96 144 0 15 -20 37 -32 37 -5 0 -4 -9 2 -19z"/>
<path d="M655 940 c3 -5 8 -10 11 -10 2 0 4 5 4 10 0 6 -5 10 -11 10 -5 0 -7
-4 -4 -10z"/>
<path d="M1185 894 c-21 -33 -9 -46 15 -16 24 29 32 28 24 -3 -7 -29 10 -34
25 -7 12 23 -4 52 -28 52 -10 0 -26 -12 -36 -26z"/>
<path d="M1290 860 c0 -28 -26 -54 -49 -48 -12 4 -13 -6 -5 -38 9 -34 -15 -57
-56 -56 -32 1 -53 12 -134 70 -32 23 -46 29 -46 18 0 -22 129 -108 172 -113
31 -5 41 -1 63 23 18 20 24 35 20 51 -4 16 -1 23 9 23 8 0 24 11 34 25 33 41
33 13 1 -38 -16 -26 -29 -51 -29 -56 0 -5 -6 -14 -14 -21 -15 -11 -11 -40 4
-40 10 0 78 125 85 155 3 12 -5 31 -20 48 -30 34 -35 34 -35 -3z"/>
<path d="M3120 872 c0 -4 9 -20 20 -37 11 -16 20 -45 20 -64 0 -42 -35 -101
-60 -101 -10 0 -20 -4 -22 -9 -1 -5 -31 -23 -66 -39 -39 -19 -59 -33 -51 -38
13 -8 99 33 112 54 4 6 16 12 26 12 26 0 72 53 81 96 7 31 5 47 -11 81 -17 36
-49 65 -49 45z"/>
<path d="M3040 842 c0 -24 26 -59 36 -49 4 4 2 13 -4 19 -7 7 -12 17 -12 23 0
5 9 -1 20 -15 10 -14 22 -21 26 -17 9 9 -35 57 -53 57 -7 0 -13 -8 -13 -18z"/>
<path d="M1127 818 c-31 -40 -33 -48 -13 -48 8 0 18 9 21 20 3 11 13 20 21 20
11 0 12 -4 5 -18 -6 -11 -6 -23 0 -33 8 -12 12 -11 24 5 20 26 19 30 -8 62
l-24 27 -26 -35z"/>
<path d="M2990 821 c0 -43 54 -94 92 -89 22 4 28 1 23 -10 -3 -8 0 -12 7 -10
7 3 15 15 16 28 3 21 1 22 -31 16 -28 -5 -38 -2 -60 20 -15 15 -27 37 -27 50
0 13 -4 24 -10 24 -5 0 -10 -13 -10 -29z"/>
<path d="M2950 794 c0 -21 54 -129 70 -139 16 -10 21 15 6 31 -9 8 -16 20 -16
25 0 5 -13 30 -30 57 -22 34 -30 41 -30 26z"/>
<path d="M1379 773 c-7 -16 -15 -31 -17 -35 -2 -5 3 -8 11 -8 7 0 19 12 26 27
9 19 15 23 23 15 8 -8 8 -15 -2 -27 -15 -18 -7 -30 15 -22 22 9 19 54 -4 67
-29 15 -36 13 -52 -17z"/>
<path d="M817 769 c7 -7 15 -10 18 -7 3 3 -2 9 -12 12 -14 6 -15 5 -6 -5z"/>
<path d="M1492 740 c1 -35 -15 -58 -45 -62 -25 -3 -32 -32 -22 -84 9 -52 27
-42 20 11 -7 41 -5 45 17 54 39 15 53 40 49 94 -2 30 -20 18 -19 -13z"/>
<path d="M2870 745 c0 -9 9 -15 23 -15 19 0 28 -10 42 -42 23 -53 35 -69 45
-63 6 4 -38 102 -54 121 -1 1 -13 4 -28 8 -21 5 -28 3 -28 -9z"/>
<path d="M2736 703 c-4 -18 -11 -33 -15 -33 -5 0 -11 -19 -14 -42 -2 -24 -8
-51 -12 -62 -6 -14 -4 -17 6 -14 8 3 19 22 25 44 l11 39 17 -37 c18 -38 70
-78 100 -78 29 0 66 46 66 81 0 36 -36 119 -52 119 -6 0 -7 -8 -3 -17 47 -124
17 -192 -59 -132 -35 28 -47 53 -55 113 -7 50 -7 50 -15 19z"/>
<path d="M2780 704 c0 -20 50 -134 59 -134 26 1 28 18 11 69 -11 29 -24 59
-31 67 -16 19 -39 18 -39 -2z"/>
<path d="M1668 705 c-14 -14 8 -239 22 -230 5 3 11 1 15 -5 12 -20 -21 -20
-74 0 -30 11 -57 18 -59 15 -11 -10 13 -23 85 -44 43 -12 92 -27 109 -32 48
-14 90 -11 115 10 17 14 29 17 42 10 21 -12 23 -8 36 89 10 80 8 97 -16 106
-22 9 -33 -2 -33 -30 0 -13 -4 -24 -10 -24 -5 0 -10 9 -10 20 0 38 -76 66 -88
32 -3 -9 3 -11 20 -7 26 7 43 -7 50 -40 6 -33 34 -30 46 4 6 17 14 31 17 31
10 0 -6 -154 -17 -165 -6 -6 -9 -1 -7 15 3 38 0 60 -9 60 -5 0 -9 -14 -10 -31
-2 -63 -48 -83 -133 -56 -39 12 -40 13 -34 50 5 24 3 37 -4 37 -6 0 -11 -7
-11 -15 0 -8 -4 -15 -10 -15 -5 0 -10 26 -11 58 -1 80 -13 165 -21 157z"/>
<path d="M1326 678 c-20 -29 -21 -52 -1 -44 10 4 17 -3 20 -22 4 -15 9 -33 13
-40 15 -28 172 -99 186 -84 13 12 4 20 -31 27 -42 8 -104 37 -121 57 -6 8 -13
35 -16 60 -6 72 -22 86 -50 46z"/>
<path d="M1563 640 c-57 -61 -71 -90 -18 -40 36 35 81 90 72 90 -3 0 -27 -23
-54 -50z"/>
<path d="M1203 657 c5 -17 115 -79 127 -72 13 8 13 25 0 25 -5 0 -37 13 -70
29 -34 17 -60 25 -57 18z"/>
<path d="M2586 647 c-12 -39 7 -57 33 -33 43 39 53 -27 15 -103 -14 -28 -14
-35 -2 -47 12 -12 23 -11 78 9 59 21 65 25 65 52 0 15 -6 30 -12 33 -8 2 -13
-6 -13 -22 0 -27 -21 -41 -82 -53 -27 -5 -27 -5 -18 28 5 18 14 37 20 43 16
16 12 72 -6 87 -12 10 -20 10 -35 1 -25 -16 -27 -16 -32 11 -3 20 -4 20 -11
-6z"/>
<path d="M3424 652 c-30 -28 -197 -144 -251 -174 -26 -16 -55 -32 -63 -38 -8
-5 -40 -20 -70 -34 -30 -13 -77 -33 -105 -46 -88 -38 -305 -102 -405 -119
-182 -30 -430 -37 -570 -15 -19 3 -53 7 -75 9 -150 15 -179 23 -142 39 6 3 -7
2 -29 -1 -30 -4 -49 0 -67 12 -14 9 -30 14 -36 11 -12 -8 -131 29 -156 48 -11
9 -26 16 -32 16 -19 0 -16 -17 5 -23 9 -3 49 -17 87 -31 85 -32 273 -80 375
-96 188 -29 506 -18 712 25 259 55 542 188 773 364 90 70 91 70 79 71 -5 0
-19 -8 -30 -18z"/>
<path d="M1742 623 c-18 -32 -5 -68 37 -106 21 -19 41 -41 44 -50 4 -10 11
-17 17 -17 21 0 9 25 -32 67 -31 32 -43 53 -48 85 -5 41 -6 42 -18 21z"/>
<path d="M1580 610 c-17 -10 -14 -15 18 -24 24 -8 25 -6 16 18 -7 18 -13 19
-34 6z"/>
<path d="M2026 595 c-3 -8 -8 -38 -11 -67 -3 -29 -8 -68 -11 -85 -4 -27 -2
-32 11 -27 8 4 14 11 13 18 -4 26 15 152 25 158 28 18 37 -5 37 -93 0 -72 3
-89 15 -89 12 0 14 15 9 92 -3 54 -11 96 -17 100 -21 13 -65 9 -71 -7z"/>
<path d="M2183 603 c-9 -3 -13 -32 -13 -94 l0 -89 33 1 c29 0 30 1 10 9 -21 9
-23 16 -23 81 0 57 4 75 18 85 13 11 14 13 2 13 -8 0 -21 -3 -27 -6z"/>
<path d="M1532 558 c-19 -19 -14 -30 7 -18 16 8 25 5 47 -15 33 -30 34 -30 34
-4 0 13 -11 25 -35 35 -41 17 -38 17 -53 2z"/>
<path d="M2397 554 c-25 -25 21 -84 65 -84 42 0 80 66 48 85 -6 4 -10 -6 -10
-23 0 -23 -5 -31 -24 -36 -35 -9 -55 2 -64 36 -4 16 -11 26 -15 22z"/>
<path d="M1750 503 c0 -12 5 -25 10 -28 13 -8 13 15 0 35 -8 12 -10 11 -10 -7z"/>
<path d="M1160 476 c0 -2 7 -7 16 -10 8 -3 12 -2 9 4 -6 10 -25 14 -25 6z"/>
<path d="M2254 445 c-16 -12 -17 -14 -3 -15 9 0 19 7 23 15 7 19 5 19 -20 0z"/>
<path d="M1490 440 c19 -13 30 -13 30 0 0 6 -10 10 -22 10 -19 0 -20 -2 -8
-10z"/>
<path d="M2300 426 c0 -37 -27 -46 -134 -46 -57 0 -96 -4 -96 -10 0 -13 209
-13 229 -1 17 11 24 68 10 77 -5 3 -9 -6 -9 -20z"/>
<path d="M1892 399 c7 -20 132 -36 153 -19 8 7 15 18 15 24 0 6 -4 5 -9 -3 -7
-11 -23 -12 -71 -7 -34 4 -68 10 -77 13 -11 4 -14 2 -11 -8z"/>
<path d="M2658 373 c7 -3 16 -2 19 1 4 3 -2 6 -13 5 -11 0 -14 -3 -6 -6z"/>
<path d="M2575 360 c-13 -5 -14 -9 -5 -9 8 0 24 4 35 9 13 5 14 9 5 9 -8 0
-24 -4 -35 -9z"/>
<path d="M2285 320 c-3 -5 1 -10 10 -10 9 0 13 5 10 10 -3 6 -8 10 -10 10 -2
0 -7 -4 -10 -10z"/>
<path d="M2373 323 c9 -2 25 -2 35 0 9 3 1 5 -18 5 -19 0 -27 -2 -17 -5z"/>
<path d="M1598 313 c7 -3 16 -2 19 1 4 3 -2 6 -13 5 -11 0 -14 -3 -6 -6z"/>
</g>
</svg>
