<?xml version="1.0" standalone="no"?>
<!DOCTYPE svg PUBLIC "-//W3C//DTD SVG 20010904//EN"
 "http://www.w3.org/TR/2001/REC-SVG-20010904/DTD/svg10.dtd">
<svg version="1.0" xmlns="http://www.w3.org/2000/svg"
 width="435.000000pt" height="435.000000pt" viewBox="0 0 435.000000 435.000000"
 preserveAspectRatio="xMidYMid meet">

<g transform="translate(0.000000,435.000000) scale(0.100000,-0.100000)"
fill="#000000" stroke="none">
<path d="M1989 4029 c-9 -6 5 -9 46 -10 108 -4 230 3 240 12 12 12 -266 11
-286 -2z"/>
<path d="M1895 4023 c-16 -3 -34 -9 -40 -15 -13 -12 86 0 100 13 9 9 -5 10
-60 2z"/>
<path d="M2323 4024 c3 -3 41 -10 84 -15 43 -5 98 -11 123 -15 78 -11 38 5
-51 21 -86 15 -167 20 -156 9z"/>
<path d="M1785 4000 c-16 -6 -14 -8 13 -7 18 0 35 4 38 9 6 10 -24 9 -51 -2z"/>
<path d="M1645 3970 c-38 -10 -73 -19 -77 -19 -5 -1 -8 -5 -8 -11 0 -14 23
-13 78 4 26 8 59 17 75 20 15 4 27 11 27 16 0 13 -13 12 -95 -10z"/>
<path d="M2028 3963 c-167 -12 -336 -45 -468 -92 -100 -36 -224 -91 -280 -125
-110 -66 -187 -105 -194 -98 -4 4 -6 2 -4 -5 2 -6 -26 -33 -62 -61 -79 -61
-205 -183 -285 -279 -107 -127 -165 -201 -165 -212 0 -6 -4 -11 -8 -11 -14 0
-159 -298 -185 -380 -46 -144 -78 -283 -92 -400 -11 -90 -13 -195 -4 -206 7
-8 6 -14 -1 -19 -13 -8 -13 -125 0 -145 8 -12 10 -10 10 10 1 55 18 -7 25 -91
5 -62 3 -89 -5 -94 -8 -5 -6 -13 8 -29 10 -11 31 -67 46 -123 15 -56 38 -128
52 -160 53 -119 115 -243 123 -243 4 0 14 -18 21 -41 13 -39 26 -56 36 -46 3
3 1 13 -4 24 -5 10 -22 43 -38 73 -15 30 -31 62 -35 70 -5 8 -20 42 -34 75
-15 33 -31 68 -36 78 -17 31 -49 143 -81 281 -50 217 -51 514 -2 756 49 246
163 506 304 695 315 424 741 679 1255 750 173 25 447 16 605 -18 258 -57 469
-145 674 -282 159 -106 266 -203 383 -345 213 -261 340 -535 398 -860 18 -102
34 -287 29 -350 -2 -25 -5 -83 -8 -130 -5 -72 -23 -186 -52 -325 -4 -16 -10
-34 -14 -40 -5 -5 -12 -28 -16 -50 -6 -35 -5 -39 8 -27 9 7 18 23 21 35 3 12
17 67 31 122 32 123 54 295 56 418 0 31 4 46 10 42 6 -4 10 -14 9 -23 -1 -10
-1 -39 0 -67 1 -39 4 -46 12 -33 5 10 8 34 5 55 -3 21 -5 73 -5 116 -1 44 -5
77 -11 77 -5 0 -11 -15 -11 -32 -1 -23 -4 -16 -9 22 -13 88 -11 158 2 162 10
4 10 13 1 41 -6 20 -8 37 -3 37 15 0 52 -172 44 -206 -4 -14 -2 -24 4 -24 11
0 10 -278 -2 -400 -4 -42 -3 -58 3 -45 16 37 33 303 26 413 -26 411 -162 770
-414 1097 -55 70 -251 275 -264 275 -8 0 15 -29 89 -112 13 -14 24 -30 24 -34
0 -4 15 -21 33 -39 17 -17 59 -68 92 -113 47 -65 64 -80 79 -76 16 5 18 2 12
-20 -4 -15 -2 -26 4 -26 5 0 10 -6 10 -13 0 -7 11 -28 24 -47 32 -49 94 -165
118 -225 51 -128 78 -201 78 -217 0 -9 4 -18 10 -20 14 -4 41 -141 30 -152 -5
-5 -13 10 -20 35 -6 24 -18 71 -27 104 -8 33 -19 69 -23 80 -5 11 -23 58 -41
105 -18 47 -36 90 -40 95 -4 6 -22 39 -39 73 -17 35 -35 60 -40 57 -4 -3 -6 3
-4 12 3 11 -22 53 -63 107 -38 49 -74 98 -80 110 -7 12 -45 55 -85 97 -63 66
-97 98 -213 198 -11 9 -38 30 -60 47 -22 16 -49 37 -60 47 -11 10 -32 25 -47
33 -15 8 -44 26 -65 40 -51 34 -176 93 -238 111 -27 8 -53 20 -57 26 -4 6 -29
17 -55 23 -26 7 -92 24 -147 38 -199 51 -375 66 -608 49z"/>
<path d="M2645 3970 c3 -5 10 -10 16 -10 5 0 9 5 9 10 0 6 -7 10 -16 10 -8 0
-12 -4 -9 -10z"/>
<path d="M2810 3920 c20 -13 33 -13 25 0 -3 6 -14 10 -23 10 -15 0 -15 -2 -2
-10z"/>
<path d="M1435 3896 c-16 -8 -49 -22 -72 -32 -24 -10 -43 -22 -43 -27 0 -4 3
-6 8 -4 38 20 105 47 116 47 7 0 19 7 26 15 15 19 4 19 -35 1z"/>
<path d="M2199 3883 c-18 -21 -62 -100 -129 -228 -55 -106 -62 -125 -50 -125
4 0 43 67 85 148 108 207 133 232 35 35 -44 -90 -80 -168 -80 -175 0 -18 75
111 122 212 22 47 44 93 50 104 7 13 6 22 -4 33 -12 12 -16 11 -29 -4z"/>
<path d="M2093 3882 c-10 -6 -56 -91 -155 -282 -39 -77 -48 -105 -24 -80 15
16 197 362 193 366 -1 2 -8 0 -14 -4z"/>
<path d="M2287 3868 c-102 -165 -187 -338 -167 -338 5 0 37 53 69 118 33 64
67 126 76 137 8 11 -11 -35 -45 -102 -62 -126 -84 -201 -30 -103 37 66 114
227 124 255 5 17 3 17 -14 -4 -24 -28 -26 -21 -4 20 19 37 12 51 -9 17z"/>
<path d="M1992 3868 c-12 -16 -148 -273 -180 -342 -42 -91 7 -28 59 76 27 54
51 98 54 98 7 0 -9 -36 -51 -118 -20 -40 -34 -75 -31 -78 6 -6 80 128 127 231
18 39 39 83 46 98 19 39 1 65 -24 35z m-31 -114 c-17 -27 -31 -46 -31 -43 0
12 52 100 57 96 2 -3 -9 -27 -26 -53z"/>
<path d="M2116 3864 c-4 -9 -4 -19 -2 -21 8 -8 26 8 26 23 0 19 -16 18 -24 -2z"/>
<path d="M2376 3858 c-64 -105 -166 -300 -166 -320 0 -26 29 20 96 149 37 73
69 131 72 128 2 -2 -26 -63 -63 -135 -36 -72 -65 -136 -63 -142 5 -13 54 75
107 187 18 39 39 82 47 97 17 32 18 42 2 32 -8 -5 -9 -2 -5 9 9 25 -10 21 -27
-5z"/>
<path d="M2936 3871 c8 -7 28 -15 89 -36 11 -3 0 5 -25 19 -44 24 -84 35 -64
17z"/>
<path d="M1893 3858 c-50 -81 -213 -408 -200 -403 6 3 32 45 57 93 94 184 142
273 146 269 3 -2 -34 -80 -81 -172 -48 -92 -84 -170 -81 -173 3 -3 7 -3 9 -1
28 47 163 321 172 348 5 16 4 21 -4 17 -7 -5 -9 -1 -5 8 3 9 11 13 17 9 6 -3
7 -1 3 5 -9 16 -23 15 -33 0z"/>
<path d="M2453 3823 c-11 -21 -42 -79 -69 -128 -67 -123 -87 -168 -73 -163 6
2 31 42 56 88 24 47 62 117 84 157 42 77 44 83 30 83 -5 0 -18 -17 -28 -37z"/>
<path d="M2427 3701 c-42 -82 -77 -157 -77 -168 0 -19 45 60 107 187 52 109
57 119 51 125 -2 3 -39 -62 -81 -144z"/>
<path d="M2572 3841 c-12 -7 -49 -72 -132 -233 -43 -84 -45 -88 -31 -88 5 0
40 60 77 133 37 72 76 145 86 160 21 30 21 41 0 28z"/>
<path d="M1738 3753 c-24 -49 -68 -131 -96 -183 -62 -115 -91 -182 -69 -160 8
8 56 96 107 195 51 99 99 189 106 200 16 22 18 35 6 35 -5 0 -29 -39 -54 -87z"/>
<path d="M1692 3823 c-7 -3 -26 -30 -41 -62 -15 -31 -45 -85 -66 -121 -20 -36
-62 -114 -91 -175 -30 -60 -63 -117 -74 -127 -28 -23 -25 -32 5 -12 26 17 54
66 185 319 40 77 79 148 88 158 17 19 14 27 -6 20z"/>
<path d="M2658 3818 c-18 -16 -168 -292 -168 -312 0 -26 26 13 85 127 37 72
77 147 87 165 21 35 20 39 -4 20z"/>
<path d="M3062 3814 c10 -10 20 -15 24 -12 3 4 -5 12 -18 18 -22 12 -22 12 -6
-6z"/>
<path d="M1250 3810 c-8 -5 -12 -11 -9 -14 3 -3 14 1 25 9 21 16 8 20 -16 5z"/>
<path d="M2093 3809 c-11 -15 -143 -275 -143 -284 0 -13 16 -2 26 18 6 12 39
75 73 140 34 65 61 123 59 129 -2 6 -8 5 -15 -3z"/>
<path d="M2586 3812 c-3 -5 -37 -70 -76 -144 -69 -134 -93 -201 -44 -123 37
59 137 265 131 271 -3 3 -8 1 -11 -4z"/>
<path d="M2678 3795 c-3 -6 -38 -72 -77 -148 -67 -131 -89 -186 -55 -142 26
34 145 277 141 288 -2 7 -6 7 -9 2z"/>
<path d="M1201 3776 c-10 -12 -8 -13 8 -9 12 3 21 9 21 14 0 14 -16 11 -29 -5z"/>
<path d="M2714 3747 c-11 -23 -43 -85 -71 -137 -28 -52 -54 -106 -58 -120 -6
-22 -6 -23 8 -10 26 26 168 310 155 310 -7 -1 -22 -20 -34 -43z"/>
<path d="M3125 3780 c3 -5 11 -10 16 -10 6 0 7 5 4 10 -3 6 -11 10 -16 10 -6
0 -7 -4 -4 -10z"/>
<path d="M1547 3758 c-24 -39 -172 -317 -225 -423 -50 -99 -97 -159 -122 -153
-7 2 -15 -3 -17 -9 -10 -27 27 -11 71 30 33 31 65 80 122 192 42 83 103 201
136 264 32 62 57 115 54 118 -2 3 -11 -6 -19 -19z"/>
<path d="M2690 3620 c-62 -125 -72 -152 -61 -162 9 -8 12 -9 7 -1 -3 6 10 39
29 72 34 57 115 224 115 236 0 25 -27 -18 -90 -145z"/>
<path d="M2833 3762 c-13 -8 -37 -50 -114 -202 -46 -88 -62 -137 -39 -114 12
12 171 316 167 320 -1 2 -8 0 -14 -4z"/>
<path d="M1144 3745 c-10 -8 -14 -14 -9 -15 15 0 40 18 34 24 -3 3 -14 -1 -25
-9z"/>
<path d="M3170 3756 c0 -2 7 -7 16 -10 8 -3 12 -2 9 4 -6 10 -25 14 -25 6z"/>
<path d="M1697 3602 c-42 -82 -77 -156 -77 -163 0 -17 91 143 131 230 56 123
23 82 -54 -67z"/>
<path d="M2783 3592 c-40 -82 -73 -152 -73 -157 0 -19 41 48 103 167 58 114
67 138 48 138 -3 0 -39 -67 -78 -148z"/>
<path d="M1428 3710 c-21 -34 -101 -186 -221 -420 -55 -107 -119 -220 -142
-250 -23 -30 -47 -64 -54 -75 -11 -18 -11 -18 -5 5 9 34 163 338 175 345 5 4
9 13 9 21 0 30 -20 2 -71 -99 -139 -273 -158 -312 -154 -316 3 -2 11 2 20 9
27 22 16 -5 -24 -61 -47 -66 -100 -171 -131 -259 -13 -36 -30 -73 -37 -82 -8
-9 -26 -51 -39 -94 -32 -101 -332 -691 -340 -670 -4 10 63 154 170 369 167
334 229 471 190 422 -8 -11 -61 -110 -116 -220 -55 -110 -118 -231 -138 -270
-130 -244 -142 -273 -135 -315 5 -30 11 -40 23 -38 8 2 43 57 77 123 270 528
268 524 260 459 -9 -69 -16 -85 -25 -58 -6 15 -20 -7 -65 -96 -58 -117 -133
-260 -212 -407 -43 -81 -43 -83 -29 -118 8 -19 19 -35 25 -35 8 0 65 105 224
418 l62 122 5 -42 c3 -24 1 -61 -4 -83 -9 -44 -226 -495 -238 -495 -21 0 2 57
112 272 66 130 120 240 120 247 0 36 -30 -12 -131 -206 -161 -311 -150 -286
-138 -322 12 -33 27 -39 47 -19 17 17 15 2 -4 -27 -14 -21 -14 -30 -4 -56 8
-18 19 -29 29 -27 9 2 61 89 126 215 101 195 111 210 122 190 22 -39 3 -96
-95 -291 -72 -143 -97 -185 -104 -173 -6 12 18 69 92 212 93 182 122 252 86
215 -7 -8 -55 -96 -106 -195 -51 -99 -97 -184 -101 -189 -14 -16 -10 -49 10
-75 l18 -23 21 27 c12 15 22 32 22 38 0 6 3 8 6 4 3 -3 -4 -24 -16 -45 -16
-28 -21 -48 -16 -66 9 -35 35 -45 52 -21 17 22 18 12 3 -16 -6 -11 -7 -34 -4
-50 5 -23 12 -29 27 -27 22 3 34 22 139 232 l70 139 26 -38 c14 -21 21 -40 16
-44 -4 -3 -39 -71 -76 -151 -80 -172 -91 -192 -103 -191 -18 0 -15 33 8 79 14
26 47 90 75 142 47 88 79 179 55 155 -14 -15 -132 -249 -132 -263 0 -7 -4 -12
-8 -12 -7 0 -28 -42 -42 -85 -7 -21 14 -44 40 -45 10 0 48 64 105 176 l89 176
23 -26 c26 -31 31 -18 -67 -220 -69 -143 -100 -185 -100 -137 0 11 36 90 80
176 44 87 77 162 74 167 -8 12 2 28 -103 -176 -92 -179 -92 -179 -72 -199 10
-11 25 -17 33 -15 7 3 51 79 97 169 46 90 85 166 88 168 2 3 14 -6 28 -20 l24
-24 -82 -164 c-45 -91 -88 -166 -95 -169 -25 -8 -11 46 36 128 55 98 107 218
99 226 -3 4 -24 -29 -45 -72 -22 -44 -61 -119 -86 -169 -25 -49 -46 -97 -46
-106 0 -21 26 -43 43 -36 8 3 51 79 97 169 45 89 84 165 87 167 2 3 15 -6 29
-20 l24 -25 -81 -159 c-44 -88 -83 -162 -85 -164 -2 -3 -9 0 -14 5 -7 7 15 62
66 168 42 86 74 159 71 162 -8 8 -23 -18 -102 -173 -75 -148 -76 -152 -60
-177 9 -13 22 -22 30 -20 7 3 41 60 76 127 73 143 98 189 108 200 4 4 20 -6
36 -23 16 -16 24 -30 18 -30 -7 0 -13 -6 -15 -12 -2 -7 -36 -78 -76 -157 -52
-101 -77 -140 -84 -133 -8 8 10 53 62 155 40 80 70 152 68 163 -5 23 -167
-289 -168 -322 0 -25 17 -34 44 -25 11 4 50 69 98 162 43 84 82 154 86 154 4
0 17 -7 30 -16 l23 -16 -77 -152 c-42 -83 -81 -154 -86 -157 -27 -17 -15 19
50 150 40 79 72 149 72 155 0 31 -23 -4 -99 -154 -82 -159 -84 -165 -65 -180
40 -30 38 -32 154 190 34 66 63 121 64 122 1 1 16 -6 34 -17 l32 -20 -28 -47
c-15 -27 -52 -95 -81 -153 -62 -122 -59 -116 -71 -104 -5 5 18 61 60 144 64
125 84 180 61 165 -8 -5 -45 -73 -149 -278 -20 -40 -12 -62 22 -62 27 0 34 9
107 150 43 83 80 154 82 159 4 11 67 -21 67 -34 0 -6 -4 -10 -8 -10 -4 0 -14
-16 -21 -35 -7 -20 -32 -70 -56 -113 -24 -43 -46 -91 -49 -107 -7 -36 -17 -47
-36 -35 -13 8 -3 34 58 156 40 80 70 149 67 153 -10 10 -31 -25 -106 -173 -76
-151 -76 -148 -13 -186 26 -16 38 -19 53 -11 16 9 18 8 14 -8 -4 -14 3 -24 25
-35 20 -10 33 -12 37 -6 13 21 45 9 77 -30 27 -30 44 -41 77 -46 42 -7 43 -6
36 17 -8 23 -53 89 -62 89 -6 0 18 -43 35 -62 8 -10 12 -18 8 -18 -20 0 -66
33 -90 65 -26 34 -30 36 -72 29 -42 -6 -60 5 -34 21 6 4 8 11 5 16 -3 5 0 6 7
4 18 -7 268 161 268 179 0 6 -129 -80 -231 -153 -10 -7 -19 -11 -19 -9 0 3 52
43 115 89 109 80 129 99 104 99 -10 0 -128 -77 -139 -91 -15 -19 -172 -119
-179 -115 -11 7 6 54 54 146 21 41 49 96 62 122 23 45 24 47 51 35 48 -21 68
-38 54 -43 -14 -7 -46 -63 -39 -71 9 -9 78 27 72 37 -5 8 -11 7 -21 -1 -16
-13 -18 -1 -5 20 8 12 16 12 55 -3 25 -10 46 -22 46 -27 0 -5 8 -9 18 -9 10 0
35 -9 56 -20 21 -10 63 -24 92 -30 30 -6 56 -16 59 -21 4 -5 21 -9 38 -9 52 0
79 -10 67 -25 -6 -7 -15 -39 -20 -71 -6 -33 -15 -85 -21 -116 -11 -55 -11 -57
16 -82 15 -14 33 -26 40 -26 7 0 18 44 30 113 10 61 20 124 23 139 2 16 0 28
-6 28 -15 0 -28 -50 -43 -158 -7 -58 -16 -91 -23 -89 -18 6 -17 45 2 157 l18
104 40 3 c58 4 65 -1 49 -34 -7 -15 -21 -77 -29 -138 -9 -60 -18 -119 -20
-130 -3 -11 -5 -26 -5 -32 -1 -17 -42 -17 -64 -1 -9 7 -70 87 -136 178 -124
172 -143 192 -162 173 -9 -9 2 -30 44 -85 30 -40 68 -86 83 -103 15 -16 27
-32 27 -35 -1 -8 33 -53 67 -87 30 -31 31 -33 11 -33 -40 0 -58 18 -161 160
-57 77 -107 143 -112 146 -10 6 -38 -14 -38 -27 0 -5 8 -9 19 -9 10 0 26 -11
35 -25 20 -31 10 -33 -15 -3 -28 32 -22 8 6 -27 16 -19 25 -25 25 -15 1 9 12
2 30 -20 17 -19 30 -39 30 -45 0 -5 -9 1 -20 15 -11 14 -20 21 -20 17 0 -5 21
-35 46 -68 25 -33 44 -62 41 -65 -14 -15 -61 29 -130 122 -43 57 -82 104 -86
104 -5 0 -20 -10 -35 -21 -19 -15 -24 -25 -17 -32 7 -7 15 -6 26 3 19 16 32 6
71 -53 55 -83 96 -128 134 -147 38 -19 70 -18 70 2 0 6 6 5 15 -2 8 -7 15 -18
15 -26 0 -17 68 -30 83 -15 15 15 30 14 24 -3 -6 -16 20 -26 71 -26 42 0 45 8
76 203 13 87 27 161 29 164 11 11 87 15 87 5 0 -6 -4 -13 -9 -16 -8 -6 -19
-55 -47 -211 -8 -50 -19 -97 -24 -105 -22 -36 -21 12 5 147 15 82 28 152 29
157 0 5 -4 10 -10 13 -8 2 -22 -53 -43 -159 -41 -217 -42 -208 17 -207 26 0
41 3 35 6 -9 3 -10 10 -4 21 5 9 21 91 36 182 15 91 28 167 30 169 3 2 48 5
101 7 54 2 113 8 132 14 19 5 39 7 43 4 5 -3 17 0 27 5 11 6 44 15 73 20 53 9
93 21 156 48 17 7 35 13 41 13 18 0 199 104 290 167 52 35 96 62 99 59 3 -3 1
-25 -5 -48 -9 -35 -11 -37 -8 -10 3 33 -5 41 -21 20 -9 -11 -62 -264 -79 -373
-10 -65 -14 -75 -43 -89 -24 -13 -61 -9 -376 44 -289 49 -352 57 -363 46 -11
-11 -7 -13 25 -14 21 0 130 -16 243 -36 113 -20 249 -44 303 -53 53 -9 97 -19
97 -23 0 -4 -19 -12 -42 -18 -36 -9 -83 -4 -313 34 -148 24 -280 46 -292 49
-21 5 -53 -16 -53 -35 0 -4 17 -6 38 -4 20 3 161 -17 317 -44 184 -32 284 -46
292 -40 7 5 16 7 22 4 5 -3 11 1 15 9 3 8 15 15 26 15 11 0 20 5 20 11 0 6 6
9 14 6 8 -3 26 3 39 14 15 11 33 17 44 13 11 -4 14 -3 6 3 -8 6 -9 14 -3 23 6
8 10 26 11 40 2 23 2 23 6 3 2 -12 11 -27 19 -34 22 -18 61 7 70 45 26 118 89
508 83 512 -19 11 -38 -67 -96 -396 -14 -83 -34 -134 -46 -119 -2 2 4 47 15
99 41 210 64 360 55 369 -5 5 10 23 35 41 24 19 51 43 61 54 18 21 18 20 12
-24 -9 -61 -62 -363 -75 -422 -12 -60 -5 -78 30 -78 36 0 44 12 60 87 12 58
14 62 36 57 13 -3 35 -7 48 -8 18 -1 22 -4 14 -13 -6 -8 -6 -13 -1 -13 16 0
63 55 63 73 0 16 -2 16 -31 1 -24 -12 -45 -14 -85 -9 l-53 6 -16 -37 c-8 -20
-15 -47 -15 -59 0 -12 -7 -28 -15 -35 -20 -16 -20 0 0 88 26 119 67 393 61
409 -4 9 9 33 32 62 22 25 58 74 82 109 23 34 52 67 64 73 49 25 204 134 195
138 -6 2 -50 -24 -99 -58 -49 -34 -91 -61 -94 -61 -4 0 8 29 26 65 23 44 38
63 48 60 8 -3 21 -1 28 4 10 6 9 10 -7 14 -12 3 -21 13 -21 24 0 30 18 42 53
33 18 -4 99 -18 181 -31 145 -23 148 -23 162 -4 18 24 18 35 -1 35 -8 0 -15
-7 -15 -15 0 -20 1 -20 -187 11 -155 26 -163 28 -163 50 0 13 5 26 10 29 6 4
7 11 4 17 -4 6 1 8 12 4 19 -5 237 -49 307 -61 42 -7 67 6 67 35 0 10 -63 105
-141 212 -146 201 -169 230 -169 211 0 -6 63 -98 140 -204 128 -176 156 -228
125 -230 -5 -1 -81 11 -167 27 l-158 28 0 34 c0 28 3 32 18 28 12 -4 26 1 37
14 l19 21 34 -37 c44 -48 53 -36 12 16 -34 43 -50 49 -70 25 -19 -23 -26 -18
-27 20 -1 19 3 35 7 35 5 0 10 19 12 43 l3 42 84 -117 c73 -102 101 -133 101
-113 0 5 -77 113 -139 195 -18 25 -40 44 -47 42 -15 -3 -18 7 -8 32 5 12 23
-7 70 -71 34 -48 81 -114 104 -145 23 -32 46 -58 51 -58 12 0 9 5 -66 108 -33
46 -67 93 -75 105 -8 12 -26 38 -41 58 -23 29 -29 50 -35 115 -4 52 -3 76 4
69 5 -5 69 -93 142 -195 149 -207 169 -232 184 -227 15 5 24 49 14 69 -5 11
-2 27 9 47 24 41 9 51 -23 16 -22 -24 -24 -32 -15 -47 13 -21 15 -58 3 -58 -5
0 -31 33 -58 72 -27 40 -81 116 -119 168 -143 193 -146 198 -147 308 0 29 -5
55 -9 58 -5 3 -9 13 -9 22 0 10 -9 35 -20 57 -19 38 -26 65 -14 52 4 -4 19 2
34 13 16 11 33 20 39 20 6 0 11 4 11 9 0 21 -19 19 -50 -4 l-33 -25 -24 32
c-27 37 -27 36 -10 34 14 -1 126 66 127 77 0 14 -22 6 -67 -25 -45 -30 -47
-31 -75 -15 -15 9 -28 14 -28 11 0 -3 11 -39 25 -82 70 -222 90 -431 61 -649
-19 -146 -32 -198 -79 -319 -133 -344 -361 -596 -683 -757 -116 -58 -211 -90
-359 -123 -111 -24 -133 -25 -300 -21 -196 5 -272 18 -440 77 -252 89 -463
236 -624 435 -403 495 -416 1226 -31 1736 43 57 74 106 69 107 -6 3 -6 8 -1
15 6 7 56 102 113 212 56 110 131 254 166 320 35 65 62 124 60 129 -2 6 -10
-1 -19 -14z m-328 -674 c0 -3 -4 -8 -10 -11 -5 -3 -10 -1 -10 4 0 6 5 11 10
11 6 0 10 -2 10 -4z m-389 -880 c-6 -24 -34 -88 -62 -143 -91 -172 -189 -372
-189 -383 0 -18 -20 -11 -20 8 -1 18 272 573 279 566 2 -2 -1 -23 -8 -48z m31
-311 c-3 -22 -40 -111 -83 -197 -44 -87 -79 -162 -79 -167 0 -14 -43 -80 -52
-81 -19 -1 -1 45 102 250 117 233 136 314 26 108 -36 -68 -66 -120 -66 -115 0
4 32 71 72 150 62 122 73 139 79 117 4 -14 4 -43 1 -65z m67 -231 c8 -27 -3
-54 -87 -223 -68 -137 -98 -189 -106 -181 -7 7 13 58 72 175 102 203 117 238
101 233 -7 -2 -45 -66 -84 -141 -100 -193 -103 -183 -4 15 46 92 87 164 91
160 5 -5 12 -22 17 -38z m-244 -34 c-14 -27 -27 -50 -30 -50 -6 0 15 48 33 78
25 39 23 24 -3 -28z m288 -62 c9 -18 12 -35 8 -38 -5 -3 -47 -85 -95 -183 -48
-98 -91 -175 -96 -172 -19 12 -25 -3 104 253 71 141 71 142 57 142 -6 0 -24
-27 -42 -60 -18 -33 -33 -59 -35 -57 -5 5 69 147 77 147 4 0 14 -15 22 -32z
m-332 -21 c-10 -9 -11 -8 -5 6 3 10 9 15 12 12 3 -3 0 -11 -7 -18z m2543 -718
c-10 -54 -20 -97 -22 -94 -3 2 3 53 13 112 11 58 21 101 23 94 2 -7 -4 -58
-14 -112z m-29 -166 c-9 -50 -17 -34 -9 18 4 24 9 38 12 31 2 -7 1 -29 -3 -49z"/>
<path d="M1006 3653 c-414 -310 -683 -764 -761 -1281 -18 -120 -21 -412 -5
-520 31 -218 94 -421 191 -617 73 -147 103 -195 115 -182 4 4 0 15 -9 25 -9
10 -27 42 -41 73 -13 30 -31 61 -40 68 -9 7 -16 17 -16 22 0 4 -13 37 -30 72
-16 36 -30 70 -30 75 0 6 -10 32 -22 59 -12 26 -23 59 -24 73 -1 14 -16 77
-32 140 -16 63 -33 158 -37 210 -4 52 -10 114 -15 137 -4 24 -3 46 2 51 6 6 5
17 -3 29 -7 12 -9 28 -4 39 4 11 9 42 12 69 19 233 54 396 124 574 55 142 142
307 182 345 9 10 17 22 17 28 0 12 106 145 176 221 24 27 44 53 44 58 0 5 6 9
14 9 8 0 24 12 35 28 52 67 85 102 102 107 10 3 21 14 24 24 4 13 12 17 25 14
15 -4 20 0 20 15 0 21 65 82 87 82 7 0 13 5 13 10 0 22 -29 7 -114 -57z"/>
<path d="M1624 3649 c-101 -198 -136 -271 -132 -275 5 -5 70 114 136 250 52
107 49 128 -4 25z"/>
<path d="M1515 3618 c-21 -40 -64 -124 -97 -186 -33 -63 -58 -121 -56 -129 2
-9 47 73 102 181 54 108 96 199 93 202 -2 3 -22 -28 -42 -68z"/>
<path d="M2906 3633 c-14 -71 -7 -178 8 -132 4 12 14 84 16 114 0 6 16 -7 36
-29 19 -21 38 -36 41 -33 6 7 -76 107 -88 107 -4 0 -10 -12 -13 -27z"/>
<path d="M3320 3650 c0 -6 7 -10 15 -10 8 0 15 2 15 4 0 2 -7 6 -15 10 -8 3
-15 1 -15 -4z"/>
<path d="M3057 3628 c5 -7 38 -53 73 -103 35 -49 65 -92 67 -94 2 -2 6 -1 10
2 3 4 -19 39 -49 79 -30 40 -62 85 -71 101 -10 15 -22 27 -28 27 -8 0 -8 -4
-2 -12z"/>
<path d="M1365 3530 c-15 -30 -59 -115 -96 -188 -63 -120 -84 -172 -60 -147
20 22 192 367 188 378 -2 7 -16 -13 -32 -43z"/>
<path d="M2797 3495 c-40 -81 -41 -85 -29 -85 5 0 21 23 36 50 15 28 30 50 33
50 3 0 2 -20 -1 -44 -8 -50 8 -72 18 -25 11 56 7 129 -7 129 -7 0 -29 -34 -50
-75z"/>
<path d="M2947 3445 c-48 -42 -87 -78 -87 -80 0 -16 28 3 96 62 68 59 78 65
96 54 11 -7 22 -10 26 -7 5 6 -27 46 -37 46 -3 0 -46 -34 -94 -75z"/>
<path d="M3256 3479 c-6 -37 -16 -99 -22 -139 -3 -14 -7 -37 -10 -52 -6 -31
11 -39 20 -10 16 53 36 216 27 225 -6 6 -11 -3 -15 -24z"/>
<path d="M2040 3445 c-8 -2 -49 -9 -90 -15 -67 -11 -173 -38 -270 -70 -53 -17
-204 -97 -279 -147 -271 -181 -484 -481 -558 -788 -37 -152 -50 -458 -23 -530
5 -14 10 -41 10 -60 0 -18 9 -55 20 -80 11 -26 20 -52 19 -59 -3 -25 2 -36 15
-36 9 0 15 -16 19 -47 3 -26 11 -52 18 -58 19 -15 41 -54 35 -63 -3 -5 -1 -14
5 -22 6 -10 9 -11 9 -2 0 6 5 12 10 12 6 0 10 -7 10 -15 0 -33 25 -95 37 -91
6 3 23 -15 37 -39 14 -24 37 -52 51 -63 14 -11 25 -23 25 -27 0 -9 68 -75 78
-75 4 0 15 -8 24 -17 115 -127 402 -292 583 -337 183 -45 355 -57 511 -35 86
12 257 55 346 88 104 38 232 109 251 138 4 7 16 13 26 13 18 0 52 30 35 30 -5
1 3 6 18 13 57 25 234 194 262 249 9 18 32 53 51 78 18 25 34 49 34 54 1 5 7
17 15 25 8 9 31 57 51 106 21 50 41 99 46 110 5 11 18 67 30 125 27 127 32
377 10 510 -21 131 -65 291 -87 320 -6 8 -15 26 -19 39 -10 32 -68 130 -110
185 -19 26 -35 50 -35 54 0 21 -226 228 -315 287 -94 63 -289 165 -314 165 -6
0 -39 9 -72 20 -105 36 -210 52 -359 55 -80 2 -152 2 -160 0z m310 -29 c185
-23 370 -92 543 -203 37 -24 72 -43 78 -43 6 0 32 -21 59 -47 27 -27 63 -58
80 -71 16 -13 30 -28 30 -33 0 -5 9 -20 21 -32 102 -108 224 -320 272 -473 50
-159 61 -236 62 -434 0 -189 -7 -242 -47 -370 -22 -72 -41 -120 -65 -165 -23
-43 -53 -80 -53 -65 0 7 -7 10 -15 6 -19 -7 -19 -1 4 43 23 44 45 109 61 177
8 39 9 72 0 134 -18 129 -41 191 -118 309 -28 43 -36 65 -39 112 -4 86 -63
293 -88 311 -21 16 -23 6 -9 -39 27 -82 64 -237 64 -265 0 -19 -5 -28 -16 -28
-9 0 -12 -5 -8 -12 4 -7 -16 9 -44 36 -28 27 -49 53 -46 58 3 4 -1 8 -8 8 -7
0 -30 20 -51 45 -21 25 -43 45 -49 45 -6 0 0 -9 13 -21 13 -11 5 -8 -18 8 -23
15 -41 32 -40 38 1 5 -8 10 -19 11 -27 2 -46 13 -39 24 3 5 0 12 -6 16 -8 4
-9 3 -5 -4 9 -15 1 -15 -25 -1 -11 5 -16 15 -13 21 4 7 3 8 -4 4 -13 -8 -52
10 -67 31 -6 8 -20 15 -33 16 -12 0 -22 5 -22 10 0 4 -4 6 -9 3 -7 -5 -94 24
-166 54 -11 5 -51 14 -88 21 -49 8 -65 14 -55 21 9 7 4 8 -14 4 -15 -4 -53 -3
-85 1 -56 7 -57 8 -23 15 28 5 24 6 -18 4 -32 -2 -48 0 -40 5 7 5 -45 8 -119
6 -114 -2 -133 0 -142 15 -15 24 0 31 63 30 74 -1 196 -11 206 -17 5 -3 19 5
31 17 l21 23 -7 -22 c-8 -28 19 -33 28 -5 3 9 53 107 111 217 58 110 112 215
121 233 19 44 56 95 63 88 3 -3 -2 -14 -10 -23 -9 -10 -19 -29 -23 -43 -4 -14
-15 -36 -24 -50 -9 -14 -61 -115 -116 -225 -54 -110 -103 -201 -107 -203 -17
-7 -7 -23 13 -20 16 2 41 41 102 158 44 85 87 170 96 188 8 17 19 32 25 32 19
0 163 -85 234 -137 179 -135 336 -390 367 -598 5 -28 17 -57 32 -73 20 -22 24
-23 18 -7 -3 11 -13 49 -20 85 -42 194 -132 364 -272 511 -40 42 -71 78 -68
81 3 3 -5 13 -17 24 -18 15 -20 16 -9 2 7 -10 9 -18 3 -18 -13 0 -33 25 -26
33 6 6 -102 80 -163 111 -17 9 -40 13 -50 10 -13 -4 -15 -3 -5 4 11 7 11 10
-2 15 -26 10 -18 26 17 36 17 5 24 10 14 10 -14 1 -15 4 -5 20 7 11 15 18 19
15 4 -2 5 4 2 15 -3 10 0 22 6 25 6 4 11 2 11 -3 0 -6 4 -11 10 -11 5 0 31
-14 57 -30 26 -17 54 -28 64 -25 24 8 36 -15 15 -31 -10 -7 -13 -15 -7 -18 5
-4 12 -2 15 3 7 10 72 -1 103 -17 28 -15 33 -15 33 2 0 8 -12 24 -26 35 -15
12 -21 21 -13 21 28 0 -28 40 -125 89 -59 30 -113 51 -132 51 -18 0 -39 7 -48
15 -8 8 -26 15 -41 15 -14 0 -36 5 -48 12 -12 6 -38 11 -58 9 -21 -1 -40 2
-43 8 -4 5 -22 7 -41 4 -20 -3 -41 -1 -49 6 -9 8 -21 8 -39 2 -14 -5 -28 -7
-31 -4 -3 3 -12 0 -21 -7 -12 -10 -15 -10 -15 4 0 19 1 19 -38 5 -20 -7 -37
-7 -48 -1 -12 7 -28 5 -52 -5 -19 -8 -45 -12 -58 -9 -14 4 -40 -3 -70 -19 -52
-28 -58 -30 -49 -15 9 15 -27 11 -49 -5 -11 -8 -31 -15 -44 -15 -13 0 -49 -14
-79 -30 -30 -17 -59 -28 -64 -25 -5 4 -26 -7 -46 -22 -54 -40 -65 -52 -59 -62
3 -4 -9 -7 -26 -5 -22 3 -39 -2 -55 -18 -13 -12 -26 -18 -30 -15 -3 4 2 14 13
23 18 14 18 15 -6 9 l-25 -6 25 22 c34 29 112 67 128 62 7 -3 10 1 6 10 -6 18
21 30 49 21 13 -4 17 -2 13 5 -7 11 4 15 37 12 9 -1 17 4 17 13 0 11 18 19 60
28 33 6 60 16 60 20 0 4 11 8 24 8 12 0 37 5 54 11 105 36 314 47 492 25z
m-125 -106 c-9 -16 -18 -30 -21 -30 -2 0 2 14 11 30 9 17 18 30 21 30 2 0 -2
-13 -11 -30z m-151 -4 c-3 -9 -10 -16 -15 -16 -5 0 -4 9 3 20 14 22 21 20 12
-4z m47 1 c-10 -9 -11 -8 -5 6 3 10 9 15 12 12 3 -3 0 -11 -7 -18z m200 0
c-10 -9 -11 -8 -5 6 3 10 9 15 12 12 3 -3 0 -11 -7 -18z m-141 9 c0 -3 -4 -8
-10 -11 -5 -3 -10 -1 -10 4 0 6 5 11 10 11 6 0 10 -2 10 -4z m93 -11 c-3 -9
-8 -14 -10 -11 -3 3 -2 9 2 15 9 16 15 13 8 -4z m-308 -29 c-10 -14 -21 -26
-26 -26 -5 0 0 13 12 30 27 36 38 33 14 -4z m399 19 c-4 -8 -11 -15 -16 -15
-6 0 -5 6 2 15 7 8 14 15 16 15 2 0 1 -7 -2 -15z m41 -24 c-21 -43 -29 -39 -8
4 9 19 18 33 21 31 2 -2 -4 -18 -13 -35z m-604 -13 c-11 -18 -21 -29 -21 -25
0 13 33 67 38 62 3 -2 -5 -19 -17 -37z m110 19 c-10 -9 -11 -8 -5 6 3 10 9 15
12 12 3 -3 0 -11 -7 -18z m-55 -27 c-14 -30 -14 -31 2 -25 9 5 26 8 37 8 11 0
38 4 60 9 53 13 145 18 145 8 0 -11 -112 -47 -174 -55 -27 -4 -58 -11 -70 -16
-17 -7 -16 -8 9 -4 17 3 55 8 85 10 30 3 59 10 64 15 6 6 18 10 28 10 17 0 16
-3 -4 -52 -11 -29 -23 -64 -26 -78 -2 -14 -8 -29 -12 -35 -4 -5 -13 -31 -20
-57 -7 -27 -17 -48 -22 -48 -5 0 -7 -4 -4 -8 8 -13 -21 -97 -33 -95 -5 2 -8
-3 -5 -11 8 -20 -47 -177 -69 -199 -13 -13 -16 -22 -8 -26 8 -6 8 -16 0 -40
-9 -24 -14 -29 -20 -19 -7 10 -10 8 -15 -9 -4 -13 -11 -23 -16 -23 -5 0 -7 -4
-3 -9 3 -5 1 -12 -5 -16 -5 -3 -10 -16 -10 -29 0 -12 -8 -40 -19 -62 -10 -21
-21 -56 -24 -78 -6 -35 -5 -37 8 -20 17 23 18 17 4 -24 -6 -19 -15 -29 -22
-25 -7 4 -8 0 -3 -12 4 -11 0 -26 -11 -38 -10 -11 -12 -17 -5 -13 17 10 16 6
-18 -91 -44 -124 -39 -163 21 -163 15 0 31 -5 35 -11 4 -7 22 -9 45 -6 25 3
42 0 49 -8 16 -20 -13 -32 -82 -34 -45 -2 -58 1 -58 12 0 8 -11 25 -25 38 -13
13 -25 29 -25 35 0 7 -9 14 -20 17 -27 7 -35 6 -33 -3 1 -4 -14 -6 -34 -4 -25
2 -41 -3 -50 -14 -11 -16 -12 -16 -13 1 0 19 -26 24 -32 6 -2 -6 -22 -13 -44
-15 -39 -4 -41 -2 -36 21 2 13 13 27 23 30 20 7 26 25 9 25 -5 0 -10 7 -10 16
0 10 -6 14 -14 11 -11 -5 -12 1 -4 29 16 59 2 62 -17 4 -10 -30 -22 -60 -27
-66 -5 -8 -3 -18 7 -28 15 -15 14 -16 -9 -16 -16 0 -30 -8 -37 -22 -12 -22
-12 -22 14 -5 30 19 47 22 47 7 0 -5 -7 -10 -16 -10 -8 0 -12 -5 -8 -11 3 -6
17 -8 29 -5 13 3 27 2 30 -4 4 -6 -5 -10 -20 -10 -36 0 -27 -24 9 -27 43 -3
44 -13 3 -13 -20 0 -37 5 -37 10 0 6 -7 10 -15 10 -8 0 -15 5 -15 10 0 6 -12
10 -27 10 -22 0 -25 -2 -13 -10 8 -5 11 -10 5 -10 -34 0 -33 18 4 70 21 30 46
78 55 105 9 28 50 151 91 275 41 124 104 313 140 420 36 107 65 211 65 231 0
28 -7 44 -31 66 -30 30 -30 30 -5 28 17 -2 26 3 29 16 3 10 0 19 -6 20 -21 1
47 18 93 23 25 3 59 10 75 15 41 14 -64 5 -155 -14 -36 -7 -82 -16 -102 -19
-21 -3 -58 -11 -84 -16 -25 -6 -55 -8 -67 -4 -17 5 -19 3 -14 -17 4 -16 -1
-32 -14 -49 -20 -24 -20 -18 -3 25 3 8 1 15 -5 15 -6 0 -11 -4 -11 -10 0 -11
-62 -101 -67 -97 -1 2 8 27 22 55 14 29 25 57 25 63 0 7 8 18 18 25 14 11 15
13 2 14 -9 0 -34 -18 -55 -40 -21 -22 -44 -40 -49 -40 -15 0 54 68 93 93 24
14 36 17 39 9 5 -16 54 -15 78 2 13 10 23 11 31 4 9 -7 23 -6 45 2 18 7 53 16
78 21 25 4 72 13 105 20 33 6 73 12 89 13 21 1 33 8 40 26 16 36 27 52 33 46
3 -2 -2 -19 -11 -36z m304 30 c0 -5 -4 -10 -10 -10 -5 0 -7 -7 -4 -15 4 -8 1
-15 -5 -15 -12 0 -14 11 -5 34 7 18 24 22 24 6z m205 -198 c-54 -108 -102
-198 -107 -200 -4 -2 -8 -10 -8 -18 0 -25 -51 -114 -65 -114 -9 0 6 39 42 108
127 246 187 357 195 360 4 2 8 10 8 18 0 21 20 57 28 50 3 -4 -39 -95 -93
-204z m-305 194 c0 -3 -4 -8 -10 -11 -5 -3 -10 -1 -10 4 0 6 5 11 10 11 6 0
10 -2 10 -4z m436 -28 c-18 -26 -22 -17 -5 14 6 11 13 17 16 15 3 -3 -2 -16
-11 -29z m-753 -18 c-3 -11 -12 -20 -20 -20 -11 0 -11 4 -3 20 6 11 15 20 19
20 5 0 7 -9 4 -20z m476 -37 c-18 -32 -47 -89 -66 -128 -41 -84 -45 -92 -66
-130 -8 -16 -30 -59 -47 -95 -34 -69 -46 -87 -55 -78 -5 5 196 409 231 466 30
47 32 19 3 -35z m-575 22 c-7 -17 -20 -20 -29 -6 -3 5 3 12 12 14 10 3 19 5
20 6 1 0 0 -6 -3 -14z m486 7 c0 -5 -6 -17 -14 -27 -13 -18 -14 -18 -9 8 5 24
23 39 23 19z m177 -49 c-13 -21 -29 -54 -37 -73 -7 -19 -20 -41 -28 -47 -9 -7
-13 -16 -9 -19 4 -4 3 -12 -3 -19 -5 -6 -36 -66 -69 -133 -34 -67 -65 -122
-71 -122 -5 0 -10 3 -10 6 0 10 220 437 233 453 22 27 18 -8 -6 -46z m528 37
c3 -5 2 -10 -4 -10 -5 0 -13 5 -16 10 -3 6 -2 10 4 10 5 0 13 -4 16 -10z
m-480 -39 c-8 -17 -18 -31 -21 -31 -3 0 -3 4 0 9 3 4 10 21 16 36 6 15 13 25
16 22 3 -3 -2 -19 -11 -36z m-202 2 c-8 -23 -33 -60 -33 -50 0 11 29 67 35 67
2 0 2 -8 -2 -17z m-67 -40 c-8 -15 -15 -25 -16 -21 0 12 23 58 27 54 3 -2 -2
-17 -11 -33z m360 11 c-4 -9 -9 -15 -11 -12 -3 3 -3 13 1 22 4 9 9 15 11 12 3
-3 3 -13 -1 -22z m-215 -17 c-10 -9 -11 -8 -5 6 3 10 9 15 12 12 3 -3 0 -11
-7 -18z m69 -67 c-17 -34 -34 -60 -37 -57 -3 3 10 33 28 66 18 33 35 59 37 57
2 -2 -11 -32 -28 -66z m44 -111 c-47 -94 -87 -169 -89 -167 -5 5 164 338 171
338 2 0 -34 -77 -82 -171z m-300 9 c-42 -84 -79 -155 -81 -158 -9 -9 8 44 25
77 10 17 41 77 70 132 29 56 54 101 57 101 3 0 -29 -69 -71 -152z m566 142 c8
-5 11 -10 5 -10 -5 0 -17 5 -25 10 -8 5 -10 10 -5 10 6 0 17 -5 25 -10z
m-1125 -40 c-3 -5 -15 -10 -26 -10 -10 0 -19 5 -19 10 0 6 12 10 26 10 14 0
23 -4 19 -10z m80 1 c3 -5 1 -12 -4 -15 -13 -8 -42 4 -35 15 7 12 31 12 39 0z
m1135 -17 c0 -2 -9 0 -20 6 -11 6 -20 13 -20 16 0 2 9 0 20 -6 11 -6 20 -13
20 -16z m-518 -16 c-8 -8 -9 -4 -5 13 4 13 8 18 11 10 2 -7 -1 -18 -6 -23z
m-780 -10 c-9 -18 -20 -35 -25 -36 -4 -2 -4 -8 -1 -13 3 -6 1 -15 -4 -22 -19
-23 -80 -137 -257 -482 -80 -156 -125 -234 -93 -160 17 38 132 266 188 370 23
44 76 146 117 228 40 81 78 147 83 147 5 0 1 -15 -8 -32z m128 22 c18 -9 11
-26 -87 -218 -58 -114 -135 -265 -171 -337 -35 -71 -68 -132 -73 -133 -5 -2
-7 -7 -5 -11 3 -4 -6 -25 -19 -46 -13 -22 -33 -59 -44 -82 -18 -36 -41 -64
-41 -50 0 5 139 280 317 627 52 102 99 189 104 195 15 15 10 45 -7 45 -8 0
-12 5 -9 10 8 12 12 12 35 0z m-80 -4 c0 -3 -4 -8 -10 -11 -5 -3 -10 -1 -10 4
0 6 5 11 10 11 6 0 10 -2 10 -4z m1310 -33 c0 -7 -39 17 -46 28 -3 6 5 3 20
-6 14 -10 26 -19 26 -22z m-1597 -42 c-32 -38 -64 -72 -71 -75 -19 -8 -6 10
57 82 74 85 86 79 14 -7z m48 -32 c-27 -52 -109 -215 -183 -362 -100 -201
-134 -261 -136 -242 -4 28 -1 33 98 220 109 207 120 229 115 234 -12 11 -49
-53 -150 -256 -19 -40 -38 -73 -41 -73 -32 0 167 391 235 462 20 20 51 55 70
78 18 22 35 39 37 37 2 -2 -18 -46 -45 -98z m399 85 c0 -8 -4 -12 -10 -9 -5 3
-10 10 -10 16 0 5 5 9 10 9 6 0 10 -7 10 -16z m-129 -17 c-10 -9 -11 -8 -5 6
3 10 9 15 12 12 3 -3 0 -11 -7 -18z m629 -107 c-33 -66 -62 -120 -65 -120 -3
0 22 54 55 120 33 66 62 120 65 120 3 0 -22 -54 -55 -120z m-520 49 c-7 -16
-17 -29 -22 -29 -5 0 -8 3 -6 8 3 4 11 22 19 40 7 18 15 28 17 22 2 -6 -1 -24
-8 -41z m-316 -69 c-26 -50 -51 -93 -56 -96 -15 -9 4 49 25 77 10 15 17 35 15
45 -3 15 -7 13 -22 -14 -9 -19 -20 -32 -22 -29 -12 11 27 66 48 69 13 2 22 9
20 16 -1 8 2 11 7 8 5 -3 12 1 15 10 4 9 9 14 12 11 3 -3 -16 -46 -42 -97z
m961 68 c-31 -74 -88 -182 -91 -173 -2 6 19 54 47 108 50 96 70 127 44 65z
m-974 -1 c-10 -9 -11 -8 -5 6 3 10 9 15 12 12 3 -3 0 -11 -7 -18z m143 -2 c-7
-16 -24 -21 -24 -6 0 8 7 13 27 20 1 1 0 -6 -3 -14z m166 -40 c0 -8 -158 -317
-249 -490 -44 -82 -87 -167 -97 -187 -9 -21 -20 -38 -25 -38 -12 0 -16 -8 292
598 34 67 66 122 71 122 4 0 8 -2 8 -5z m-244 -117 c-29 -57 -60 -116 -69
-133 -9 -16 -32 -61 -51 -100 -68 -142 -129 -255 -137 -255 -5 0 4 26 20 58
57 118 248 493 267 524 3 4 9 8 14 8 4 0 -15 -46 -44 -102z m-266 52 c0 -5 -5
-10 -11 -10 -5 0 -7 5 -4 10 3 6 8 10 11 10 2 0 4 -4 4 -10z m142 -12 c-7 -7
-12 -8 -12 -2 0 14 12 26 19 19 2 -3 -1 -11 -7 -17z m-97 -189 c-47 -90 -91
-174 -97 -186 -6 -13 -13 -21 -15 -19 -5 5 19 54 119 244 39 73 72 131 74 129
3 -3 -34 -78 -81 -168z m248 116 c-3 -9 -8 -14 -10 -11 -3 3 -2 9 2 15 9 16
15 13 8 -4z m-164 -27 c-7 -12 -13 -27 -14 -33 0 -5 -8 -23 -17 -40 -9 -16
-77 -151 -152 -300 -82 -163 -136 -260 -136 -245 0 14 8 41 19 60 10 19 70
136 133 260 163 316 170 331 175 326 3 -2 -1 -15 -8 -28z m314 -59 c-10 -24
-26 -53 -37 -64 l-18 -20 10 20 c5 11 19 42 31 68 27 60 37 57 14 -4z m-190 6
c-3 -9 -8 -14 -10 -11 -3 3 -2 9 2 15 9 16 15 13 8 -4z m962 -15 c394 -73 674
-220 863 -454 106 -130 149 -227 159 -357 6 -82 -2 -143 -17 -120 -6 10 -9 8
-15 -8 -3 -11 -10 -21 -14 -21 -4 0 -13 -11 -19 -25 -9 -19 -9 -25 0 -25 6 0
9 -2 7 -5 -8 -8 -49 7 -43 16 6 10 -9 12 -19 3 -8 -9 12 -46 21 -40 4 2 8 -4
8 -14 0 -28 -7 -19 -66 81 -54 92 -154 209 -178 209 -17 0 -15 -15 4 -31 25
-21 107 -130 101 -135 -2 -3 -21 18 -41 45 -145 197 -428 347 -735 391 -40 6
-77 13 -82 16 -5 3 -100 7 -212 10 -111 3 -212 7 -224 10 -26 5 -30 29 -9 41
8 4 14 10 14 13 -1 3 30 99 67 214 l69 209 150 -6 c83 -3 178 -11 211 -17z
m-994 -43 c-10 -9 -11 -8 -5 6 3 10 9 15 12 12 3 -3 0 -11 -7 -18z m-20 -44
c-12 -20 -14 -14 -5 12 4 9 9 14 11 11 3 -2 0 -13 -6 -23z m73 -229 c-143
-282 -214 -414 -220 -414 -3 0 48 105 114 233 66 127 141 274 166 326 26 51
49 91 52 88 3 -3 -47 -108 -112 -233z m-103 173 c-10 -9 -11 -8 -5 6 3 10 9
15 12 12 3 -3 0 -11 -7 -18z m-353 -88 c-8 -52 -36 -140 -38 -116 0 9 29 144
35 165 10 30 11 7 3 -49z m323 28 c-10 -9 -11 -8 -5 6 3 10 9 15 12 12 3 -3 0
-11 -7 -18z m580 -48 c-9 -22 -10 -22 -10 -3 -1 11 2 24 6 27 12 12 14 0 4
-24z m-798 -4 c-3 -9 -8 -14 -10 -11 -3 3 -2 9 2 15 9 16 15 13 8 -4z m427
-10 c0 -5 -37 -84 -57 -120 -6 -11 -22 -41 -34 -67 -13 -27 -28 -48 -32 -48
-5 0 -7 3 -4 8 2 4 27 58 57 120 30 61 57 112 62 112 4 0 8 -2 8 -5z m-265
-44 c-21 -43 -29 -39 -8 4 9 19 18 33 21 31 2 -2 -4 -18 -13 -35z m-208 -28
c-2 -5 -16 -34 -31 -66 -15 -33 -30 -57 -32 -54 -6 6 53 127 62 127 3 0 3 -3
1 -7z m171 -48 c-6 -14 -13 -23 -15 -21 -5 5 15 46 22 46 3 0 -1 -11 -7 -25z
m-106 -17 c-7 -7 -12 -8 -12 -2 0 14 12 26 19 19 2 -3 -1 -11 -7 -17z m48 2
c-6 -11 -9 -20 -6 -20 3 0 -16 -39 -41 -87 -25 -49 -61 -119 -81 -158 -20 -38
-37 -64 -40 -57 -3 11 31 84 120 252 49 92 48 90 54 90 3 0 0 -9 -6 -20z m-84
-72 c-14 -24 -26 -39 -26 -35 0 15 41 89 47 84 3 -3 -7 -25 -21 -49z m2257
-20 c44 -71 79 -139 73 -145 -2 -3 -14 15 -26 39 -27 54 -39 75 -67 115 -13
17 -23 34 -23 37 0 15 12 2 43 -46z m-2383 -28 c0 -16 -4 -31 -9 -34 -5 -3 -8
12 -7 33 1 45 16 45 16 1z m907 -63 c-23 -48 -45 -87 -48 -87 -6 0 -3 11 30
98 7 17 17 32 22 32 5 0 9 11 9 23 0 27 10 41 21 30 5 -5 -11 -47 -34 -96z
m152 96 c0 -5 -13 -30 -29 -58 -16 -27 -42 -78 -59 -112 -16 -35 -35 -63 -41
-63 -7 0 -10 3 -8 8 10 23 105 210 112 220 8 13 26 16 25 5z m101 2 c0 -3 -13
-26 -29 -52 -15 -27 -45 -85 -66 -130 -21 -45 -42 -80 -46 -77 -9 5 4 34 74
172 26 50 52 92 57 92 6 0 10 -2 10 -5z m-216 -119 c-31 -59 -58 -105 -61
-102 -3 3 20 53 52 111 31 59 59 105 61 102 2 -2 -21 -52 -52 -111z m147 91
c-10 -9 -11 -8 -5 6 3 10 9 15 12 12 3 -3 0 -11 -7 -18z m280 -2 c161 -20 270
-45 244 -56 -15 -7 -12 -8 11 -4 17 3 53 -1 80 -11 81 -27 232 -104 287 -147
62 -48 147 -128 147 -139 0 -8 10 -20 55 -71 12 -14 25 -31 27 -39 7 -18 -14
-68 -38 -93 -11 -10 -19 -22 -19 -27 0 -5 -5 -12 -11 -16 -6 -4 -13 -15 -17
-25 -4 -9 -12 -16 -19 -15 -7 2 -13 -4 -13 -13 0 -21 -25 -50 -36 -43 -5 3 -9
2 -8 -3 4 -16 -13 -43 -27 -43 -8 0 -14 -4 -14 -10 0 -5 -6 -10 -12 -10 -7 0
-24 -14 -37 -30 -13 -17 -33 -30 -45 -30 -15 0 -17 -3 -8 -9 10 -6 6 -13 -15
-26 -24 -16 -26 -16 -14 -2 7 9 10 17 5 17 -13 -1 -89 -60 -77 -60 6 0 16 7
23 15 7 8 17 15 22 15 18 0 -4 -21 -45 -42 -33 -16 -39 -17 -28 -4 12 14 12
16 -3 10 -9 -3 -16 -12 -16 -19 0 -13 -79 -50 -88 -41 -3 3 -10 -1 -17 -10 -6
-9 -27 -17 -46 -19 -64 -5 -65 -6 -44 -15 37 -16 87 -10 146 16 59 27 82 27
60 0 -8 -10 -9 -21 -1 -40 14 -38 13 -41 -7 -17 l-18 20 -42 -20 c-41 -19 -46
-19 -105 -4 -35 9 -83 23 -107 31 -68 23 -241 18 -257 -7 -3 -5 -15 -9 -27 -9
-13 0 -30 -9 -40 -20 -10 -12 -22 -18 -27 -15 -6 3 -10 2 -10 -3 0 -6 -10 -8
-22 -4 -14 3 -19 1 -14 -6 12 -19 -70 -9 -134 15 -8 4 -20 5 -26 4 -13 -2 -47
46 -42 59 2 5 28 -2 58 -15 77 -33 120 -39 161 -22 l34 14 -56 -1 c-31 0 -63
5 -71 12 -8 6 -17 10 -20 7 -3 -3 -26 4 -52 15 -26 11 -55 20 -65 20 -29 0
-158 67 -165 86 -13 34 11 35 80 0 89 -45 177 -74 289 -95 88 -17 92 -17 135
2 57 25 163 33 239 18 54 -11 64 -10 132 15 206 74 386 202 495 354 58 81 73
112 55 118 -10 3 -8 9 10 23 l24 18 -23 21 c-12 11 -29 38 -38 58 -13 31 -17
34 -25 20 -9 -16 -65 -35 -75 -25 -3 3 1 15 8 27 11 18 11 23 -6 36 -11 8 -14
14 -8 14 7 0 12 9 12 20 0 11 -5 20 -12 20 -6 0 -19 7 -28 15 -12 11 -24 12
-45 6 -17 -5 -24 -10 -17 -10 6 -1 12 -8 12 -16 0 -8 7 -15 15 -15 8 0 15 -4
15 -10 0 -5 -7 -10 -15 -10 -8 0 -15 4 -15 9 0 10 -34 23 -67 26 -16 1 -23 -3
-23 -16 0 -12 5 -16 15 -13 24 10 18 -11 -14 -45 -17 -18 -31 -48 -36 -73 -4
-24 -10 -35 -12 -25 -10 38 -23 2 -24 -66 -2 -71 -2 -71 -10 28 -6 70 -13 103
-23 111 -23 16 -8 24 47 24 l49 0 -15 24 c-15 22 -15 25 1 31 28 10 -5 23 -47
18 -32 -4 -38 -1 -54 27 -15 25 -22 29 -33 19 -7 -6 -11 -15 -8 -20 3 -5 0 -9
-6 -9 -6 0 -9 -4 -5 -10 3 -5 13 -6 23 -3 14 5 15 3 5 -8 -7 -7 -13 -24 -13
-37 0 -19 -4 -23 -19 -19 -23 6 -59 -27 -42 -38 6 -3 11 -13 11 -21 0 -20 -40
-18 -56 3 -14 20 -31 12 -18 -9 12 -19 14 -38 3 -38 -5 0 -14 11 -19 25 -10
26 -36 43 -47 31 -4 -4 3 -27 16 -52 23 -48 23 -66 1 -39 -11 13 -15 12 -37
-5 -14 -11 -32 -20 -40 -20 -8 0 -12 -4 -9 -9 10 -15 -5 -42 -22 -39 -10 2
-18 -5 -20 -17 -2 -11 -8 -30 -15 -43 -9 -19 -8 -25 3 -33 12 -8 11 -9 -4 -7
-25 4 -46 -50 -25 -63 10 -6 8 -9 -8 -9 -13 0 -23 3 -23 8 0 9 36 105 60 157
30 68 32 83 15 107 -15 21 -16 22 -14 3 4 -26 -5 -50 -57 -162 -24 -52 -44
-98 -44 -103 0 -5 -5 -12 -12 -16 -8 -5 -9 -2 -4 12 12 29 18 57 20 81 0 11 4
19 8 17 10 -6 20 34 12 47 -4 8 -3 9 4 5 18 -11 14 10 -5 30 -17 17 -17 18 0
11 14 -5 16 -2 11 17 -4 17 0 25 12 30 14 5 15 9 6 15 -11 6 -11 13 -1 35 10
20 10 35 2 56 -8 21 -8 30 1 34 6 2 2 5 -9 5 -11 1 -28 10 -38 21 -9 11 -24
20 -32 20 -8 0 -15 5 -15 10 0 6 6 10 14 10 8 0 16 7 20 15 3 8 15 15 27 15
14 0 19 5 16 14 -3 7 0 19 6 25 9 9 6 13 -11 17 -12 4 -22 10 -22 15 0 5 -7 6
-15 2 -9 -3 -15 -15 -13 -27 3 -18 -1 -21 -25 -18 -19 2 -26 -1 -22 -8 3 -6
11 -8 16 -5 5 4 9 0 9 -8 0 -9 -9 -12 -30 -9 -16 2 -28 8 -25 12 8 13 -13 22
-36 15 -19 -6 -20 -8 -3 -26 9 -10 15 -19 11 -19 -3 0 -12 -3 -21 -6 -11 -4
-16 -1 -16 10 0 9 -5 16 -10 16 -8 0 4 27 27 59 1 2 9 -2 17 -8 10 -8 16 -9
21 -1 3 5 -1 10 -9 10 -9 0 -16 5 -16 12 0 20 -38 -23 -65 -73 -14 -27 -25
-50 -25 -53 0 -2 19 -2 43 -1 28 2 48 -2 61 -13 18 -16 18 -16 12 6 -6 18 -4
22 13 22 11 0 28 -9 38 -19 10 -10 26 -20 36 -22 10 -2 18 -8 17 -14 0 -13
-194 -7 -198 6 -5 12 -32 11 -32 -1 0 -5 -7 -10 -15 -10 -8 0 -15 2 -15 4 0 2
25 53 56 112 31 60 69 135 85 167 34 67 27 65 210 42z m-1041 -15 c-6 -11 -12
-20 -14 -20 -2 0 -2 9 1 20 3 11 9 20 15 20 5 0 4 -9 -2 -20z m-233 3 c-2 -5
-16 -34 -31 -65 -23 -50 -46 -81 -46 -63 0 10 71 135 76 135 3 0 3 -3 1 -7z
m134 -16 c-10 -9 -11 -8 -5 6 3 10 9 15 12 12 3 -3 0 -11 -7 -18z m207 15
c-27 -61 -92 -183 -100 -188 -14 -9 0 33 21 66 9 14 28 49 41 78 13 28 28 52
33 52 5 0 7 -3 5 -8z m7 -90 c-19 -40 -39 -72 -44 -72 -4 0 9 34 31 76 22 41
42 74 44 71 2 -2 -12 -36 -31 -75z m623 61 c-26 -56 -83 -161 -86 -159 -4 5
77 166 84 166 3 0 4 -3 2 -7z m-786 -76 c-35 -67 -79 -136 -71 -112 13 37 94
185 101 185 5 0 -9 -33 -30 -73z m-62 53 c0 -5 -5 -10 -11 -10 -5 0 -7 5 -4
10 3 6 8 10 11 10 2 0 4 -4 4 -10z m-84 -161 c-36 -73 -66 -123 -66 -113 0 10
9 33 20 49 11 17 20 36 20 42 0 7 15 36 34 65 18 29 37 63 41 76 4 13 9 21 12
18 3 -3 -24 -65 -61 -137z m-135 14 c-8 -14 -10 -9 -10 27 1 42 1 43 10 18 7
-18 7 -33 0 -45z m407 5 c-2 -7 -22 -22 -44 -33 -28 -14 -34 -20 -21 -23 10
-2 25 2 33 9 10 8 18 9 25 2 16 -16 -15 -22 -96 -19 -56 2 -71 6 -73 19 -2 10
2 18 10 18 7 1 30 3 52 5 21 2 48 10 60 18 26 18 59 20 54 4z m-335 -43 c-9
-19 -20 -35 -25 -35 -4 0 2 16 13 35 12 19 23 35 25 35 2 0 -4 -16 -13 -35z
m1908 2 c-1 -12 -15 -9 -19 4 -3 6 1 10 8 8 6 -3 11 -8 11 -12z m522 -132 c-7
-73 -41 -172 -82 -237 -33 -53 -61 -74 -61 -47 0 23 43 97 54 93 6 -2 24 24
41 58 25 54 30 78 34 168 4 87 6 97 12 60 4 -25 5 -67 2 -95z m-2043 115 c-8
-5 -19 -10 -25 -10 -5 0 -3 5 5 10 8 5 20 10 25 10 6 0 3 -5 -5 -10z m268 3
c-15 -2 -42 -2 -60 0 -18 2 -6 4 27 4 33 0 48 -2 33 -4z m76 -2 c3 -4 -6 -6
-19 -3 -14 2 -25 6 -25 8 0 8 39 4 44 -5z m966 -32 c0 -11 -27 -18 -48 -12
-17 4 -19 8 -10 22 9 15 15 16 34 7 13 -6 24 -14 24 -17z m230 2 c-6 -21 -5
-31 3 -34 7 -2 1 -10 -13 -17 -17 -9 -25 -10 -28 -1 -2 6 -14 11 -27 11 -13 0
-27 5 -31 12 -5 8 2 9 24 5 40 -8 62 0 62 22 0 16 8 31 16 31 1 0 -1 -13 -6
-29z m-1700 -10 c0 -14 -18 -23 -30 -16 -6 4 -8 11 -5 16 8 12 35 12 35 0z
m100 0 c0 -5 -7 -11 -15 -15 -8 -3 -15 -11 -15 -18 0 -7 -8 -22 -16 -33 -16
-19 -16 -19 -9 5 16 54 25 70 40 70 8 0 15 -4 15 -9z m83 -16 c-23 -31 -31
-31 -25 0 3 16 11 25 24 25 18 0 18 -1 1 -25z m107 15 c0 -5 -5 -10 -10 -10
-6 0 -14 -10 -19 -22 -5 -13 -15 -38 -23 -55 -7 -18 -16 -33 -20 -33 -11 0
-11 2 14 56 12 27 23 52 24 57 1 4 2 9 3 12 2 10 31 5 31 -5z m110 7 c0 -2
-11 -14 -25 -27 l-25 -24 4 25 c2 13 5 25 5 27 1 3 41 3 41 -1z m85 -17 c-10
-11 -21 -20 -24 -20 -4 0 -7 9 -8 20 -1 15 4 20 24 20 25 0 26 0 8 -20z m115
10 c0 -5 -9 -10 -20 -10 -11 0 -20 5 -20 10 0 6 9 10 20 10 11 0 20 -4 20 -10z
m90 4 c0 -10 -45 -84 -51 -84 -4 0 1 20 10 45 9 25 22 45 28 45 7 0 13 -2 13
-6z m-80 -53 c-11 -23 -23 -41 -26 -41 -2 0 0 9 6 19 5 11 15 32 20 47 6 15
13 24 16 21 3 -3 -4 -23 -16 -46z m-880 18 c0 -11 -4 -17 -10 -14 -5 3 -10 13
-10 21 0 8 5 14 10 14 6 0 10 -9 10 -21z m180 -19 c-11 -22 -23 -40 -25 -40
-3 0 4 18 15 40 11 22 23 40 25 40 3 0 -4 -18 -15 -40z m620 36 c0 -3 -4 -8
-10 -11 -5 -3 -10 -1 -10 4 0 6 5 11 10 11 6 0 10 -2 10 -4z m33 -26 c-3 -11
-9 -20 -15 -20 -5 0 -4 9 2 20 6 11 12 20 14 20 2 0 2 -9 -1 -20z m366 1 c10
-6 10 -10 1 -16 -6 -4 -15 -17 -20 -29 -8 -21 -13 -23 -73 -19 -50 3 -68 0
-81 -12 -9 -9 -22 -13 -28 -10 -7 4 -5 0 5 -8 21 -17 22 -34 3 -52 -19 -19
-26 -1 -26 65 0 30 -5 50 -12 53 -10 3 -10 7 1 20 11 14 32 17 115 17 55 0
107 -4 115 -9z m-388 -39 c21 -15 40 -35 42 -44 5 -19 -8 -25 -18 -8 -10 16
-25 12 -19 -5 4 -8 1 -15 -5 -15 -6 0 -11 4 -11 9 0 13 -29 41 -43 41 -8 0 -7
-4 1 -12 19 -19 14 -33 -6 -15 -11 10 -35 17 -60 17 -22 0 -44 5 -48 11 -3 6
-20 9 -37 6 -32 -4 -72 24 -56 40 4 4 56 7 115 5 98 -2 110 -5 145 -30z m423
13 c-5 -19 -2 -25 11 -25 10 0 13 5 9 12 -4 7 -3 8 5 4 14 -9 5 -26 -15 -26
-8 0 -14 -4 -14 -9 0 -4 -10 -19 -22 -32 -20 -21 -30 -24 -85 -21 -86 4 -80
22 7 22 59 0 71 3 80 20 6 11 10 26 9 33 -3 27 1 47 11 47 6 0 8 -11 4 -25z
m603 -50 c-1 -36 -5 -65 -10 -65 -8 0 -8 107 0 123 9 16 11 5 10 -58z m-1614
40 c-3 -9 -8 -14 -10 -11 -3 3 -2 9 2 15 9 16 15 13 8 -4z m38 -8 c-10 -9 -11
-8 -5 6 3 10 9 15 12 12 3 -3 0 -11 -7 -18z m1439 -57 c0 -44 -4 -80 -8 -80
-5 0 -7 35 -6 78 3 87 2 82 9 82 3 0 5 -36 5 -80z m270 66 c0 -8 -4 -18 -10
-21 -5 -3 -10 3 -10 14 0 12 5 21 10 21 6 0 10 -6 10 -14z m-1569 -19 c-10 -9
-11 -8 -5 6 3 10 9 15 12 12 3 -3 0 -11 -7 -18z m509 -1 c0 -2 -7 -17 -15 -32
-15 -29 -22 -13 -9 20 5 14 24 23 24 12z m959 -42 c-16 -20 -21 -12 -13 21 6
23 8 25 16 11 6 -11 6 -22 -3 -32z m-1483 -1 c-10 -10 -19 5 -10 18 6 11 8 11
12 0 2 -7 1 -15 -2 -18z m1244 17 c0 -5 -7 -10 -15 -10 -8 0 -15 5 -15 10 0 6
7 10 15 10 8 0 15 -4 15 -10z m-1340 -8 c0 -5 -7 -17 -15 -28 -14 -18 -14 -17
-4 9 12 27 19 34 19 19z m646 -79 c-3 -3 -13 -2 -23 2 -12 5 -14 9 -5 12 6 3
10 8 7 13 -3 5 0 21 7 37 l13 28 3 -44 c2 -24 1 -45 -2 -48z m-909 55 c-3 -8
-6 -5 -6 6 -1 11 2 17 5 13 3 -3 4 -12 1 -19z m453 18 c0 -3 -4 -8 -10 -11 -5
-3 -10 -1 -10 4 0 6 5 11 10 11 6 0 10 -2 10 -4z m202 -11 c0 -5 -5 -11 -11
-13 -6 -2 -11 4 -11 13 0 9 5 15 11 13 6 -2 11 -8 11 -13z m1292 1 c-10 -8
-21 -12 -24 -10 -5 6 21 24 34 24 6 0 1 -6 -10 -14z m446 4 c0 -12 -27 -80
-32 -80 -2 0 -4 11 -4 25 -1 14 2 22 7 19 5 -3 9 6 9 20 0 14 5 26 10 26 6 0
10 -5 10 -10z m-2199 -23 c-10 -9 -11 -8 -5 6 3 10 9 15 12 12 3 -3 0 -11 -7
-18z m1355 -19 c8 -16 13 -32 10 -35 -2 -3 -14 14 -26 37 -12 23 -17 39 -11
35 6 -3 18 -20 27 -37z m673 -4 c12 -25 20 -48 17 -51 -4 -4 -46 78 -46 91 0
15 10 2 29 -40z m-1887 14 c-7 -7 -12 -8 -12 -2 0 14 12 26 19 19 2 -3 -1 -11
-7 -17z m151 7 c-3 -9 -8 -14 -10 -11 -3 3 -2 9 2 15 9 16 15 13 8 -4z m198
-8 c-10 -9 -11 -8 -5 6 3 10 9 15 12 12 3 -3 0 -11 -7 -18z m72 2 c5 -3 2 -9
-7 -12 -12 -5 -16 0 -16 15 0 12 3 17 8 12 4 -5 11 -12 15 -15z m447 17 c0 -3
-4 -8 -10 -11 -5 -3 -10 -1 -10 4 0 6 5 11 10 11 6 0 10 -2 10 -4z m-403 -28
c-3 -8 -6 -5 -6 6 -1 11 2 17 5 13 3 -3 4 -12 1 -19z m-726 -15 c-12 -20 -14
-14 -5 12 4 9 9 14 11 11 3 -2 0 -13 -6 -23z m569 23 c0 -3 -4 -8 -10 -11 -5
-3 -10 -1 -10 4 0 6 5 11 10 11 6 0 10 -2 10 -4z m516 -8 c3 -4 -6 -18 -20
-31 -19 -18 -23 -27 -14 -30 7 -3 -5 -5 -27 -4 -22 1 -43 7 -47 12 -5 6 -8 5
-8 -2 0 -7 -4 -13 -10 -13 -5 0 -10 5 -10 11 0 7 -8 18 -17 25 -17 12 -17 14
2 29 15 11 37 15 82 12 34 -1 65 -6 69 -9z m295 -10 c11 -21 11 -22 -4 -9 -10
7 -17 17 -17 22 0 15 9 10 21 -13z m-1088 -13 c-3 -9 -8 -14 -10 -11 -3 3 -2
9 2 15 9 16 15 13 8 -4z m184 -17 c-3 -7 -5 -2 -5 12 0 14 2 19 5 13 2 -7 2
-19 0 -25z m138 9 c18 -14 12 -43 -7 -31 -22 14 -26 -21 -6 -50 l21 -31 -31
29 c-17 15 -28 35 -25 42 3 8 -1 14 -7 14 -9 0 -7 7 5 20 21 24 25 24 50 7z
m825 -7 c0 -5 -7 -7 -15 -4 -8 4 -15 1 -15 -6 0 -6 -5 -8 -11 -5 -6 5 -4 12 8
20 18 13 33 11 33 -5z m-1480 0 c0 -5 -2 -10 -4 -10 -3 0 -8 5 -11 10 -3 6 -1
10 4 10 6 0 11 -4 11 -10z m940 -5 c10 -12 10 -15 -4 -15 -9 0 -16 7 -16 15 0
8 2 15 4 15 2 0 9 -7 16 -15z m842 -47 c2 -22 0 -38 -7 -38 -5 0 -9 18 -8 42
3 75 8 74 15 -4z m248 47 c0 -8 -2 -15 -4 -15 -2 0 -6 7 -10 15 -3 8 -1 15 4
15 6 0 10 -7 10 -15z m-1757 -10 c-3 -9 -8 -14 -10 -11 -3 3 -2 9 2 15 9 16
15 13 8 -4z m881 -12 c-10 -40 -14 -41 -14 -5 0 18 5 32 10 32 6 0 8 -11 4
-27z m676 17 c0 -5 -4 -10 -10 -10 -5 0 -10 5 -10 10 0 6 5 10 10 10 6 0 10
-4 10 -10z m-1015 -36 c-17 -33 -20 -58 -5 -49 6 3 10 -1 10 -9 0 -13 -3 -14
-19 -4 -15 9 -17 17 -10 35 14 38 30 65 35 60 2 -2 -2 -17 -11 -33z m613 21
c8 -7 -10 -25 -24 -25 -8 0 -14 -7 -14 -15 0 -8 -4 -15 -10 -15 -5 0 -10 9
-10 19 0 11 -6 22 -12 24 -23 9 15 28 42 21 14 -3 27 -7 28 -9z m737 -6 c-10
-15 -25 -10 -19 6 4 8 10 12 15 9 5 -3 7 -10 4 -15z m-1398 -14 c-7 -14 -15
-25 -19 -25 -13 0 -9 38 5 43 23 10 25 7 14 -18z m198 -5 c-2 -27 -15 -38 -15
-12 0 11 -6 23 -12 25 -7 3 -4 6 8 6 15 1 20 -5 19 -19z m227 -2 c-6 -6 -15
-8 -19 -4 -4 4 -1 11 7 16 19 12 27 3 12 -12z m303 12 c3 -5 1 -10 -4 -10 -6
0 -11 5 -11 10 0 6 2 10 4 10 3 0 8 -4 11 -10z m-1344 -23 c-10 -9 -11 -8 -5
6 3 10 9 15 12 12 3 -3 0 -11 -7 -18z m726 1 c-3 -8 -6 -5 -6 6 -1 11 2 17 5
13 3 -3 4 -12 1 -19z m-145 -18 c12 -16 26 -30 32 -30 5 0 24 -14 41 -30 39
-38 62 -32 68 18 3 32 4 31 5 -11 1 -30 -2 -46 -8 -42 -6 3 -10 -4 -10 -17 0
-14 -3 -18 -8 -11 -4 6 -31 14 -61 17 -65 7 -83 20 -75 53 4 14 1 30 -8 41
-26 30 -30 42 -14 42 9 0 25 -13 38 -30z m398 6 c0 -22 -33 -29 -46 -11 -13
17 -64 12 -64 -7 0 -5 -4 -6 -10 -3 -5 3 -10 13 -10 21 0 11 15 14 65 14 49 0
65 -3 65 -14z m560 -63 c-7 -23 -8 -18 -8 27 0 45 1 50 8 28 5 -16 5 -40 0
-55z m550 42 c0 -5 -5 -3 -10 5 -5 8 -10 20 -10 25 0 6 5 3 10 -5 5 -8 10 -19
10 -25z m-1303 -22 c0 -38 -2 -43 -10 -26 -8 18 -3 73 7 73 1 0 3 -21 3 -47z
m373 37 c0 -5 -5 -10 -11 -10 -5 0 -7 5 -4 10 3 6 8 10 11 10 2 0 4 -4 4 -10z
m280 -30 c14 -27 25 -38 35 -34 11 5 15 -1 15 -25 0 -17 -4 -31 -8 -31 -7 0
-42 62 -64 113 -14 33 2 17 22 -23z m50 25 c0 -8 -2 -15 -4 -15 -2 0 -6 7 -10
15 -3 8 -1 15 4 15 6 0 10 -7 10 -15z m260 -8 c8 -4 -3 -5 -25 -2 -61 7 -62 7
-30 14 17 4 32 4 35 0 3 -3 12 -9 20 -12z m-1529 -10 c-10 -9 -11 -8 -5 6 3
10 9 15 12 12 3 -3 0 -11 -7 -18z m245 -33 c-16 -30 -21 -17 -10 24 4 15 10
20 16 14 6 -6 4 -20 -6 -38z m883 20 c17 -38 6 -41 -12 -5 -9 17 -12 31 -8 31
4 0 13 -12 20 -26z m49 -62 c-11 -2 -25 1 -31 7 -7 7 -3 8 12 4 20 -5 31 12
12 19 -5 2 -13 17 -16 33 -6 25 -3 23 18 -15 25 -44 25 -45 5 -48z m-858 53
c14 -19 14 -19 -2 -6 -10 7 -18 18 -18 24 0 6 1 8 3 6 1 -2 9 -13 17 -24z
m267 3 c-3 -8 -6 -5 -6 6 -1 11 2 17 5 13 3 -3 4 -12 1 -19z m773 18 c0 -3 -4
-8 -10 -11 -5 -3 -10 -1 -10 4 0 6 5 11 10 11 6 0 10 -2 10 -4z m-1200 -10 c0
-3 -4 -8 -10 -11 -5 -3 -10 -1 -10 4 0 6 5 11 10 11 6 0 10 -2 10 -4z m613
-12 c-3 -7 -13 -16 -23 -19 -10 -3 -20 -14 -23 -24 -4 -16 -13 -18 -88 -14
-96 5 -118 13 -38 13 42 1 50 3 36 11 -9 5 -22 7 -27 4 -17 -11 -11 17 8 31
24 19 162 17 155 -2z m312 -7 c7 -7 4 -8 -8 -3 -10 3 -41 6 -68 6 -28 0 -48 4
-45 9 7 11 108 2 121 -12z m427 -12 c-17 -34 -18 -35 -84 -35 -38 0 -68 4 -68
8 0 5 14 7 30 4 18 -3 30 0 30 7 0 6 -11 11 -25 11 -15 0 -25 6 -25 14 0 20
16 24 92 25 l68 1 -18 -35z m-709 8 c-10 -26 -35 -64 -40 -60 -5 6 30 76 39
77 4 0 4 -8 1 -17z m167 -8 c0 -4 -7 -19 -15 -35 -11 -21 -12 -30 -4 -30 7 0
10 -3 6 -6 -3 -3 -10 -3 -15 0 -12 7 7 76 20 76 4 0 8 -2 8 -5z m-643 -31 c4
-13 -26 -49 -34 -40 -4 4 -1 11 6 16 8 4 11 15 7 25 -4 11 -2 15 6 13 6 -2 13
-8 15 -14z m778 5 c11 -17 -1 -21 -15 -4 -8 9 -8 15 -2 15 6 0 14 -5 17 -11z
m805 7 c0 -3 -4 -8 -10 -11 -5 -3 -10 -1 -10 4 0 6 5 11 10 11 6 0 10 -2 10
-4z m-583 -12 c-3 -3 -12 -4 -19 -1 -8 3 -5 6 6 6 11 1 17 -2 13 -5z m538 -4
c12 -20 -63 -76 -124 -93 -20 -5 -52 -9 -71 -8 -23 1 -30 -2 -22 -8 14 -9 -53
-21 -112 -21 l-31 1 28 24 c15 13 44 27 65 30 82 14 159 37 202 60 52 27 57
29 65 15z m-1760 -20 c3 -5 1 -10 -4 -10 -6 0 -11 5 -11 10 0 6 2 10 4 10 3 0
8 -4 11 -10z m140 -29 c-8 -17 -18 -31 -21 -31 -3 0 -3 4 0 9 3 4 10 21 16 36
6 15 13 25 16 22 3 -3 -2 -19 -11 -36z m817 22 c-6 -2 -10 -9 -7 -14 4 -5 -1
-6 -10 -2 -13 5 -14 7 -3 14 7 5 18 8 23 8 6 0 4 -3 -3 -6z m68 -2 c0 -5 8
-12 18 -14 14 -4 14 -5 1 -6 -9 0 -22 6 -29 14 -9 10 -9 15 -1 15 6 0 11 -4
11 -9z m530 -1 c-8 -5 -19 -10 -25 -10 -5 0 -3 5 5 10 8 5 20 10 25 10 6 0 3
-5 -5 -10z m-1455 -10 c-3 -5 -10 -10 -16 -10 -5 0 -9 5 -9 10 0 6 7 10 16 10
8 0 12 -4 9 -10z m559 2 c2 -4 -4 -8 -14 -8 -10 0 -16 4 -14 8 3 4 9 8 14 8 5
0 11 -4 14 -8z m536 -12 c0 -5 -6 -12 -12 -16 -7 -4 -10 -4 -6 1 4 4 3 14 -4
22 -8 11 -7 12 6 7 9 -3 16 -10 16 -14z m-880 0 c12 -8 9 -10 -13 -10 -16 0
-26 4 -22 10 8 12 16 12 35 0z m55 0 c-3 -5 -10 -10 -16 -10 -5 0 -9 5 -9 10
0 6 7 10 16 10 8 0 12 -4 9 -10z m140 0 c-3 -5 -25 -9 -48 -8 l-42 1 45 7 c25
4 46 8 48 8 2 1 0 -2 -3 -8z m83 3 c33 -8 9 -21 -29 -15 -22 3 -27 7 -18 13
17 10 18 10 47 2z m182 -3 c0 -5 -7 -10 -16 -10 -8 0 -12 5 -9 10 3 6 10 10
16 10 5 0 9 -4 9 -10z m30 -5 c0 -8 -2 -15 -4 -15 -2 0 -6 7 -10 15 -3 8 -1
15 4 15 6 0 10 -7 10 -15z m500 8 c0 -5 -15 -8 -34 -8 -19 0 -38 3 -42 8 -4 4
11 7 34 7 23 0 42 -3 42 -7z m52 -15 c-19 -20 -24 -21 -32 -8 -16 25 -12 30
22 30 l32 0 -22 -22z m-502 -3 c19 -22 8 -25 -12 -3 -10 10 -14 18 -9 18 5 0
14 -7 21 -15z m66 3 c-10 -6 -22 -6 -26 -2 -5 5 3 10 18 11 22 1 24 0 8 -9z
m-1105 -21 c-10 -9 -11 -8 -5 6 3 10 9 15 12 12 3 -3 0 -11 -7 -18z m351 -9
c-7 -7 -12 -8 -12 -2 0 6 3 14 7 17 3 4 9 5 12 2 2 -3 -1 -11 -7 -17z m1138
12 c13 -8 13 -10 -2 -10 -9 0 -20 5 -23 10 -8 13 5 13 25 0z m-1255 -38 c-15
-16 -16 -15 -4 12 7 15 15 23 17 16 3 -7 -3 -19 -13 -28z m159 -6 c-10 -16
-12 -26 -5 -26 6 0 11 4 11 9 0 5 9 7 20 4 10 -3 18 -10 17 -16 -1 -5 9 -14
23 -18 l25 -7 -26 -1 c-30 -1 -92 27 -84 38 2 5 10 21 16 37 6 16 13 24 16 17
2 -6 -3 -23 -13 -37z m678 31 c-7 -8 -8 -26 -2 -51 6 -29 5 -39 -6 -43 -9 -3
-13 -12 -10 -19 3 -8 1 -14 -4 -14 -6 0 -10 11 -10 25 0 19 4 23 17 18 16 -6
16 -5 0 17 -22 31 -21 49 1 66 22 17 27 17 14 1z m-322 -4 c-1 -14 -30 -47
-30 -34 0 8 -7 10 -22 5 -23 -7 -23 -6 -4 15 18 20 56 29 56 14z m57 -25 c-3
-8 -6 -5 -6 6 -1 11 2 17 5 13 3 -3 4 -12 1 -19z m653 8 c0 -3 -4 -8 -10 -11
-5 -3 -10 -1 -10 4 0 6 5 11 10 11 6 0 10 -2 10 -4z m-1144 -43 c-8 -15 -15
-25 -16 -21 0 12 23 58 27 54 3 -2 -2 -17 -11 -33z m1544 27 c0 -5 -5 -10 -11
-10 -5 0 -7 5 -4 10 3 6 8 10 11 10 2 0 4 -4 4 -10z m-1141 -42 c-9 -16 -14
-19 -17 -9 -2 7 2 17 9 22 20 13 21 11 8 -13z m488 0 c-3 -8 -6 -5 -6 6 -1 11
2 17 5 13 3 -3 4 -12 1 -19z m-370 -10 c-3 -8 -6 -5 -6 6 -1 11 2 17 5 13 3
-3 4 -12 1 -19z m298 13 c3 -5 1 -12 -4 -15 -13 -8 -42 4 -35 15 7 12 31 12
39 0z m240 -1 c-3 -5 -11 -10 -16 -10 -6 0 -7 5 -4 10 3 6 11 10 16 10 6 0 7
-4 4 -10z m280 0 c-3 -5 -13 -10 -21 -10 -8 0 -12 5 -9 10 3 6 13 10 21 10 8
0 12 -4 9 -10z m-1364 -43 c-10 -9 -11 -8 -5 6 3 10 9 15 12 12 3 -3 0 -11 -7
-18z m884 13 c3 -5 -9 -19 -27 -30 -41 -25 -74 -27 -39 -2 14 9 30 22 35 29
13 15 23 16 31 3z m115 -10 c0 -5 -8 -10 -17 -10 -15 0 -16 2 -3 10 19 12 20
12 20 0z m230 0 c-8 -5 -19 -10 -25 -10 -5 0 -3 5 5 10 8 5 20 10 25 10 6 0 3
-5 -5 -10z m-1399 -33 c-10 -9 -11 -8 -5 6 3 10 9 15 12 12 3 -3 0 -11 -7 -18z
m662 8 c5 -11 -1 -15 -22 -15 -15 0 -31 -3 -35 -7 -7 -7 -76 -12 -76 -5 0 1 5
10 11 20 15 24 114 30 122 7z m165 4 c12 0 38 2 57 3 19 1 41 -4 48 -11 10
-10 -3 -12 -63 -10 -41 2 -85 0 -97 -5 -13 -4 -31 -2 -44 5 -29 15 -10 26 38
21 21 -1 48 -3 61 -3z m-603 -19 c3 -6 -1 -7 -9 -4 -18 7 -21 14 -7 14 6 0 13
-4 16 -10z m-45 -60 c0 -5 -5 -10 -11 -10 -5 0 -7 5 -4 10 3 6 8 10 11 10 2 0
4 -4 4 -10z m587 -66 c-3 -3 -12 -4 -19 -1 -8 3 -5 6 6 6 11 1 17 -2 13 -5z
m-67 -34 c-24 -15 -36 -11 -14 4 10 8 21 12 24 10 2 -3 -2 -9 -10 -14z m405
10 c4 -7 -3 -8 -22 -4 -38 9 -42 14 -10 14 14 0 29 -5 32 -10z m242 -32 c-3
-7 -5 -2 -5 12 0 14 2 19 5 13 2 -7 2 -19 0 -25z m-887 -45 c0 -4 -11 4 -25
17 -14 13 -25 27 -25 31 0 5 11 -3 25 -17 14 -14 25 -28 25 -31z m634 13 c48
-14 108 -26 132 -26 50 0 64 -14 33 -31 -29 -15 -120 -5 -201 22 -76 25 -175
23 -202 -4 -10 -9 -23 -17 -29 -17 -7 0 -6 4 3 10 20 13 4 13 -21 -1 -11 -5
-16 -15 -13 -21 4 -7 3 -8 -4 -4 -7 4 -31 -4 -55 -18 -24 -15 -58 -26 -75 -26
-39 0 -82 19 -82 36 0 11 14 12 58 8 62 -6 87 2 177 58 90 56 127 58 279 14z
m203 2 c-3 -8 -6 -5 -6 6 -1 11 2 17 5 13 3 -3 4 -12 1 -19z m-350 -64 c-3 -3
-12 -4 -19 -1 -8 3 -5 6 6 6 11 1 17 -2 13 -5z m-52 -14 c-3 -5 -14 -10 -23
-9 -14 0 -13 2 3 9 27 11 27 11 20 0z m162 -6 c-3 -3 -12 -4 -19 -1 -8 3 -5 6
6 6 11 1 17 -2 13 -5z m100 -30 c-3 -3 -12 -4 -19 -1 -8 3 -5 6 6 6 11 1 17
-2 13 -5z"/>
<path d="M1475 3220 c-3 -5 -1 -10 4 -10 6 0 11 5 11 10 0 6 -2 10 -4 10 -3 0
-8 -4 -11 -10z"/>
<path d="M2638 3203 c7 -3 16 -2 19 1 4 3 -2 6 -13 5 -11 0 -14 -3 -6 -6z"/>
<path d="M2622 3154 c8 -9 23 -14 33 -12 12 2 7 7 -16 15 -30 12 -32 11 -17
-3z"/>
<path d="M2684 3135 c-10 -8 -14 -15 -8 -15 6 0 17 7 24 15 16 19 9 19 -16 0z"/>
<path d="M2720 3125 c0 -8 7 -15 15 -15 8 0 15 4 15 9 0 5 -7 11 -15 15 -9 3
-15 0 -15 -9z"/>
<path d="M2770 3130 c0 -5 5 -10 11 -10 5 0 7 5 4 10 -3 6 -8 10 -11 10 -2 0
-4 -4 -4 -10z"/>
<path d="M2910 3126 c0 -8 9 -18 21 -21 31 -10 33 0 4 19 -21 14 -25 14 -25 2z"/>
<path d="M2519 3074 c-1 -2 -2 -17 -3 -32 -1 -25 2 -27 26 -24 39 6 43 38 7
51 -16 5 -30 8 -30 5z m41 -30 c0 -2 -7 -4 -15 -4 -8 0 -15 4 -15 10 0 5 7 7
15 4 8 -4 15 -8 15 -10z"/>
<path d="M2965 3069 c-4 -6 0 -18 9 -27 15 -15 16 -15 16 5 0 25 -15 38 -25
22z"/>
<path d="M2890 3011 c0 -4 9 -16 21 -27 13 -11 19 -27 16 -41 -7 -37 7 -49 38
-33 21 11 30 12 45 2 11 -7 29 -12 40 -12 19 0 21 4 15 37 -4 29 -1 41 17 60
16 17 18 23 7 23 -22 0 -59 -29 -59 -47 0 -13 -3 -13 -15 -3 -8 7 -12 17 -9
22 3 5 0 8 -7 7 -8 -1 -21 0 -29 4 -30 11 -80 16 -80 8z m104 -49 c3 -5 -7
-16 -22 -24 l-28 -17 4 34 c4 30 7 33 23 25 10 -6 20 -14 23 -18z"/>
<path d="M2460 2958 c-22 -24 -26 -38 -10 -38 5 0 16 14 25 30 18 36 13 38
-15 8z"/>
<path d="M2540 2960 c0 -5 5 -10 10 -10 6 0 10 5 10 10 0 6 -4 10 -10 10 -5 0
-10 -4 -10 -10z"/>
<path d="M2830 2960 c0 -3 32 -38 70 -79 39 -40 70 -69 70 -64 0 4 -31 40 -70
78 -38 38 -70 67 -70 65z"/>
<path d="M2700 2891 c0 -6 -1 -14 -2 -18 -2 -4 8 -7 22 -8 14 0 26 5 27 10 2
6 -3 10 -10 10 -6 0 -18 4 -24 8 -8 5 -13 4 -13 -2z"/>
<path d="M2620 2831 c0 -6 9 -15 21 -21 18 -10 20 -17 14 -52 l-7 -41 28 7
c31 8 54 9 94 4 23 -3 25 0 22 35 -2 26 2 39 12 43 8 3 17 12 20 20 8 22 -34
8 -56 -18 -14 -16 -15 -24 -7 -40 11 -21 11 -21 -19 0 l-30 22 -15 -23 c-16
-22 -16 -22 -11 9 6 32 -5 47 -43 58 -14 5 -23 3 -23 -3z"/>
<path d="M2980 2791 c0 -5 7 -15 17 -22 15 -13 15 -12 4 9 -12 23 -21 28 -21
13z"/>
<path d="M2378 2723 c7 -3 16 -2 19 1 4 3 -2 6 -13 5 -11 0 -14 -3 -6 -6z"/>
<path d="M3264 2714 c-4 -10 -9 -22 -11 -26 -2 -5 3 -8 12 -8 20 0 31 28 17
42 -8 8 -13 6 -18 -8z"/>
<path d="M3040 2705 c0 -15 29 -55 41 -55 6 0 6 5 -1 13 -6 6 -17 21 -25 32
-8 11 -15 15 -15 10z"/>
<path d="M3140 2707 c0 -2 7 -18 16 -36 11 -23 20 -29 27 -22 7 7 6 15 -3 26
-15 18 0 21 18 3 6 -6 14 -9 18 -6 3 4 -8 14 -25 22 -28 15 -51 20 -51 13z"/>
<path d="M3266 2635 c-15 -15 -20 -30 -17 -48 1 -4 -12 2 -28 14 -21 15 -37
20 -55 15 -38 -9 -32 -26 9 -26 24 0 37 -6 45 -20 6 -11 21 -20 35 -20 19 0
24 6 27 32 2 24 9 34 26 38 13 3 23 10 23 15 -1 17 -48 17 -65 0z"/>
<path d="M2965 2630 c-3 -6 -17 -7 -31 -4 -24 6 -24 6 6 -26 29 -31 41 -58 20
-45 -6 4 -18 1 -26 -6 -13 -11 -15 -10 -14 2 5 30 -1 39 -22 39 -17 0 -19 -3
-10 -12 7 -7 12 -25 12 -41 0 -24 3 -28 18 -21 9 4 32 7 50 6 28 -2 32 1 32
22 0 14 5 28 10 31 18 11 11 23 -10 18 -11 -3 -27 -2 -36 1 -15 6 -15 8 1 26
10 11 15 20 12 20 -3 0 -9 -5 -12 -10z"/>
<path d="M3094 2627 c3 -10 6 -24 6 -30 0 -8 4 -7 12 1 10 10 8 16 -6 30 -18
16 -19 16 -12 -1z"/>
<path d="M2770 2536 c0 -2 7 -7 16 -10 8 -3 12 -2 9 4 -6 10 -25 14 -25 6z"/>
<path d="M3145 2250 c3 -5 8 -10 11 -10 2 0 4 5 4 10 0 6 -5 10 -11 10 -5 0
-7 -4 -4 -10z"/>
<path d="M3430 2039 c0 -5 5 -7 10 -4 6 3 10 8 10 11 0 2 -4 4 -10 4 -5 0 -10
-5 -10 -11z"/>
<path d="M3430 1956 c0 -9 5 -16 10 -16 6 0 10 4 10 9 0 6 -4 13 -10 16 -5 3
-10 -1 -10 -9z"/>
<path d="M3406 1813 c-4 -9 -2 -21 4 -27 7 -7 10 -7 10 1 0 6 3 18 6 27 3 9 2
16 -4 16 -5 0 -13 -8 -16 -17z"/>
<path d="M3340 1525 c-8 -9 -8 -15 -2 -15 12 0 26 19 19 26 -2 2 -10 -2 -17
-11z"/>
<path d="M1650 3071 c0 -6 5 -13 10 -16 6 -3 10 1 10 9 0 9 -4 16 -10 16 -5 0
-10 -4 -10 -9z"/>
<path d="M1655 2940 c3 -5 8 -10 11 -10 2 0 4 5 4 10 0 6 -5 10 -11 10 -5 0
-7 -4 -4 -10z"/>
<path d="M1722 2922 c-26 -8 -31 -25 -8 -30 8 -2 20 6 26 17 6 12 9 21 8 20
-2 -1 -13 -4 -26 -7z"/>
<path d="M1440 2309 c0 -11 5 -17 10 -14 6 3 10 13 10 21 0 8 -4 14 -10 14 -5
0 -10 -9 -10 -21z"/>
<path d="M1430 2256 c0 -8 -4 -16 -10 -18 -5 -1 -11 -17 -13 -34 -2 -17 -8
-37 -12 -44 -6 -9 -2 -10 15 -5 19 6 22 4 17 -9 -4 -11 -1 -16 11 -17 14 0 14
-2 2 -6 -17 -7 -45 -43 -45 -58 0 -5 6 -11 13 -11 6 -1 16 -2 22 -3 5 0 7 -8
3 -16 -9 -26 26 -44 61 -32 45 16 59 32 46 56 -5 11 -10 31 -10 45 0 21 -5 26
-25 26 -15 0 -25 -6 -25 -14 0 -7 -9 -16 -20 -19 -11 -3 -20 -1 -20 4 0 5 7 9
16 9 21 0 10 37 -22 70 -23 25 -23 26 -4 38 21 13 28 52 10 52 -5 0 -10 -6
-10 -14z m70 -186 c0 -5 -5 -10 -11 -10 -6 0 -8 -9 -4 -20 4 -14 1 -22 -10
-26 -24 -10 -39 10 -20 26 8 7 15 19 15 26 0 8 7 14 15 14 8 0 15 -4 15 -10z"/>
<path d="M1454 2194 c3 -9 6 -18 6 -20 0 -3 5 -2 10 1 16 10 12 35 -6 35 -11
0 -14 -5 -10 -16z"/>
<path d="M1598 2063 c7 -3 16 -2 19 1 4 3 -2 6 -13 5 -11 0 -14 -3 -6 -6z"/>
<path d="M1641 2044 c0 -11 3 -14 6 -6 3 7 2 16 -1 19 -3 4 -6 -2 -5 -13z"/>
<path d="M1546 2021 c-3 -5 1 -11 9 -15 18 -6 45 2 45 15 0 12 -47 12 -54 0z"/>
<path d="M1111 2822 c-7 -13 -11 -26 -8 -28 8 -8 29 25 25 38 -3 8 -9 4 -17
-10z"/>
<path d="M2488 2563 c6 -2 18 -2 25 0 6 3 1 5 -13 5 -14 0 -19 -2 -12 -5z"/>
<path d="M2545 2560 c3 -5 8 -10 11 -10 2 0 4 5 4 10 0 6 -5 10 -11 10 -5 0
-7 -4 -4 -10z"/>
<path d="M2450 2539 c0 -5 5 -7 10 -4 6 3 10 8 10 11 0 2 -4 4 -10 4 -5 0 -10
-5 -10 -11z"/>
<path d="M2630 2530 c0 -5 5 -10 11 -10 5 0 7 5 4 10 -3 6 -8 10 -11 10 -2 0
-4 -4 -4 -10z"/>
<path d="M2600 2500 c-9 -17 -9 -25 1 -34 9 -8 11 -7 6 7 -5 13 -1 17 21 18
16 0 21 3 12 6 -8 3 -18 10 -21 16 -4 5 -12 0 -19 -13z"/>
<path d="M2440 2496 c0 -9 5 -16 10 -16 6 0 10 4 10 9 0 6 -4 13 -10 16 -5 3
-10 -1 -10 -9z"/>
<path d="M2510 2450 c0 -5 6 -10 14 -10 8 0 16 -5 18 -12 2 -6 10 -8 17 -4 9
6 9 11 0 22 -13 16 -49 19 -49 4z"/>
<path d="M2475 2390 c-3 -5 -1 -10 4 -10 6 0 11 5 11 10 0 6 -2 10 -4 10 -3 0
-8 -4 -11 -10z"/>
<path d="M2858 2283 c7 -3 16 -2 19 1 4 3 -2 6 -13 5 -11 0 -14 -3 -6 -6z"/>
<path d="M2750 2255 c0 -15 6 -25 14 -25 19 0 27 25 13 39 -18 18 -27 13 -27
-14z"/>
<path d="M2871 2249 c-34 -33 -38 -48 -18 -68 10 -11 9 -13 -5 -8 -11 4 -24
-2 -36 -18 l-20 -25 -6 30 c-5 28 -9 30 -47 30 -44 0 -45 -5 -7 -24 13 -6 24
-21 26 -33 2 -12 10 -27 19 -34 13 -11 19 -9 40 15 16 19 30 26 43 23 10 -3
27 1 36 8 15 11 15 13 2 21 -25 15 -26 37 -6 77 22 45 19 46 -21 6z"/>
<path d="M2138 2233 c7 -3 16 -2 19 1 4 3 -2 6 -13 5 -11 0 -14 -3 -6 -6z"/>
<path d="M2705 2220 c-3 -6 1 -7 9 -4 18 7 21 14 7 14 -6 0 -13 -4 -16 -10z"/>
<path d="M2278 2213 c7 -3 16 -2 19 1 4 3 -2 6 -13 5 -11 0 -14 -3 -6 -6z"/>
<path d="M2438 2183 c7 -3 16 -2 19 1 4 3 -2 6 -13 5 -11 0 -14 -3 -6 -6z"/>
<path d="M2498 2163 c7 -3 16 -2 19 1 4 3 -2 6 -13 5 -11 0 -14 -3 -6 -6z"/>
<path d="M2589 2135 c18 -8 36 -15 40 -15 13 1 -45 29 -59 29 -8 0 0 -6 19
-14z"/>
<path d="M2655 2112 c16 -13 67 -33 61 -23 -3 5 -20 14 -38 20 -18 6 -28 8
-23 3z"/>
<path d="M2978 2093 c-20 -5 -25 -25 -5 -21 6 1 22 -3 35 -10 25 -15 30 -1 6
22 -8 9 -16 15 -17 15 -1 -1 -10 -3 -19 -6z"/>
<path d="M2775 2050 c3 -5 8 -10 11 -10 2 0 4 5 4 10 0 6 -5 10 -11 10 -5 0
-7 -4 -4 -10z"/>
<path d="M3039 1986 c-1 -3 -2 -9 -3 -13 -1 -5 -5 -14 -9 -20 -11 -18 17 -17
32 1 9 10 8 16 -4 26 -8 7 -16 10 -16 6z"/>
<path d="M3195 1980 c-3 -5 -1 -10 4 -10 6 0 11 5 11 10 0 6 -2 10 -4 10 -3 0
-8 -4 -11 -10z"/>
<path d="M2996 1911 c-4 -7 -5 -15 -2 -18 9 -9 19 4 14 18 -4 11 -6 11 -12 0z"/>
<path d="M3240 1881 c0 -6 5 -13 10 -16 6 -3 10 1 10 9 0 9 -4 16 -10 16 -5 0
-10 -4 -10 -9z"/>
<path d="M3051 1861 c-7 -5 -9 -11 -5 -14 5 -3 15 1 22 9 14 16 5 18 -17 5z"/>
<path d="M3075 1833 c-19 -15 -19 -15 4 -8 14 4 21 3 17 -3 -3 -5 3 -17 14
-27 21 -19 28 -41 10 -30 -19 12 -10 -12 11 -31 16 -14 23 -16 26 -6 3 6 9 10
14 6 5 -3 9 -1 9 5 0 5 -8 15 -17 20 -17 10 -17 10 1 11 15 0 16 2 6 15 -10
12 -15 13 -21 4 -9 -14 -28 3 -44 38 -9 20 -12 21 -30 6z"/>
<path d="M3245 1800 c3 -5 10 -10 16 -10 5 0 9 5 9 10 0 6 -7 10 -16 10 -8 0
-12 -4 -9 -10z"/>
<path d="M3215 1771 c-6 -10 25 -31 45 -31 15 0 3 17 -20 30 -12 6 -21 7 -25
1z"/>
<path d="M2138 2123 c6 -2 18 -2 25 0 6 3 1 5 -13 5 -14 0 -19 -2 -12 -5z"/>
<path d="M2275 2100 c-3 -5 1 -10 10 -10 9 0 13 5 10 10 -3 6 -8 10 -10 10 -2
0 -7 -4 -10 -10z"/>
<path d="M2398 2073 c7 -3 16 -2 19 1 4 3 -2 6 -13 5 -11 0 -14 -3 -6 -6z"/>
<path d="M2165 2020 c-4 -6 -2 -17 4 -23 15 -15 25 -2 13 19 -7 12 -11 13 -17
4z"/>
<path d="M2268 2013 c7 -3 16 -2 19 1 4 3 -2 6 -13 5 -11 0 -14 -3 -6 -6z"/>
<path d="M2064 1989 c-13 -16 -15 -23 -7 -26 22 -8 27 -4 30 22 4 31 1 31 -23
4z"/>
<path d="M2394 1985 c-19 -14 -18 -14 4 -15 13 0 22 6 22 15 0 19 -1 19 -26 0z"/>
<path d="M2300 1966 c0 -13 -8 -27 -17 -31 -16 -6 -15 -8 5 -16 25 -10 29 -41
7 -59 -11 -9 -12 -16 -5 -25 8 -9 8 -15 0 -20 -5 -3 -14 4 -19 17 l-10 23 0
-23 c-1 -12 -7 -25 -14 -28 -23 -8 1 -80 31 -93 15 -7 22 -17 18 -26 -3 -9 0
-12 10 -8 7 3 14 7 14 9 0 9 -50 83 -60 89 -5 3 -10 10 -10 16 0 14 94 11 109
-3 10 -11 11 -10 6 5 -4 9 -15 17 -25 17 -10 0 -21 7 -24 16 -9 22 -8 24 9 24
8 0 16 5 16 10 1 6 2 15 3 20 0 6 8 15 16 20 12 8 11 10 -7 10 -16 0 -22 6
-21 18 3 40 -3 62 -17 62 -9 0 -15 -9 -15 -24z"/>
<path d="M2435 1970 c3 -5 8 -10 11 -10 2 0 4 5 4 10 0 6 -5 10 -11 10 -5 0
-7 -4 -4 -10z"/>
<path d="M2705 1969 c4 -6 -4 -8 -22 -4 -26 5 -26 5 -5 -5 14 -6 30 -6 39 -1
13 7 13 9 -1 14 -11 4 -15 3 -11 -4z"/>
<path d="M2620 1950 c0 -5 5 -10 11 -10 5 0 7 5 4 10 -3 6 -8 10 -11 10 -2 0
-4 -4 -4 -10z"/>
<path d="M2191 1936 c-10 -12 -8 -13 8 -9 12 3 18 9 15 14 -7 12 -10 11 -23
-5z"/>
<path d="M2468 1908 c-2 -13 -9 -22 -15 -21 -6 1 -14 -4 -16 -12 -4 -9 1 -13
16 -13 31 2 56 26 50 49 -7 26 -31 24 -35 -3z"/>
<path d="M2386 1889 c-21 -43 -21 -45 14 -57 21 -8 28 -16 24 -26 -3 -9 -1
-16 5 -16 6 0 11 7 11 15 0 8 5 15 10 15 6 0 10 7 10 16 0 11 -6 15 -19 11
-14 -3 -21 2 -26 20 -3 13 -3 28 0 33 3 5 1 11 -4 14 -5 4 -17 -8 -25 -25z"/>
<path d="M2710 1900 c8 -5 20 -10 25 -10 6 0 3 5 -5 10 -8 5 -19 10 -25 10 -5
0 -3 -5 5 -10z"/>
<path d="M2140 1860 c0 -5 7 -10 15 -10 8 0 15 5 15 10 0 6 -7 10 -15 10 -8 0
-15 -4 -15 -10z"/>
<path d="M2875 1830 c3 -5 14 -10 23 -10 15 0 15 2 2 10 -20 13 -33 13 -25 0z"/>
<path d="M2205 1750 c-10 -11 -13 -20 -7 -20 6 0 16 9 22 20 6 11 9 20 7 20
-2 0 -12 -9 -22 -20z"/>
<path d="M1870 1740 c0 -5 7 -10 16 -10 8 0 12 5 9 10 -3 6 -10 10 -16 10 -5
0 -9 -4 -9 -10z"/>
<path d="M1860 1664 c0 -8 5 -12 10 -9 6 4 8 11 5 16 -9 14 -15 11 -15 -7z"/>
<path d="M1538 1733 c6 -2 18 -2 25 0 6 3 1 5 -13 5 -14 0 -19 -2 -12 -5z"/>
<path d="M1663 1453 c9 -9 20 -13 24 -9 4 4 1 11 -7 16 -25 16 -35 11 -17 -7z"/>
<path d="M1973 1443 c9 -2 25 -2 35 0 9 3 1 5 -18 5 -19 0 -27 -2 -17 -5z"/>
<path d="M2768 1453 c7 -3 16 -2 19 1 4 3 -2 6 -13 5 -11 0 -14 -3 -6 -6z"/>
<path d="M3012 3372 c-46 -31 -79 -58 -73 -60 6 -2 44 19 84 47 40 28 81 51
91 51 9 0 14 5 11 10 -11 17 -28 10 -113 -48z"/>
<path d="M1201 3392 c-7 -13 -11 -26 -8 -28 8 -8 29 25 25 38 -3 8 -9 4 -17
-10z"/>
<path d="M3100 3337 c-25 -18 -57 -40 -70 -49 -13 -10 -21 -21 -17 -24 4 -4
38 14 76 40 41 29 74 45 82 41 7 -5 10 -3 7 6 -8 24 -31 20 -78 -14z"/>
<path d="M3495 3279 c-11 -17 1 -21 15 -4 8 9 8 15 2 15 -6 0 -14 -5 -17 -11z"/>
<path d="M3118 3243 c-36 -24 -48 -43 -29 -43 4 0 20 9 34 20 14 11 28 20 32
20 3 0 3 -9 0 -20 -3 -11 -2 -20 3 -20 12 0 22 37 15 56 -7 18 -11 17 -55 -13z"/>
<path d="M3345 3260 c-3 -6 1 -7 9 -4 18 7 21 14 7 14 -6 0 -13 -4 -16 -10z"/>
<path d="M3243 3193 c-73 -50 -84 -55 -100 -42 -16 12 -16 11 1 -8 10 -13 24
-19 30 -16 27 16 156 114 156 118 0 8 -1 7 -87 -52z"/>
<path d="M3410 3216 c-160 -109 -192 -127 -206 -115 -22 18 -27 5 -5 -15 18
-16 24 -13 135 64 101 71 125 90 113 90 -1 0 -18 -11 -37 -24z"/>
<path d="M3465 3165 c-44 -30 -95 -65 -114 -77 -18 -12 -28 -24 -21 -26 13 -5
229 138 230 151 0 14 -15 6 -95 -48z"/>
<path d="M3590 3078 c-7 -46 -21 -126 -31 -178 -18 -96 -18 -113 2 -93 15 15
59 250 59 316 0 65 -17 40 -30 -45z"/>
<path d="M3504 3081 c-18 -11 -35 -24 -38 -30 -11 -17 15 -13 36 6 17 15 20
15 28 3 7 -11 10 -8 10 13 0 15 -1 27 -2 27 -2 0 -17 -9 -34 -19z"/>
<path d="M1136 3074 c-5 -14 -4 -15 9 -4 17 14 19 20 6 20 -5 0 -12 -7 -15
-16z"/>
<path d="M3662 3053 c0 -10 -5 -49 -11 -88 -13 -85 -13 -98 -3 -91 5 3 14 43
21 90 15 101 15 100 2 104 -5 2 -10 -5 -9 -15z"/>
<path d="M3230 3059 c0 -3 26 -39 59 -78 32 -40 75 -101 96 -137 37 -63 55
-85 55 -66 0 27 -208 305 -210 281z"/>
<path d="M3340 2980 c0 -5 8 -10 19 -10 12 0 37 -27 70 -75 48 -68 71 -95 71
-80 0 6 -52 83 -94 138 -26 34 -66 51 -66 27z"/>
<path d="M3463 2958 c2 -7 10 -12 17 -10 7 1 19 -3 27 -10 13 -10 15 -9 12 7
-3 13 -14 21 -33 23 -20 3 -27 0 -23 -10z"/>
<path d="M3735 2903 c-4 -27 -18 -104 -31 -173 -46 -235 -73 -395 -68 -399 14
-14 26 34 58 219 53 319 63 390 55 396 -4 2 -11 -17 -14 -43z"/>
<path d="M3806 2733 c-3 -38 -19 -124 -35 -193 -15 -69 -26 -127 -24 -130 12
-14 31 39 42 117 14 100 16 108 30 182 13 65 14 91 2 91 -4 0 -11 -30 -15 -67z"/>
<path d="M3400 2771 c0 -5 7 -15 17 -22 15 -13 15 -12 4 9 -12 23 -21 28 -21
13z"/>
<path d="M3567 2735 c-37 -25 -72 -45 -78 -45 -5 0 -17 16 -25 36 -8 20 -18
34 -20 31 -3 -3 0 -15 6 -27 6 -12 9 -28 6 -36 -3 -7 -2 -13 2 -12 4 1 15 -2
24 -6 13 -6 37 6 85 40 80 56 90 64 78 64 -6 -1 -40 -21 -78 -45z"/>
<path d="M3897 2570 c-11 -28 -69 -332 -63 -337 13 -13 24 13 36 84 6 43 19
113 27 155 14 74 14 133 0 98z"/>
<path d="M3705 2499 c-3 -19 -9 -56 -14 -84 -9 -48 -7 -65 4 -53 7 6 25 161
20 167 -2 1 -6 -12 -10 -30z"/>
<path d="M3907 2443 c-4 -3 -7 -11 -7 -17 0 -6 5 -5 12 2 6 6 9 14 7 17 -3 3
-9 2 -12 -2z"/>
<path d="M3931 2385 c1 -39 -1 -91 -5 -117 -12 -68 10 -62 24 6 8 40 8 71 1
112 -15 81 -23 81 -20 -1z"/>
<path d="M3891 2363 c0 -25 1 -26 9 -8 12 27 12 35 0 35 -5 0 -10 -12 -9 -27z"/>
<path d="M3717 2318 c-86 -63 -77 -84 10 -23 l65 46 -5 -46 c-4 -25 -2 -45 4
-45 5 0 9 10 9 23 0 12 3 39 6 60 9 50 -5 48 -89 -15z"/>
<path d="M4042 2350 c0 -14 3 -34 8 -45 l9 -20 -1 20 c0 11 -4 31 -8 45 l-8
25 0 -25z"/>
<path d="M3881 2314 c0 -11 3 -14 6 -6 3 7 2 16 -1 19 -3 4 -6 -2 -5 -13z"/>
<path d="M3873 2265 c-3 -9 -3 -18 -1 -21 3 -3 8 4 11 16 6 23 -1 27 -10 5z"/>
<path d="M4050 2259 c0 -11 5 -17 10 -14 6 3 10 13 10 21 0 8 -4 14 -10 14 -5
0 -10 -9 -10 -21z"/>
<path d="M3670 2198 c0 -22 27 -43 32 -26 4 10 30 9 127 -8 130 -22 160 -18
145 20 -7 18 -8 18 -21 0 -13 -18 -16 -18 -116 0 -56 10 -117 20 -134 23 -25
4 -33 2 -33 -9z"/>
<path d="M3957 2090 c-4 -16 -11 -18 -43 -14 -22 3 -55 10 -74 15 -53 13 -90
11 -90 -5 0 -19 20 -32 29 -18 4 7 33 6 91 -4 86 -13 110 -9 110 22 0 22 -17
25 -23 4z"/>
<path d="M3950 1994 c0 -12 -6 -15 -22 -11 -61 15 -96 18 -101 10 -8 -12 20
-53 36 -53 8 0 8 3 -1 12 -22 22 -13 25 39 16 36 -7 55 -6 65 3 18 15 18 39
-1 39 -8 0 -15 -7 -15 -16z"/>
<path d="M4059 1948 c-7 -25 -7 -48 1 -48 6 0 10 11 10 25 0 20 -7 35 -11 23z"/>
<path d="M288 1835 c2 -14 6 -25 8 -25 2 0 4 11 4 25 0 14 -4 25 -9 25 -4 0
-6 -11 -3 -25z"/>
<path d="M4020 1719 c0 -5 5 -7 10 -4 6 3 10 8 10 11 0 2 -4 4 -10 4 -5 0 -10
-5 -10 -11z"/>
<path d="M4056 1687 c-5 -15 -6 -31 -2 -34 11 -11 18 5 14 34 l-4 28 -8 -28z"/>
<path d="M4032 1585 c-7 -14 -8 -27 -2 -30 5 -3 12 6 16 20 9 35 0 41 -14 10z"/>
<path d="M3857 1509 c-15 -20 -19 -21 -78 -10 -55 9 -67 8 -93 -7 -46 -27 -46
-47 0 -27 30 13 55 15 111 10 72 -7 72 -6 79 20 9 35 0 41 -19 14z"/>
<path d="M4011 1494 c0 -11 3 -14 6 -6 3 7 2 16 -1 19 -3 4 -6 -2 -5 -13z"/>
<path d="M3901 1446 c-6 -16 -10 -34 -8 -40 6 -17 29 33 24 52 -3 13 -7 10
-16 -12z"/>
<path d="M3991 1434 c0 -11 3 -14 6 -6 3 7 2 16 -1 19 -3 4 -6 -2 -5 -13z"/>
<path d="M3813 1404 c-5 -13 -14 -15 -44 -10 -48 8 -52 2 -74 -134 -10 -58
-27 -120 -38 -138 -10 -18 -21 -32 -22 -30 -3 3 14 116 34 233 15 85 15 87
-16 83 -28 -3 -28 -5 -60 -163 -18 -88 -32 -172 -33 -187 0 -33 -14 -35 -135
-13 -120 22 -144 20 -155 -11 -13 -33 -13 -34 4 -34 7 0 20 9 27 20 14 19 15
19 124 -1 169 -31 154 -43 186 148 32 193 39 226 46 219 3 -2 -7 -79 -22 -170
-33 -201 -27 -230 30 -141 35 56 43 82 72 245 8 44 9 45 49 48 32 2 44 8 52
28 10 20 9 24 -4 24 -8 0 -17 -7 -21 -16z"/>
<path d="M3522 1381 c-17 -17 -32 -33 -32 -36 0 -4 -9 -63 -21 -132 -12 -68
-18 -127 -15 -130 14 -14 34 22 40 75 14 120 31 194 49 203 22 13 22 -6 3 -93
-19 -86 -29 -188 -17 -167 11 17 51 240 51 283 0 34 -18 33 -58 -3z"/>
<path d="M3850 1327 c-14 -28 -26 -55 -28 -59 -2 -5 1 -8 6 -8 11 0 57 108 50
115 -2 3 -15 -19 -28 -48z"/>
<path d="M3936 1321 c-4 -7 -5 -15 -2 -18 9 -9 19 4 14 18 -4 11 -6 11 -12 0z"/>
<path d="M3378 1281 c-50 -36 -78 -74 -78 -104 0 -7 8 0 18 15 24 36 105 95
110 79 6 -17 22 -3 22 19 0 33 -16 31 -72 -9z"/>
<path d="M3807 1233 c-4 -3 -7 -11 -7 -17 0 -6 5 -5 12 2 6 6 9 14 7 17 -3 3
-9 2 -12 -2z"/>
<path d="M3785 1190 c-3 -5 -1 -10 4 -10 6 0 11 5 11 10 0 6 -2 10 -4 10 -3 0
-8 -4 -11 -10z"/>
<path d="M3355 1149 c-22 -17 -41 -34 -43 -39 -4 -12 56 9 64 21 9 15 34 10
28 -6 -4 -8 -1 -15 5 -15 6 0 11 16 11 35 0 43 -12 43 -65 4z"/>
<path d="M3745 1130 c-3 -5 -1 -10 4 -10 6 0 11 5 11 10 0 6 -2 10 -4 10 -3 0
-8 -4 -11 -10z"/>
<path d="M3815 1090 c-3 -5 -1 -10 4 -10 6 0 11 5 11 10 0 6 -2 10 -4 10 -3 0
-8 -4 -11 -10z"/>
<path d="M550 1023 c0 -8 100 -138 146 -188 32 -36 31 -32 -12 30 -26 39 -58
82 -70 97 -13 16 -25 37 -29 48 -6 18 -35 29 -35 13z"/>
<path d="M3529 941 c-23 -17 -29 -18 -114 -5 -150 23 -173 18 -163 -33 3 -17
5 -17 21 3 18 20 21 20 110 7 51 -7 97 -14 102 -15 25 -5 64 14 70 33 10 29 2
32 -26 10z"/>
<path d="M3665 900 c-3 -5 -1 -10 4 -10 6 0 11 5 11 10 0 6 -2 10 -4 10 -3 0
-8 -4 -11 -10z"/>
<path d="M2872 803 c-61 -43 -119 -83 -128 -88 -12 -8 -15 -17 -10 -33 8 -25
32 -25 30 -1 -1 8 48 49 107 91 89 63 109 74 109 58 0 -24 15 -26 24 -4 10 27
7 54 -7 54 -8 0 -64 -35 -125 -77z"/>
<path d="M1347 772 c-25 -48 -55 -96 -66 -106 -31 -28 -25 -40 10 -19 22 13
44 44 75 105 24 48 44 92 44 98 0 29 -23 1 -63 -78z"/>
<path d="M3438 845 c-22 -13 -39 -13 -101 -3 -79 12 -107 8 -107 -16 0 -11 9
-13 38 -9 20 3 63 0 95 -6 50 -9 63 -8 91 7 18 10 31 23 28 30 -5 15 -11 15
-44 -3z"/>
<path d="M760 766 c0 -2 8 -10 18 -17 15 -13 16 -12 3 4 -13 16 -21 21 -21 13z"/>
<path d="M3492 714 c-18 -19 -32 -40 -32 -47 0 -7 7 -3 16 8 8 11 24 31 35 43
33 38 16 35 -19 -4z"/>
<path d="M1650 725 c0 -8 5 -15 10 -15 6 0 10 7 10 15 0 8 -4 15 -10 15 -5 0
-10 -7 -10 -15z"/>
<path d="M2923 713 c-31 -28 -36 -43 -50 -147 -10 -82 19 -51 42 44 11 46 25
85 31 87 8 3 9 -8 3 -39 -19 -91 -22 -138 -10 -138 6 0 11 11 11 25 0 13 7 50
15 82 18 71 19 113 2 113 -7 0 -27 -12 -44 -27z"/>
<path d="M1695 710 c3 -5 8 -10 11 -10 2 0 4 5 4 10 0 6 -5 10 -11 10 -5 0 -7
-4 -4 -10z"/>
<path d="M2640 710 c0 -7 21 -40 46 -74 26 -33 49 -67 51 -73 5 -14 53 -18 52
-5 0 4 -26 41 -57 82 -53 69 -92 99 -92 70z"/>
<path d="M2580 706 c0 -5 10 -25 21 -45 l21 -36 -36 40 c-49 55 -45 27 6 -43
51 -71 50 -70 55 -55 3 10 10 10 25 2 46 -25 27 9 -64 115 -15 17 -28 27 -28
22z"/>
<path d="M1730 672 c-20 -17 -30 -33 -26 -40 10 -16 26 -15 26 1 0 6 14 21 30
32 16 11 30 23 30 28 0 15 -27 6 -60 -21z"/>
<path d="M1785 656 c-16 -13 -28 -26 -25 -29 3 -3 21 8 40 24 41 35 28 39 -15
5z"/>
<path d="M2493 673 c-6 -5 -14 -25 -18 -47 -6 -31 -5 -38 6 -34 8 3 15 14 17
26 4 29 8 28 39 -8 24 -29 43 -39 43 -22 0 17 -76 92 -87 85z"/>
<path d="M2395 662 c-3 -3 -5 -16 -5 -29 0 -42 57 -20 59 23 1 12 -43 16 -54
6z"/>
<path d="M2305 649 c-4 -6 -5 -13 -2 -16 7 -7 27 6 27 18 0 12 -17 12 -25 -2z"/>
<path d="M2340 645 c0 -8 5 -15 10 -15 6 0 10 7 10 15 0 8 -4 15 -10 15 -5 0
-10 -7 -10 -15z"/>
<path d="M3415 650 c-3 -5 -1 -10 4 -10 6 0 11 5 11 10 0 6 -2 10 -4 10 -3 0
-8 -4 -11 -10z"/>
<path d="M2150 647 c0 -2 -11 -64 -25 -138 -14 -74 -25 -142 -25 -151 0 -31
28 -45 101 -52 39 -4 82 -11 94 -16 13 -5 38 -5 57 0 18 4 54 11 81 15 79 11
56 28 -30 22 -72 -4 -258 17 -275 32 -3 3 5 60 17 126 27 134 30 165 15 165
-5 0 -10 -2 -10 -3z"/>
<path d="M2807 635 c-26 -19 -14 -55 18 -55 24 0 39 29 28 56 -7 18 -23 17
-46 -1z"/>
<path d="M1793 598 c-18 -11 -33 -26 -33 -33 0 -16 61 -66 72 -59 10 7 11 114
1 113 -5 0 -23 -10 -40 -21z m21 -43 c-4 -8 -10 -15 -15 -15 -5 0 -9 7 -9 15
0 8 7 15 15 15 9 0 12 -6 9 -15z"/>
<path d="M3350 590 c-9 -6 -10 -10 -3 -10 6 0 15 5 18 10 8 12 4 12 -15 0z"/>
<path d="M3133 453 c-41 -23 -60 -52 -27 -39 9 3 21 6 28 6 7 0 27 14 44 30
40 38 16 39 -45 3z"/>
<path d="M2166 425 c-11 -29 -7 -35 22 -29 15 3 68 -2 117 -11 120 -22 247
-44 265 -47 36 -6 119 15 137 34 18 20 18 20 -12 15 -92 -18 -118 -17 -285 13
-96 17 -189 34 -206 37 -23 4 -33 1 -38 -12z"/>
<path d="M3026 379 c-15 -15 -16 -19 -5 -19 16 0 39 19 39 32 0 13 -14 8 -34
-13z"/>
<path d="M2975 350 c4 -6 11 -8 16 -5 14 9 11 15 -7 15 -8 0 -12 -5 -9 -10z"/>
<path d="M2898 323 c7 -3 16 -2 19 1 4 3 -2 6 -13 5 -11 0 -14 -3 -6 -6z"/>
<path d="M2120 280 c0 -5 5 -10 11 -10 5 0 7 5 4 10 -3 6 -8 10 -11 10 -2 0
-4 -4 -4 -10z"/>
<path d="M1545 260 c3 -5 8 -10 11 -10 2 0 4 5 4 10 0 6 -5 10 -11 10 -5 0 -7
-4 -4 -10z"/>
<path d="M2165 170 c3 -5 25 -10 48 -10 31 0 38 3 27 10 -20 13 -83 13 -75 0z"/>
</g>
</svg>
