<?xml version="1.0" standalone="no"?>
<!DOCTYPE svg PUBLIC "-//W3C//DTD SVG 20010904//EN"
 "http://www.w3.org/TR/2001/REC-SVG-20010904/DTD/svg10.dtd">
<svg version="1.0" xmlns="http://www.w3.org/2000/svg"
 width="435.000000pt" height="435.000000pt" viewBox="0 0 435.000000 435.000000"
 preserveAspectRatio="xMidYMid meet">

<g transform="translate(0.000000,435.000000) scale(0.100000,-0.100000)"
fill="#000000" stroke="none">
<path d="M2005 4342 c-22 -1 -71 -7 -110 -13 -38 -6 -88 -12 -110 -15 -55 -7
-153 -31 -195 -48 -19 -8 -62 -22 -95 -31 -33 -9 -69 -21 -80 -26 -11 -4 -46
-18 -77 -29 -31 -12 -73 -32 -93 -45 -20 -14 -42 -25 -50 -25 -8 0 -40 -16
-72 -35 -32 -19 -63 -35 -69 -35 -7 0 -14 -6 -17 -13 -3 -8 -21 -21 -41 -31
-19 -9 -55 -32 -79 -50 -227 -173 -468 -425 -545 -569 -12 -23 -33 -55 -47
-71 -14 -15 -25 -31 -25 -34 0 -11 -85 -177 -97 -190 -7 -7 -16 -25 -20 -40
-3 -15 -17 -51 -31 -80 -14 -29 -26 -61 -27 -70 -2 -26 -17 -76 -25 -87 -11
-14 -40 -132 -40 -161 0 -13 -4 -24 -9 -24 -4 0 -11 -28 -14 -62 -3 -35 -11
-112 -18 -173 -15 -147 -6 -433 21 -594 11 -68 23 -127 25 -132 3 -4 10 -31
15 -60 6 -29 16 -60 24 -68 8 -9 17 -32 21 -51 9 -50 56 -170 77 -202 10 -15
24 -42 30 -60 6 -18 14 -35 17 -38 3 -3 19 -32 35 -65 15 -33 41 -76 57 -96
16 -20 29 -41 29 -46 0 -6 9 -18 20 -28 11 -10 20 -24 20 -31 0 -7 14 -25 30
-41 17 -15 30 -33 30 -38 0 -36 391 -415 428 -415 6 0 30 -15 54 -33 107 -81
314 -192 423 -227 22 -6 63 -23 90 -36 73 -34 341 -94 421 -94 22 0 46 -6 53
-13 16 -16 492 -17 512 0 8 6 61 18 118 28 153 25 306 67 382 106 20 11 42 19
49 19 12 0 231 106 275 133 11 6 46 30 78 52 32 22 73 48 90 59 18 10 40 27
50 37 10 11 35 30 55 43 49 31 276 261 305 308 12 21 32 45 44 53 11 8 30 33
42 55 12 23 33 53 46 68 14 15 28 36 31 46 4 11 19 37 35 59 16 22 29 47 29
55 0 8 10 29 23 46 13 17 31 51 41 76 10 25 21 50 26 55 4 6 17 42 30 80 12
39 26 75 30 80 25 30 100 399 100 489 0 20 4 36 9 36 13 0 14 347 1 355 -5 3
-10 23 -10 43 0 96 -61 381 -99 464 -11 26 -21 54 -21 63 0 8 -4 23 -9 33 -23
46 -41 95 -41 112 0 11 -4 20 -9 20 -5 0 -11 8 -15 18 -3 9 -15 33 -27 52 -12
19 -36 62 -53 96 -18 33 -44 74 -59 90 -15 16 -27 37 -27 46 0 10 -5 18 -10
18 -6 0 -13 8 -17 18 -7 21 -95 132 -149 188 -21 23 -66 69 -98 103 -57 60
-166 157 -220 194 -14 10 -26 24 -26 32 0 8 -8 15 -18 15 -9 0 -34 11 -54 25
-20 14 -40 25 -43 25 -3 0 -34 18 -67 40 -34 22 -66 40 -71 40 -4 0 -25 11
-45 25 -20 14 -43 25 -50 25 -8 0 -26 8 -40 18 -35 23 -118 55 -217 83 -44 12
-88 26 -98 31 -10 5 -39 13 -65 18 -137 26 -218 39 -284 45 -78 7 -327 12
-393 7z m278 -1287 c151 -39 286 -141 354 -268 l38 -72 0 -120 c0 -118 -1
-121 -37 -190 -37 -72 -119 -159 -209 -224 -65 -45 -92 -99 -99 -191 l-5 -75
-214 -3 -213 -2 3 107 c4 93 8 116 31 164 36 73 117 161 211 229 93 67 121
113 107 175 -10 44 -27 61 -80 75 -49 14 -88 12 -151 -6 -44 -13 -66 -28 -116
-80 -34 -35 -67 -64 -73 -64 -10 0 -160 299 -160 320 0 18 56 95 91 124 43 36
137 83 202 101 70 19 248 19 320 0z m-51 -1294 c43 -16 110 -82 130 -129 23
-52 25 -145 5 -195 -20 -47 -81 -105 -135 -129 -104 -46 -254 -14 -320 70 -84
105 -83 219 3 320 67 79 204 107 317 63z"/>
</g>
</svg>
